<svg
  xmlns="http://www.w3.org/2000/svg"
  xmlns:xlink="http://www.w3.org/1999/xlink"
  width="75"
  height="75"
  viewBox="0 0 50.4 50.4"
>
  <defs>
    <filter id="reflectionBlur" x="0" y="0">
      <feGaussianBlur in="SourceGraphic" stdDeviation="0.2" />
    </filter>

    <filter id="dropshadow" x="-100%" y="-100%" width="300%" height="300%">
      <feGaussianBlur in="SourceAlpha" stdDeviation="5" />
      <feOffset dx="2" dy="2" result="offsetblur" />
      <feMerge>
        <feMergeNode/>
          <feMergeNode in="SourceGraphic" />
        </feMerge>
      </filter>
  </defs>

  <circle filter="url(#dropshadow)" fill="#231f20;" cx="23.73" cy="23.68" r="14.28" />

  <g>
    <!-- Bowl -->
    <path fill="#fff" d="M31,29H16.49V26.28h.34A1.47,1.47,0,0,0,18.3,24.8V22.1a5.43,5.43,0,0,1,3.47-5.05,2,2,0,0,1,3.91,0,5.6,5.6,0,0,1,3.47,5.22V24.8a1.48,1.48,0,0,0,1.48,1.48H31Zm-13.79-.67H30.29v-1.4a2.15,2.15,0,0,1-1.82-2.13V22.28a5,5,0,0,0-3.22-4.66L25,17.54v-.23a1.3,1.3,0,0,0-2.59,0v.24l-.23.08A4.73,4.73,0,0,0,19,22.1v2.7a2.15,2.15,0,0,1-1.81,2.13Z" />

    <!-- Clapper  -->
    <path fill="#fff" d="M23.73,31.25a2.4,2.4,0,0,1-2.4-2.4H22a1.73,1.73,0,0,0,3.45,0h.68A2.41,2.41,0,0,1,23.73,31.25Z" />

    <!-- Reflection -->
    <path fill="#fff" filter="url(#reflectionBlur)" d="M20.85,21.1l-.65-.22a3.77,3.77,0,0,1,2.27-2.31l.23.64A3,3,0,0,0,20.85,21.1Z" />
  </g>
</svg>