<svg id="Layer_1" data-name="Layer 1" xmlns="http://www.w3.org/2000/svg" viewBox="0 0 420.66 102.28"><defs><style>.cls-1{fill:#f6b4d1;}.cls-2{fill:#f065a5;}.cls-3{fill:#f9cde0;}.cls-4{fill:#fce5ef;}</style></defs><path class="cls-1" d="M453,83.5a.8.8,0,0,1-.56-1.36,14.47,14.47,0,0,0,0-20.43.79.79,0,0,1,1.12-1.12,16,16,0,0,1,0,22.68A.8.8,0,0,1,453,83.5Z" transform="translate(-41.92 -60.36)"/><path class="cls-1" d="M449.7,80.59a.8.8,0,0,1-.56-1.36,10.31,10.31,0,0,0,0-14.6.8.8,0,0,1,0-1.13.79.79,0,0,1,1.12,0,11.9,11.9,0,0,1,0,16.86A.79.79,0,0,1,449.7,80.59Z" transform="translate(-41.92 -60.36)"/><path class="cls-1" d="M446.44,77.48a.8.8,0,0,1-.56-1.36,5.93,5.93,0,0,0,0-8.38A.8.8,0,0,1,447,66.61a7.53,7.53,0,0,1,0,10.63A.8.8,0,0,1,446.44,77.48Z" transform="translate(-41.92 -60.36)"/><path class="cls-1" d="M385.15,69.33a3.68,3.68,0,0,1-.39,1.77,3.18,3.18,0,0,1-1.05,1.16,4.59,4.59,0,0,1-1.53.65,8,8,0,0,1-1.79.2h-1.45v4.53H376v-12h4.41a8.24,8.24,0,0,1,1.84.2,4.41,4.41,0,0,1,1.5.63,3,3,0,0,1,1,1.13A3.8,3.8,0,0,1,385.15,69.33Zm-2.9,0a1.32,1.32,0,0,0-.17-.7,1.1,1.1,0,0,0-.46-.42A1.9,1.9,0,0,0,381,68a4.56,4.56,0,0,0-.75-.06h-1.28v2.84h1.23a4.92,4.92,0,0,0,.78-.07,2.25,2.25,0,0,0,.66-.24,1.2,1.2,0,0,0,.47-.45A1.37,1.37,0,0,0,382.25,69.35Z" transform="translate(-41.92 -60.36)"/><path class="cls-1" d="M400.29,75.09a4.25,4.25,0,0,1-1,1.52,4.85,4.85,0,0,1-1.64,1,6.69,6.69,0,0,1-4.27,0,4.62,4.62,0,0,1-1.61-1,4.18,4.18,0,0,1-1-1.52,5.25,5.25,0,0,1-.36-2V65.63h2.88v7.24a3.24,3.24,0,0,0,.13.94,2.34,2.34,0,0,0,.39.79,1.89,1.89,0,0,0,.69.55,2.83,2.83,0,0,0,2.09,0,1.93,1.93,0,0,0,.7-.55,2.17,2.17,0,0,0,.39-.79,3.61,3.61,0,0,0,.12-.94V65.63h2.9v7.48A5.25,5.25,0,0,1,400.29,75.09Z" transform="translate(-41.92 -60.36)"/><path class="cls-1" d="M406.57,77.64v-12h2.92v9.48h4.65v2.53Z" transform="translate(-41.92 -60.36)"/><path class="cls-1" d="M425.42,68.75a2.76,2.76,0,0,0-1-.75,2.7,2.7,0,0,0-1.16-.28,4,4,0,0,0-.59,0,1.6,1.6,0,0,0-.53.19,1.45,1.45,0,0,0-.4.38,1,1,0,0,0-.16.58.88.88,0,0,0,.13.51,1.07,1.07,0,0,0,.37.36,3.63,3.63,0,0,0,.59.28l.76.26,1.27.45a4.63,4.63,0,0,1,1.2.65,3.23,3.23,0,0,1,.9,1,2.87,2.87,0,0,1,.36,1.5,4,4,0,0,1-.38,1.79,3.6,3.6,0,0,1-1,1.25,4.4,4.4,0,0,1-1.47.73,6.21,6.21,0,0,1-1.72.24,7.26,7.26,0,0,1-2.49-.45,5.34,5.34,0,0,1-2-1.28l1.9-1.94a3.46,3.46,0,0,0,1.16.91,3.11,3.11,0,0,0,2.06.3,1.86,1.86,0,0,0,.54-.22,1.19,1.19,0,0,0,.36-.41,1.28,1.28,0,0,0,.13-.61,1,1,0,0,0-.16-.58,1.74,1.74,0,0,0-.49-.43,4.09,4.09,0,0,0-.78-.36l-1.06-.34a12.08,12.08,0,0,1-1.13-.45,3.8,3.8,0,0,1-1-.65,2.85,2.85,0,0,1-.69-1,3.14,3.14,0,0,1-.27-1.38,3.34,3.34,0,0,1,1.48-2.88,4.69,4.69,0,0,1,1.49-.67,6.78,6.78,0,0,1,1.68-.21,6.22,6.22,0,0,1,2.08.37,5.48,5.48,0,0,1,1.85,1.1Z" transform="translate(-41.92 -60.36)"/><path class="cls-1" d="M432.68,77.64v-12h8.07v2.44h-5.28v2.28h5v2.32h-5v2.49h5.58v2.48Z" transform="translate(-41.92 -60.36)"/><path class="cls-1" d="M155.22,154.27v-7.81H157v7.81Z" transform="translate(-41.92 -60.36)"/><path class="cls-1" d="M166.25,151.54l-.12-2.46v-2.62h1.76v7.81h-1.5l-3.88-5,.06,2.57v2.43h-1.76v-7.81h1.49Z" transform="translate(-41.92 -60.36)"/><path class="cls-1" d="M171.75,154.27v-7.8h5.69v1.6h-3.95v1.85h3.71v1.55h-3.71v2.8Z" transform="translate(-41.92 -60.36)"/><path class="cls-1" d="M185.91,152.94h-4l-.57,1.33h-1.88l3.51-7.81h1.89l3.51,7.81h-1.89Zm-2-4.72-1.35,3.17h2.7Z" transform="translate(-41.92 -60.36)"/><path class="cls-1" d="M196.75,151.54l-.11-2.46v-2.62h1.75v7.81H196.9l-3.89-5,.07,2.57v2.43h-1.76v-7.81h1.49Z" transform="translate(-41.92 -60.36)"/><path class="cls-1" d="M204,148h-2.38v-1.55h6.49V148h-2.38v6.26H204Z" transform="translate(-41.92 -60.36)"/><path class="cls-1" d="M217.89,152.06v2.21h-1.74v-7.81h3.69a2.81,2.81,0,1,1,0,5.6Zm0-1.59h2a1.15,1.15,0,0,0,1.25-1.17,1.16,1.16,0,0,0-1.25-1.19h-2Z" transform="translate(-41.92 -60.36)"/><path class="cls-1" d="M233,154.27h-1.93l-2-2.56h-1.26v2.56h-1.75v-7.81h3.71a2.64,2.64,0,0,1,2.89,2.63,2.34,2.34,0,0,1-1.81,2.46l2.15,2.59ZM227.82,148v2.27h2a1.08,1.08,0,0,0,1.15-1.09,1.14,1.14,0,0,0-1.17-1.18Z" transform="translate(-41.92 -60.36)"/><path class="cls-1" d="M240,154.46a4.1,4.1,0,1,1,4.22-4.09A3.9,3.9,0,0,1,240,154.46Zm0-6.63a2.46,2.46,0,0,0-2.52,2.54,2.52,2.52,0,1,0,2.52-2.54Z" transform="translate(-41.92 -60.36)"/><path class="cls-1" d="M249.2,148h-2.37v-1.55h6.48V148h-2.38v6.26H249.2Z" transform="translate(-41.92 -60.36)"/><path class="cls-1" d="M262.44,154.27h-5.95v-7.81h5.8v1.6H258.2v1.5h3.85v1.53H258.2v1.58h4.24Z" transform="translate(-41.92 -60.36)"/><path class="cls-1" d="M272.59,153.33a4.13,4.13,0,0,1-3,1.15,3.8,3.8,0,0,1-4.18-4.06,4,4,0,0,1,4.18-4.14,4,4,0,0,1,2.87,1.21l-1.1,1.08a2.54,2.54,0,0,0-1.77-.65,2.37,2.37,0,0,0-2.46,2.51,2.29,2.29,0,0,0,2.46,2.44,3,3,0,0,0,1.92-.75Z" transform="translate(-41.92 -60.36)"/><path class="cls-1" d="M277.44,148h-2.37v-1.55h6.48V148h-2.37v6.26h-1.74Z" transform="translate(-41.92 -60.36)"/><path class="cls-1" d="M284.73,154.27v-7.81h1.73v7.81Z" transform="translate(-41.92 -60.36)"/><path class="cls-1" d="M294.1,154.46a4.1,4.1,0,1,1,4.22-4.09A3.9,3.9,0,0,1,294.1,154.46Zm0-6.63a2.46,2.46,0,0,0-2.51,2.54,2.51,2.51,0,1,0,2.51-2.54Z" transform="translate(-41.92 -60.36)"/><path class="cls-1" d="M307.17,151.54l-.11-2.46v-2.62h1.75v7.81h-1.49l-3.89-5,.07,2.57v2.43h-1.77v-7.81h1.5Z" transform="translate(-41.92 -60.36)"/><path class="cls-1" d="M322.06,148.35a2.58,2.58,0,0,0-1.81-.66c-.77,0-1.39.32-1.39.86,0,.71.68.85,1.68.94,1.54.13,3,.72,3,2.53s-1.61,2.5-3.3,2.51a3.89,3.89,0,0,1-3.41-1.61l1-1.08a3.1,3.1,0,0,0,2.38,1.11c.93,0,1.57-.37,1.57-.93s-.52-1-1.58-1.05c-1.65-.16-3.12-.57-3.1-2.41,0-1.55,1.48-2.38,3.09-2.38a3.45,3.45,0,0,1,2.92,1.21Z" transform="translate(-41.92 -60.36)"/><path class="cls-1" d="M330.63,154.46a4.1,4.1,0,1,1,4.23-4.09A3.9,3.9,0,0,1,330.63,154.46Zm0-6.63a2.46,2.46,0,0,0-2.51,2.54,2.52,2.52,0,1,0,2.51-2.54Z" transform="translate(-41.92 -60.36)"/><path class="cls-1" d="M340,146.46v6.22h3.91v1.59h-5.65v-7.81Z" transform="translate(-41.92 -60.36)"/><path class="cls-1" d="M354,146.47v4.37c0,2.32-1.29,3.56-3.34,3.62a3.39,3.39,0,0,1-3.78-3.62v-4.37h1.73v4.37a1.83,1.83,0,0,0,2.06,2.06c1.18-.08,1.6-.89,1.6-2.06v-4.37Z" transform="translate(-41.92 -60.36)"/><path class="cls-1" d="M359.41,148H357v-1.55h6.49V148h-2.38v6.26h-1.73Z" transform="translate(-41.92 -60.36)"/><path class="cls-1" d="M366.7,154.27v-7.81h1.73v7.81Z" transform="translate(-41.92 -60.36)"/><path class="cls-1" d="M376.07,154.46a4.1,4.1,0,1,1,4.22-4.09A3.9,3.9,0,0,1,376.07,154.46Zm0-6.63a2.46,2.46,0,0,0-2.52,2.54,2.52,2.52,0,1,0,2.52-2.54Z" transform="translate(-41.92 -60.36)"/><path class="cls-1" d="M389.14,151.54l-.11-2.46v-2.62h1.75v7.81h-1.5l-3.88-5,.06,2.57v2.43H383.7v-7.81h1.5Z" transform="translate(-41.92 -60.36)"/><path class="cls-2" d="M201,91.57a1.52,1.52,0,0,1,1.51,1.52v22.58c0,9,5.4,14.1,14.1,14,8.26,0,14.09-6.44,14.09-14.7V93.09a1.52,1.52,0,0,1,1.52-1.52h2.71a1.52,1.52,0,0,1,1.51,1.52V133a1.52,1.52,0,0,1-1.51,1.52h-2.4a1.52,1.52,0,0,1-1.52-1.48l-.14-5.74c-3.56,5.48-9.22,7.83-15.22,7.92-11.14,0-19-7.22-19-19.49V93.09a1.52,1.52,0,0,1,1.52-1.52Z" transform="translate(-41.92 -60.36)"/><path class="cls-2" d="M381.67,115.5c.78,9,7.74,14.27,16.27,14.27,4.73,0,10.31-1.72,13.58-4.88a1.5,1.5,0,0,1,2.06,0l1.67,1.48a1.53,1.53,0,0,1,.07,2.21c-4.36,4.51-11.13,6.8-17.38,6.8-12.79,0-22.27-8.61-22.27-22.35,0-12.88,9.22-22.19,22-22.19,12.43,0,22.48,7.32,21.51,23.3a1.51,1.51,0,0,1-1.51,1.41Zm31.93-5c-.18-9.4-7.22-14.53-15.83-14.53s-15,5.22-16.1,14.53Z" transform="translate(-41.92 -60.36)"/><path class="cls-2" d="M187.57,127.25a1.94,1.94,0,0,1-.11,2.87,22.25,22.25,0,0,1-14.34,5.1c-12.19,0-22.28-8.18-22.28-22.19s9.83-22.11,22.28-22.11a20.68,20.68,0,0,1,13.64,4.91,2,2,0,0,1,.12,2.88l-1.09,1.06a1.93,1.93,0,0,1-2.55.12,15.73,15.73,0,0,0-10-3.49c-9.14,0-16.54,6.09-16.54,16.63,0,10.79,7.48,16.62,16.45,16.62a16.94,16.94,0,0,0,10.65-3.73,1.94,1.94,0,0,1,2.56.11Z" transform="translate(-41.92 -60.36)"/><path class="cls-2" d="M458.67,98.93a1.93,1.93,0,0,1-2.6.25C452.5,96.51,448.82,96,444.73,96c-6.26-.09-11.83,2.17-11.66,7,.09,5,6.35,6.27,11.75,7,7.75,1.13,17.76,2.44,17.76,12.88-.18,9-9,12.53-17.67,12.53-6.8,0-13.53-2.06-18-7a1.93,1.93,0,0,1,0-2.59l1.07-1.17a1.94,1.94,0,0,1,2.82,0c3.74,3.79,9.28,5.3,14.14,5.38s11.75-1.39,11.75-7.23c0-5.65-5.58-6.7-12.45-7.66-8.27-1.21-16.89-3.13-17-12s8.87-12.53,17.32-12.44c5.68,0,10.49,1.35,14.59,4.49a2,2,0,0,1,.28,2.83Z" transform="translate(-41.92 -60.36)"/><path class="cls-2" d="M290.28,80.54A1.52,1.52,0,0,0,288.61,79l-2.79.3a1.51,1.51,0,0,0-1.36,1.5v19.23c-3.22-6.36-10.18-9.32-16.88-9.32-12.19,0-21.67,7.92-21.67,22.29s9.48,22.28,21.67,22.28a19.07,19.07,0,0,0,16.88-9.4l.14,6.73a1.93,1.93,0,0,0,1.93,1.88h1.84a1.93,1.93,0,0,0,1.93-1.92Zm-22.36,49.2c-9,0-16.19-5.92-16.19-16.71,0-11,7.22-16.72,16.19-16.72,9.14,0,16.27,6.79,16.27,16.63C284.19,123,277.14,129.74,267.92,129.74Z" transform="translate(-41.92 -60.36)"/><path class="cls-2" d="M344.21,80.54A1.52,1.52,0,0,0,342.54,79l-2.8.3a1.52,1.52,0,0,0-1.36,1.5v19.23c-3.22-6.36-10.18-9.32-16.88-9.32-12.19,0-21.68,7.92-21.68,22.29s9.49,22.28,21.68,22.28a19.07,19.07,0,0,0,16.88-9.4l.14,6.73a1.93,1.93,0,0,0,1.92,1.88h1.85a1.92,1.92,0,0,0,1.92-1.92Zm-22.37,49.2c-9,0-16.19-5.92-16.19-16.71,0-11,7.23-16.72,16.19-16.72,9.14,0,16.28,6.79,16.28,16.63C338.12,123,331.07,129.74,321.84,129.74Z" transform="translate(-41.92 -60.36)"/><path class="cls-2" d="M364.23,80.54A1.52,1.52,0,0,0,362.55,79l-2.79.3a1.52,1.52,0,0,0-1.36,1.5V132.6a1.92,1.92,0,0,0,1.92,1.92h2a1.92,1.92,0,0,0,1.93-1.92Z" transform="translate(-41.92 -60.36)"/><path class="cls-3" d="M108.66,144.54a1.38,1.38,0,0,1,1.74,2.14,37.36,37.36,0,0,1-48.6-1.34,1.38,1.38,0,0,1,1.85-2.05,34.64,34.64,0,0,0,45,1.25" transform="translate(-41.92 -60.36)"/><path class="cls-3" d="M54,128.49a34.57,34.57,0,0,1-.16-21.16,1.39,1.39,0,0,0-.74-1.7h0a1.37,1.37,0,0,0-1.89.82,37.36,37.36,0,0,0,5.6,33.42,1.38,1.38,0,1,0,2.22-1.65A34.62,34.62,0,0,1,54,128.49Z" transform="translate(-41.92 -60.36)"/><path class="cls-3" d="M111.76,89.81A37.35,37.35,0,0,0,54.2,99.59a1.38,1.38,0,0,0,.65,1.92h0a1.39,1.39,0,0,0,1.79-.61,34.58,34.58,0,0,1,53.27-9,1.38,1.38,0,0,0,1.85-2.06Z" transform="translate(-41.92 -60.36)"/><path class="cls-3" d="M115.13,97.72a1.39,1.39,0,0,1,2.27-1.59,37.39,37.39,0,0,1,5.08,10.24l0,.12a37.28,37.28,0,0,1-6.67,34.75,1.38,1.38,0,0,1-1.94.2,1.36,1.36,0,0,1-.2-1.94,34.64,34.64,0,0,0,6.17-32.18l0-.11a34.63,34.63,0,0,0-4.71-9.49" transform="translate(-41.92 -60.36)"/><path class="cls-4" d="M99.64,77.45a1.39,1.39,0,1,1,.84-2.64A45,45,0,0,1,98.77,161l-.08,0a44.94,44.94,0,0,1-21.24.58,1.38,1.38,0,1,1,.58-2.7A42.18,42.18,0,0,0,98,158.38l.08,0a42.2,42.2,0,0,0,1.6-80.91" transform="translate(-41.92 -60.36)"/><path class="cls-4" d="M45.1,123.61a1.38,1.38,0,0,1-2.73.39,44.95,44.95,0,0,1,50.5-50.89,1.38,1.38,0,1,1-.37,2.74,42.2,42.2,0,0,0-47.4,47.76" transform="translate(-41.92 -60.36)"/><path class="cls-4" d="M71.91,157.12a1.38,1.38,0,1,1-1,2.58A45,45,0,0,1,47.82,140a44.61,44.61,0,0,1-4-9.42,1.38,1.38,0,1,1,2.64-.8,41.63,41.63,0,0,0,3.79,8.84,42.23,42.23,0,0,0,21.68,18.55" transform="translate(-41.92 -60.36)"/><path class="cls-2" d="M69,97.61a26.9,26.9,0,0,1,44.77,17.86c.06.76.09,1.52.08,2.27a1.31,1.31,0,0,0,1.08,1.31h.06a1.3,1.3,0,0,0,1.52-1.29c0-.83,0-1.67-.08-2.51a29.58,29.58,0,0,0-49.25-19.6,1.33,1.33,0,0,0,0,1.92A1.35,1.35,0,0,0,69,97.61Z" transform="translate(-41.92 -60.36)"/><path class="cls-2" d="M112.92,124.5a26.92,26.92,0,1,1-48.45-21.72,1.34,1.34,0,0,0-.15-1.69h0a1.33,1.33,0,0,0-2.06.22,29.58,29.58,0,1,0,53.27,23.82,1.34,1.34,0,0,0-1.07-1.63h0A1.35,1.35,0,0,0,112.92,124.5Z" transform="translate(-41.92 -60.36)"/><path class="cls-2" d="M83.64,136.54a19,19,0,0,1-15.52-15.13,1.35,1.35,0,0,0-1.31-1.11h0a1.34,1.34,0,0,0-1.31,1.6,21.7,21.7,0,0,0,17.73,17.26,1.33,1.33,0,0,0,1.55-1.31h0A1.32,1.32,0,0,0,83.64,136.54Z" transform="translate(-41.92 -60.36)"/><path class="cls-2" d="M91.59,96.73a21.33,21.33,0,0,0-9.42-.08,21.8,21.8,0,0,0-16.8,17.8A1.35,1.35,0,0,0,66.69,116h0A1.34,1.34,0,0,0,68,114.84,19.06,19.06,0,0,1,82.63,99.27a18.86,18.86,0,0,1,8.4,0,1.31,1.31,0,0,0,1.5-.79A1.33,1.33,0,0,0,91.59,96.73Z" transform="translate(-41.92 -60.36)"/><path class="cls-2" d="M96.94,100.5l0,0a1.33,1.33,0,0,0,.5,1.58,18.95,18.95,0,0,1-7.07,34.3,1.34,1.34,0,1,0,.48,2.63,21.62,21.62,0,0,0,8-39.15A1.31,1.31,0,0,0,96.94,100.5Z" transform="translate(-41.92 -60.36)"/><path class="cls-2" d="M92.64,112.15a4.34,4.34,0,0,0-3.17-.19A4.42,4.42,0,0,0,87,114a4.37,4.37,0,0,0-7.94.7,5.6,5.6,0,0,0,.66,4.47c1.22,2.17,3.09,3.82,7.1,6.94a.16.16,0,0,0,.13,0l0,0c4-3.11,6-4.77,7.2-6.94a5.61,5.61,0,0,0,.72-4.49A4.18,4.18,0,0,0,92.64,112.15Z" transform="translate(-41.92 -60.36)"/></svg>