<svg
  xmlns="http://www.w3.org/2000/svg"
  viewBox="0 0 71.11 71.11"
>
    <defs>
        <style>
          .cls-2{fill:#fff;}
          .cls-1:hover{fill:#50b4e7;}
          .cls-1{fill:#58595b;}
        </style>
    </defs>
    <g class="cls-1">
      <circle cx="35.56" cy="35.56" r="35.56" />
      <path class="cls-2" d="M50.74,25H36.31L31,17.81H16.57V47.27a3.8,3.8,0,0,0,3.8,3.8H50.74a3.8,3.8,0,0,0,3.8-3.8V28.76A3.8,3.8,0,0,0,50.74,25ZM19.57,20.81h9.92L32.57,25h-13Zm32,26.46a.8.8,0,0,1-.8.8H20.37a.8.8,0,0,1-.8-.8V28H50.74a.8.8,0,0,1,.8.8Z" />
    </g>
</svg>