<svg
  xmlns="http://www.w3.org/2000/svg"
  viewBox="0 0 71.11 71.11"
>
    <defs>
        <style>
          .cls-1{fill:#50b4e7;}
          .cls-1:hover{fill:#58595b;}
          .cls-2{fill:#fff;}
        </style>
    </defs>
    <g class="cls-1">
      <circle cx="35.56" cy="35.56" r="35.56" />
      <path class="cls-2" d="M53.64,48.31,49.35,36.1a8.68,8.68,0,0,0-3.93-4.68l2-.71-2.19-6.24a5.2,5.2,0,0,0-5.81-3.37l-1.82-5.18a3.6,3.6,0,0,0-4.55-2.25l-.63-1.8a5.36,5.36,0,0,0-9.88-.54,5.29,5.29,0,0,0-.22,4.09L23,17.19a3.67,3.67,0,0,0-2.13,4.64L22.66,27a5.18,5.18,0,0,0-2.41,6.26l2.19,6.23,2-.71a8.63,8.63,0,0,0-.13,6.11l4.29,12.21a8.74,8.74,0,0,0,8.22,5.83,8.85,8.85,0,0,0,2.9-.5l8.56-3a8.71,8.71,0,0,0,5.33-11.12ZM24.08,20a2.87,2.87,0,0,0,1.76-3.66l-.66-1.88a2.3,2.3,0,0,1,.1-1.8A2.34,2.34,0,0,1,27.4,11.3a2.23,2.23,0,0,1,1,.23,2.35,2.35,0,0,1,1.21,1.34l.66,1.88a2.87,2.87,0,0,0,3.66,1.75.68.68,0,0,1,.86.42L36.59,22,25.94,25.77l-.47.17-1.8-5.11A.68.68,0,0,1,24.08,20Zm-1,12.3a2.19,2.19,0,0,1,1.33-2.78l15.23-5.36a2.27,2.27,0,0,1,.72-.12,2.2,2.2,0,0,1,2.07,1.46l1.19,3.4L24.27,35.68ZM50.57,53.68a5.65,5.65,0,0,1-3.26,2.92l-8.56,3a5.72,5.72,0,0,1-7.29-3.5L27.17,43.9a5.72,5.72,0,0,1,3.49-7.29l8.57-3a5.67,5.67,0,0,1,1.9-.33,5.61,5.61,0,0,1,2.46.57,5.7,5.7,0,0,1,2.93,3.26l4.29,12.21A5.67,5.67,0,0,1,50.57,53.68Z" />
      <path class="cls-2" d="M39.08,39.43a1.51,1.51,0,0,0-1.92-.92l-5.47,1.93a1.5,1.5,0,0,0,.5,2.91,1.42,1.42,0,0,0,.5-.08l5.47-1.93A1.5,1.5,0,0,0,39.08,39.43Z" />
      <path class="cls-2" d="M41.38,46a1.5,1.5,0,0,0-1.91-.92L34,47a1.5,1.5,0,0,0,.5,2.91,1.8,1.8,0,0,0,.5-.08l5.47-1.93A1.49,1.49,0,0,0,41.38,46Z" />
      <path class="cls-2" d="M41.78,51.63l-5.47,1.92a1.5,1.5,0,1,0,1,2.83l5.46-1.92a1.5,1.5,0,0,0-1-2.83Z" />
    </g>
</svg>