<svg
  xmlns="http://www.w3.org/2000/svg"
  viewBox="0 0 71.11 71.11"
>
    <defs>
        <style>
          .cls-2{fill:#fff;}
          .cls-1:hover{fill:#50b4e7;}
          .cls-1{fill:#58595b;}
        </style>
    </defs>
    <g class="cls-1">
      <circle cx="35.56" cy="35.56" r="35.56" />
      <path class="cls-2" d="M55.58,35a20,20,0,1,0-20,20,19.76,19.76,0,0,0,6.65-1.15l12.37,4.95-2-13.19A20,20,0,0,0,55.58,35ZM42.24,50.66l-.55.22A17,17,0,1,1,52.58,35a17,17,0,0,1-2.87,9.46l-.33.48,1.43,9.14Z" />
      <path class="cls-2" d="M34.71,41.28a2.09,2.09,0,0,0-2.12,2.21,2.11,2.11,0,1,0,2.12-2.21Z" />
      <path class="cls-2" d="M35.18,23.45a8.33,8.33,0,0,0-4.61,1.3l-.16.11.94,2.46.27-.2a5.23,5.23,0,0,1,3-.92c1.75,0,2.71.89,2.71,2.43,0,1.35-.77,2.53-2.12,4.12a7.38,7.38,0,0,0-2,5.58l.08,1h2.92l0-1.07a6,6,0,0,1,1.72-4.42c1.61-1.91,2.74-3.42,2.74-5.59S39.21,23.45,35.18,23.45Z" />
    </g>
</svg>