<svg
  xmlns="http://www.w3.org/2000/svg"
  viewBox="0 0 71.11 71.11"
>
    <defs>
        <style>
          .cls-2{fill:#fff;}
          .cls-1:hover{fill:#50b4e7;}
          .cls-1{fill:#58595b;}
        </style>
    </defs>
    <g class="cls-1">
      <circle cx="35.56" cy="35.56" r="35.56" />
      <path class="cls-2" d="M53.94,15.61l-4.6,4.6L46.6,17.47l-10.68-.76L10.14,42.48l19,19.05L55,35.76l-.62-10.55-2.87-2.88,4.6-4.6ZM51.41,26.52l.47,8.07L29.18,57.28,14.39,42.48,37.07,19.8l8.2.59,1.95,1.94L44.52,25a5.27,5.27,0,1,0,2.12,2.12l2.7-2.7Zm-7.78,4.73a2.27,2.27,0,1,1,0-3.21A2.26,2.26,0,0,1,43.63,31.25Z" />
      <rect class="cls-2" x="25.54" y="39.89" width="3" height="9.59" transform="translate(-23.68 32.21) rotate(-45)" />
      <rect class="cls-2" x="30.47" y="34.96" width="3" height="9.59" transform="translate(-18.74 34.25) rotate(-45)" />
    </g>
</svg>