<svg
  xmlns="http://www.w3.org/2000/svg"
  viewBox="0 0 71.11 71.11"
>
    <defs>
        <style>
          .cls-2{fill:#fff;}
          .cls-1:hover{fill:#50b4e7;}
          .cls-1{fill:#58595b;}
        </style>
    </defs>

    <g class="cls-1">
      <circle cx="35.56" cy="35.56" r="35.56" />
      <path class="cls-2" d="M21.55,35.59a7.46,7.46,0,1,0-7.46-7.46A7.47,7.47,0,0,0,21.55,35.59Zm0-11.92a4.46,4.46,0,1,1-4.46,4.46A4.46,4.46,0,0,1,21.55,23.67Z" />
      <path class="cls-2" d="M30.07,41.31a8.38,8.38,0,0,0-.87-3.74L28.43,36,27,37a9.68,9.68,0,0,1-10.9,0l-1.43-1-.77,1.57A8.38,8.38,0,0,0,13,41.31v8.52h17Zm-3,5.52H16V41.31a4.91,4.91,0,0,1,.07-.86,12.69,12.69,0,0,0,10.9,0,4.91,4.91,0,0,1,.07.86Z" />
      <path class="cls-2" d="M42.1,28.13a7.46,7.46,0,1,0,7.46-7.46A7.47,7.47,0,0,0,42.1,28.13Zm7.46-4.46a4.46,4.46,0,1,1-4.46,4.46A4.46,4.46,0,0,1,49.56,23.67Z" />
      <path class="cls-2" d="M56.44,36,55,37a9.68,9.68,0,0,1-10.9,0l-1.43-1-.77,1.57A8.41,8.41,0,0,0,41,41.31v8.52h17V41.31a8.42,8.42,0,0,0-.87-3.75ZM55.08,46.83H44V41.31a4.91,4.91,0,0,1,.07-.86,12.69,12.69,0,0,0,10.9,0,4.91,4.91,0,0,1,.07.86Z" />
      <path class="cls-2" d="M25.81,17.21l4.6,2a1.5,1.5,0,0,0,1.19-2.76l-1.29-.56a21.05,21.05,0,0,1,12.61.61,1.5,1.5,0,1,0,1-2.81,24.12,24.12,0,0,0-14.79-.61l.89-1.53a1.5,1.5,0,1,0-2.6-1.5l-2.56,4.44a1.86,1.86,0,0,0-.16,1.56A1.9,1.9,0,0,0,25.81,17.21Z" />
      <path class="cls-2" d="M45.57,56.62l-4.6-2a1.5,1.5,0,1,0-1.19,2.75l1.29.56a21.05,21.05,0,0,1-12.61-.6,1.5,1.5,0,1,0-1.05,2.81,23.85,23.85,0,0,0,14.78.61l-.88,1.52a1.5,1.5,0,0,0,.55,2,1.44,1.44,0,0,0,.75.21,1.5,1.5,0,0,0,1.3-.75l2.56-4.44a1.91,1.91,0,0,0-.9-2.72Z" />
    </g>
</svg>