<svg
  xmlns="http://www.w3.org/2000/svg"
  viewBox="0 0 71.11 71.11"
>
    <defs>
        <style>
          .cls-2{fill:#fff;}
          .cls-1:hover{fill:#50b4e7;}
          .cls-1{fill:#58595b;}
        </style>
    </defs>

    <g class="cls-1">
      <circle cx="35.56" cy="35.56" r="35.56" />
      <path class="cls-2" d="M45.7,33.29H44.61A11.29,11.29,0,0,0,47,26.39a11.41,11.41,0,0,0-22.81,0,11.29,11.29,0,0,0,2.35,6.9H25.41A7.38,7.38,0,0,0,18,40.67V51.81h35V40.67A7.38,7.38,0,0,0,45.7,33.29Zm-10.14,4.5A11.33,11.33,0,0,0,41,36.43l-5.38,6.66-5-6.46A11.23,11.23,0,0,0,35.56,37.79Zm0-19.8a8.4,8.4,0,0,1,4.71,15.36l-.14.08a1,1,0,0,1-.17.1,8.46,8.46,0,0,1-8.81,0l-.17-.1-.13-.08A8.4,8.4,0,0,1,35.56,18ZM50.07,48.81H21V40.67a4.38,4.38,0,0,1,4.37-4.38h1.11l9,11.63,9.4-11.63h.77a4.38,4.38,0,0,1,4.37,4.38Z" />
    </g>
</svg>