<svg
  xmlns="http://www.w3.org/2000/svg"
  viewBox="0 0 31.19 31.19"
>
  <g>
    <g>
      <rect fill="inherit" x="1" y="1" width="29.19" height="29.19" rx="5.59" />


      <rect fill="white" x="3.51" y="3.51" width="24.17" height="24.17">
        <animate
          id="animationStroke"
          attributeName="fill"
          values="black;white"
          dur="1.0s"
          calcMode="discrete"
          begin="0s"
          repeatCount="indefinite"
        />

      </rect>

      <polygon fill="inherit" points="3.51 3.51 8.36 7.27 8.36 22.01 3.51 27.68 14.77 28.68 14.77 2.51 3.51 3.51" />
      <rect fill="inherit" x="3.11" y="14.83" width="24.94" height="1.73" transform="translate(31.18 0.01) rotate(90)" />
      <rect fill="inherit" x="17.14" y="14.78" width="4.68" height="1.63" transform="translate(35.08 -3.89) rotate(90)" />

      <animate
        attributeName="visibility"
        values="visible;visible;visible;hidden"
        dur="1.0s"
        calcMode="discrete"
        repeatCount="indefinite"
        begin="indefinite"
      />

      <animate
        id="animationFill"
        attributeName="fill"
        values="red;black"
        dur="1.0s"
        calcMode="discrete"
        begin="indefinite"
        repeatCount="indefinite"
      />

    </g>

    <g>
      <!--<rect fill="green" width="31.19" height="31.19" rx="5.59" />-->
      <rect fill="inherit" x="1" y="1" width="29.19" height="29.19" rx="5.59" />

      <rect fill="white" x="3.51" y="3.51" width="24.17" height="24.17" />
      <rect fill="inherit" x="3.11" y="14.78" width="24.94" height="1.63" transform="translate(31.18 0.01) rotate(90)" />
      <rect fill="inherit" x="9.31" y="14.78" width="4.68" height="1.63" transform="translate(27.24 3.94) rotate(90)" />
      <rect fill="inherit" x="17.14" y="14.78" width="4.68" height="1.63" transform="translate(35.08 -3.89) rotate(90)" />

      <animate
        attributeName="visibility"
        values="hidden;hidden;hidden;visible"
        dur="1.0s"
        calcMode="discrete"
        repeatCount="indefinite"
        begin="indefinite"
      />

    </g>

    <rect fill="none" stroke="black" stroke-width="2" x="1.5" y="1.5" width="28.19" height="28.19" rx="4.25" />
  </g>

</svg>