<?xml version="1.0" encoding="utf-8"?>
<svg
  version="1.1"
  xmlns="http://www.w3.org/2000/svg"
  xmlns:xlink="http://www.w3.org/1999/xlink"
  viewBox="0 0 155.822 155.822"
>
  <rect
     style="fill:none;stroke:none;"
     width="100%"
     height="100%"
     x="0"
     y="0"
  />

  <g id="ring1">
    <path fill="#FCE5EF" d="M100.019,8.221c-1.261-0.4-1.959-1.75-1.557-3.01c0.401-1.26,1.75-1.959,3.01-1.557  c6.431,2.042,12.547,4.901,18.195,8.486c5.658,3.594,10.849,7.907,15.423,12.849c14.614,15.789,21.444,36.009,20.674,55.935  c-0.771,19.926-9.142,39.558-24.932,54.172c-9.307,8.613-20.424,14.693-32.312,17.953l-0.145,0.036  c-11.847,3.226-24.458,3.651-36.802,1.006c-1.295-0.277-2.122-1.554-1.845-2.848c0.278-1.294,1.554-2.121,2.85-1.843  c11.593,2.488,23.427,2.086,34.536-0.943l0.136-0.041c11.151-3.058,21.581-8.764,30.316-16.849  c14.816-13.713,22.672-32.134,23.395-50.829c0.723-18.694-5.687-37.667-19.399-52.483c-4.311-4.658-9.181-8.708-14.47-12.068  C111.791,12.82,106.051,10.136,100.019,8.221" />
    <path fill="#FCE5EF" d="M5.521,88.202c0.186,1.311-0.725,2.524-2.033,2.713c-1.309,0.189-2.523-0.723-2.712-2.029  C-1.022,76.231,0.34,63.531,4.499,51.825C8.662,40.117,15.612,29.404,24.983,20.73c8.522-7.887,18.593-13.67,29.414-17.094  c10.812-3.426,22.376-4.49,33.888-2.941c1.314,0.175,2.237,1.384,2.06,2.697c-0.175,1.313-1.382,2.237-2.696,2.062  C76.842,3.999,65.987,4.998,55.841,8.209c-10.137,3.209-19.584,8.638-27.592,16.049c-8.815,8.158-15.343,18.209-19.242,29.178  C5.109,64.409,3.831,76.326,5.521,88.202" />
    <path fill="#FCE5EF" d="M51.968,146.269c1.236,0.475,1.855,1.862,1.382,3.099c-0.475,1.237-1.861,1.856-3.096,1.383  c-5.627-2.138-10.969-4.908-15.917-8.246c-4.956-3.346-9.531-7.257-13.612-11.666c-4.037-4.36-7.555-9.171-10.491-14.318  c-2.927-5.13-5.271-10.612-6.977-16.329c-0.382-1.265,0.337-2.601,1.603-2.98c1.265-0.38,2.601,0.338,2.982,1.604  c1.594,5.347,3.795,10.483,6.552,15.314c2.747,4.816,6.053,9.331,9.859,13.444c3.839,4.148,8.132,7.822,12.775,10.955  C41.681,141.667,46.695,144.269,51.968,146.269" />

    <animateTransform
      attributeName="transform"
      type="rotate"

      from="360 77.911 77.911"
      to="0 77.911 77.911"

      begin="0s"
      dur="25s"
      repeatCount="indefinite"
    />
  </g>

  <g id="ring2">
    <path fill="#F9CDE0" d="M115.642,124.47c1.026-0.834,2.535-0.68,3.37,0.347c0.834,1.027,0.677,2.536-0.347,3.37  c-5.771,4.676-12.25,8.291-19.137,10.73c-6.897,2.443-14.204,3.72-21.616,3.72c-8.019,0-15.913-1.498-23.293-4.346  c-7.362-2.839-14.212-7.032-20.163-12.428c-0.98-0.886-1.056-2.401-0.168-3.379c0.884-0.981,2.398-1.055,3.377-0.169  c5.507,4.988,11.852,8.874,18.681,11.508c6.81,2.623,14.114,4.006,21.566,4.006c6.873,0,13.644-1.18,20.018-3.439  C104.316,132.127,110.317,128.786,115.642,124.47" />
    <path fill="#F9CDE0" d="M21,96.664c-1.978-6.007-3.006-12.336-3.006-18.752c0-6.244,0.964-12.26,2.738-17.919  c0.368-1.171-0.162-2.432-1.278-2.944c-1.301-0.597-2.86,0.055-3.291,1.42c-1.932,6.137-2.978,12.667-2.978,19.443  c0,6.92,1.115,13.755,3.255,20.253c2.134,6.482,5.308,12.643,9.43,18.217c0.787,1.063,2.289,1.286,3.352,0.501  c1.063-0.789,1.286-2.291,0.499-3.353C25.918,108.384,22.984,102.684,21,96.664" />
    <path fill="#F9CDE0" d="M121.015,29.639c-5.942-5.303-12.747-9.42-20.039-12.201c-7.308-2.787-15.119-4.253-23.064-4.253  c-17.873,0-34.056,7.246-45.767,18.961c-4.265,4.264-7.926,9.128-10.869,14.445c-0.67,1.21-0.132,2.742,1.126,3.319  c1.155,0.53,2.498,0.057,3.115-1.054c2.719-4.899,6.095-9.38,10.027-13.312c10.838-10.842,25.821-17.551,42.368-17.551  c7.363,0,14.596,1.355,21.355,3.934c6.776,2.585,13.078,6.39,18.556,11.279c0.983,0.88,2.499,0.796,3.379-0.187  C122.083,32.034,121.998,30.519,121.015,29.639" />
    <path fill="#F9CDE0" d="M126.862,43.348c-0.762-1.083-0.503-2.581,0.58-3.342c1.085-0.761,2.582-0.502,3.344,0.582  c3.856,5.461,6.82,11.454,8.816,17.744l0.056,0.21c1.962,6.252,2.979,12.784,2.979,19.37c0,7.436-1.284,14.762-3.74,21.673  c-2.454,6.903-6.087,13.4-10.786,19.174c-0.835,1.027-2.344,1.184-3.371,0.348c-1.027-0.833-1.18-2.342-0.347-3.369  c4.343-5.336,7.703-11.349,9.979-17.749c2.269-6.391,3.458-13.179,3.458-20.076c0-6.142-0.936-12.189-2.739-17.94l-0.07-0.191  C133.17,53.947,130.426,48.4,126.862,43.348" />

    <animateTransform
      attributeName="transform"
      type="rotate"

      from="0 77.911 77.911"
      to="360 77.911 77.911"

      begin="0s"
      dur="20s"
      repeatCount="indefinite"
    />
  </g>


  <g id="ring4">
    <path fill="#F065A5" d="M46.849,43.146c9.164-8.199,21.571-12.843,35.038-11.723c22.523,1.874,40.731,20.144,42.53,42.674  c0.106,1.322,0.151,2.633,0.144,3.932c-0.006,1.115,0.765,2.081,1.863,2.271l0.104,0.019c1.384,0.242,2.634-0.828,2.644-2.234  c0.011-1.437-0.037-2.887-0.153-4.351c-1.972-24.769-21.991-44.857-46.753-46.911c-14.832-1.23-28.496,3.903-38.571,12.956  c-0.97,0.87-0.972,2.395-0.051,3.316C44.524,43.975,45.922,43.976,46.849,43.146" />
    <path fill="#F065A5" d="M123.038,89.744c-5.585,21.283-25.854,36.68-49.282,34.638c-22.816-1.987-40.749-20.246-42.371-43.092  c-0.768-10.813,2.184-20.916,7.691-29.177c0.617-0.926,0.526-2.145-0.26-2.931l-0.011-0.011c-1.038-1.038-2.759-0.849-3.573,0.372  c-6.252,9.375-9.5,20.915-8.357,33.236c2.208,23.799,21.039,43.194,44.772,46.026c26.496,3.16,49.651-14.037,55.885-37.991  c0.335-1.287-0.546-2.58-1.856-2.81C124.475,87.796,123.348,88.564,123.038,89.744" />

    <animateTransform
      attributeName="transform"
      type="rotate"

      from="360 77.911 77.911"
      to="0 77.911 77.911"

      begin="0s"
      dur="15s"
      repeatCount="indefinite"
    />
  </g>

  <g id="ring5">
    <path fill="#F065A5" d="M72.288,110.604c-13.535-2.245-24.293-12.785-26.885-26.202c-0.214-1.107-1.14-1.93-2.268-1.93  c-1.455,0-2.547,1.334-2.272,2.763c2.944,15.334,15.248,27.371,30.72,29.915c1.405,0.23,2.69-0.844,2.69-2.268v-0.008  C74.273,111.729,73.419,110.792,72.288,110.604" />
    <path fill="#F065A5" d="M86.076,41.623c-5.117-1.193-10.615-1.371-16.32-0.14c-15.117,3.26-26.734,15.759-29.11,30.852  c-0.222,1.406,0.86,2.686,2.284,2.686c1.16,0,2.102-0.867,2.283-2.013c2.084-13.167,12.17-24.076,25.338-26.977  c5.085-1.12,9.989-0.973,14.548,0.093c1.084,0.254,2.185-0.351,2.603-1.382C88.235,43.425,87.459,41.946,86.076,41.623" />
    <path fill="#F065A5" d="M95.348,48.153l-0.041,0.102c-0.405,0.998-0.024,2.118,0.866,2.725c8.689,5.925,14.417,15.883,14.417,27.171  c0,16.005-11.497,29.347-26.66,32.271c-1.112,0.215-1.939,1.146-1.939,2.278c0,1.454,1.331,2.551,2.76,2.278  c17.319-3.313,30.455-18.558,30.455-36.828c0-12.891-6.559-24.253-16.495-31.004C97.522,46.34,95.888,46.822,95.348,48.153" />

    <animateTransform
      attributeName="transform"
      type="rotate"

      from="0 77.911 77.911"
      to="360 77.911 77.911"

      begin="0s"
      dur="10s"
      repeatCount="indefinite"
    />
  </g>

  <g id="heart">
    <path fill="#F065A5" d="M87.895,68.353c-1.728-0.805-3.682-0.921-5.502-0.326c-1.814,0.594-3.349,1.866-4.275,3.528  c-1.833-3.408-6.067-4.902-9.728-3.21c-1.957,0.9-3.388,2.469-4.026,4.421c-0.767,2.338-0.373,5.015,1.14,7.74  c2.109,3.765,5.354,6.633,12.304,12.039c0.065,0.052,0.152,0.064,0.228,0.039c0.025-0.008,0.05-0.021,0.073-0.038  c7.033-5.404,10.323-8.271,12.485-12.041c1.564-2.738,1.996-5.426,1.248-7.771C91.226,70.803,89.825,69.248,87.895,68.353" />

      <animateTransform
        attributeName="transform"
        type="translate"
        values="
          -77.911 -77.911;
          0 0 ;
          -77.911 -77.911;
          0 0;
          0 0;
          0 0;
          0 0;
          0 0;
          0 0;
          0 0;
          0 0;
          0 0;
          0 0"

        begin="0s"
        dur="1.25s"
        repeatCount="indefinite"
      />

      <animateTransform attributeName="transform"
        type="scale"
        additive="sum"
        values="
          2.0;
          1;
          2.0;
          1;
          1;
          1;
          1;
          1;
          1;
          1;
          1;
          1;
          1"

        begin="0s"
        dur="1.25s"
        repeatCount="indefinite"
      />

  </g>

</svg>