<?xml version="1.0" encoding="utf-8"?>
<!-- Generator: Adobe Illustrator 23.1.0, SVG Export Plug-In . SVG Version: 6.00 Build 0)  -->
<svg version="1.1" id="Layer_1" xmlns="http://www.w3.org/2000/svg" xmlns:xlink="http://www.w3.org/1999/xlink" x="0px" y="0px"
	 viewBox="0 0 612 792" style="enable-background:new 0 0 612 792;" xml:space="preserve">
<style type="text/css">
	.st0{fill:#eae8ea;stroke:#000000;stroke-width:6;}
	.st1{fill:#dceaef;stroke:#000000;stroke-width:6;}
	.st2{fill:#dceaef;}
</style>
<g id="zoomArea">
	<rect x="8.11" y="296.9" class="st0" width="247.43" height="262.1"/>
	<rect x="255.54" y="296.9" class="st0" width="269.54" height="261.88"/>
	<polygon class="st0" points="597.74,724.77 224.47,724.77 224.47,758.31 97.36,758.31 97.45,724.77 7.22,724.77 7.22,558.78
		526.54,558.78 525.89,-1.11 597.74,-1.11 	"/>
	<g>
		<line class="st1" x1="525.04" y1="539.22" x2="525.04" y2="524.77"/>
		<line class="st1" x1="525.04" y1="497.54" x2="525.04" y2="480.83"/>
		<polygon class="st2" points="495.83,524.41 519.77,497.4 534.49,497.4 534.49,524.53 		"/>
		<path class="st0" d="M492.2,528.65c-0.26-1.41-0.3-3.11-0.28-4.58c0.28-15.89,17.35-30.06,36.54-30.21"/>
		<line class="st1" x1="488.38" y1="527.44" x2="528.57" y2="527.44"/>
	</g>
	<g>
		<line class="st1" x1="245.75" y1="559.01" x2="231.44" y2="559.01"/>
		<line class="st1" x1="204.49" y1="559.01" x2="187.95" y2="559.01"/>
		<polygon class="st2" points="231.08,529.48 204.35,553.67 204.35,568.55 231.2,568.55 		"/>
		<path class="st0" d="M235.28,525.82c-1.4-0.26-3.08-0.31-4.54-0.28c-15.72,0.28-29.75,17.53-29.9,36.92"/>
		<line class="st1" x1="234.08" y1="521.96" x2="234.08" y2="562.57"/>
	</g>
	<g>
		<g>
			<line class="st1" x1="205.38" y1="758.27" x2="191.07" y2="758.27"/>
			<polygon class="st2" points="190.71,791.97 163.98,765.1 163.98,748.58 190.83,748.58 			"/>
			<path class="st0" d="M194.91,791.45c-1.4,0.26-3.08,0.31-4.54,0.28c-15.72-0.28-29.75-17.53-29.9-36.92"/>
			<line class="st1" x1="193.71" y1="795.31" x2="193.71" y2="754.7"/>
		</g>
		<g>
			<line class="st1" x1="115.66" y1="758.27" x2="129.97" y2="758.27"/>
			<polygon class="st2" points="130.32,792.19 157.05,765.18 157.05,748.57 130.21,748.57 			"/>
			<path class="st0" d="M126.13,791.45c1.4,0.26,3.08,0.31,4.54,0.28c15.72-0.28,29.75-17.53,29.9-36.92"/>
			<line class="st1" x1="127.33" y1="795.31" x2="127.33" y2="754.7"/>
		</g>
	</g>
</g>
</svg>
