<?xml version="1.0" encoding="UTF-8" standalone="no"?>
<svg
   xmlns:svg="http://www.w3.org/2000/svg"
   xmlns="http://www.w3.org/2000/svg"
   version="1.1"
   viewBox="0 0 1000.0 228.0"
>
  <defs>
  <style
     type="text/css">
    .stairwell
    {
      fill: #eae8ea;
      stroke: black;
      stroke-width:2;
    }

    .door
    {
      fill: #eae8ea;
      stroke: black;
      stroke-width:2;
    }

    .doorFill, .door
    {
      fill: #dceaef;
    }

    .room, .reception
    {
      fill: #eae8ea;
      stroke: black;
      stroke-width: 2;
    }

    .cover
    {
      fill: #dceaef;
    }

    .wall
    {
      fill:none;
      stroke: black;
      stroke-width: 2;
    }


    #floorPlanGroup
    {
      stroke: black;
      stroke-width:2;
    }

    .st0, .st1 { fill: #eae8ea; } /* Rooms.  */
    .st2 { fill: none; } /* Some complex rooms */

    /*.st0 { fill:#4584ba; }  Old rooms color. */
    /*.st1 { fill: #DDD; }  Stairs old */

    .legendText
    {
      font-family : 'Tahoma-Bold';
      fill:black;
      font-size: 20px;
    }

    #zoneIndicators
    {
      fill: black;
    }

    .floorErrorClass
    {
      animation-name: floorError;
      animation-duration: 1s;
      animation-timing-function: step-start;
      animation-iteration-count: infinite;
    }

    @keyframes floorError
    {
      0%   { stroke: red; }
      50%  { stroke: black; }
      100% { stroke: red; }
    }

    #alarmsGroupHigh,
    #alarmsGroupMedium,
    #alarmsGroupLow
    {
      animation-timing-function: step-start;
      animation-iteration-count: infinite;
    }

    #alarmsGroupHigh
    {
      animation-duration: 0.5s;
      animation-name: alarmHigh;
    }

    #alarmsGroupMedium
    {
      animation-duration: 1s;
      animation-name: alarmMedium;
    }

    #alarmsGroupLow
    {
      animation-duration: 1s;
      animation-name: alarmLow;
    }

    @keyframes alarmHigh
    {
      0%   { fill: red; }
      50%  { fill: black; }
      100% { fill: red; }
    }

    @keyframes alarmMedium
    {
      0%   { fill: yellow; }
      50%  { fill: black; }
      100% { fill: yellow; }
    }

    @keyframes alarmLow
    {
      0%   { fill: cyan; }
      50%  { fill: black; }
      100% { fill: cyan; }
    }

    /*
    ** .error
    ** {
    **   animation-name: zoneError;
    ** }
    **
    ** @keyframes zoneError
    ** {
    **   0%   { fill: red; }
    **   50%  { fill: black; }
    **   100% { fill: red; }
    ** }
    */

    .highlight
    {
      fill: cyan;
    }

  </style>
  </defs>
  <g id="zoomArea">
    <rect
       class="stairwell"
       x="925.24298"
       y="25.691359"
       width="73.717194"
       height="40.990116" />
    <line
       class="stairwell"
       x1="970.38208"
       y1="25.701767"
       x2="970.38208"
       y2="66.587914" />
    <path
       class="stairwell"
       d="M 941.1683,66.587908" />
    <path
       class="stairwell"
       d="M 941.1683,25.701772" />
    <line
       class="stairwell"
       x1="946.21271"
       y1="25.732962"
       x2="946.21271"
       y2="66.681488" />
    <line
       class="stairwell"
       x1="951.25708"
       y1="25.701767"
       x2="951.25708"
       y2="66.681488" />
    <line
       class="stairwell"
       x1="956.04095"
       y1="25.764154"
       x2="956.04095"
       y2="66.639893" />
    <line
       class="stairwell"
       x1="960.55389"
       y1="25.732962"
       x2="960.55389"
       y2="66.650299" />
    <line
       class="stairwell"
       x1="965.32727"
       y1="25.784971"
       x2="965.32727"
       y2="66.671082" />
    <line
       class="stairwell"
       x1="975.15558"
       y1="25.732962"
       x2="975.15558"
       y2="66.681488" />
    <line
       class="stairwell"
       x1="979.6684"
       y1="25.74337"
       x2="979.6684"
       y2="66.619102" />
    <line
       class="stairwell"
       x1="984.71277"
       y1="25.722584"
       x2="984.71277"
       y2="66.681488" />
    <line
       class="stairwell"
       x1="984.98376"
       y1="46.914303"
       x2="945.74365"
       y2="46.914303" />
    <line
       y2="171.03889"
       x2="423.07394"
       y1="171.03889"
       x1="416.73715"
       class="door"
       />
    <polygon
       points="731.59,510.21 731.59,506.5 719.45,506.5 719.5,523.75 "
       class="doorFill"
       transform="matrix(1.0422337,0,0,1.0398305,-327.03209,-359.42025)" />
    <path
       d="m 421.36466,185.53412 c 0.61492,0.11438 1.36533,0.13518 2.00109,0.12478 6.9517,-0.12478 13.16341,-7.65315 13.22595,-16.12777"
       class="door"
       />
    <line
       y2="170.01985"
       x2="421.89621"
       y1="186.76112"
       x1="421.89621"
       class="door"
       />
    <line
       y2="171.01808"
       x2="449.92184"
       y1="171.01808"
       x1="456.2482"
       class="door"
       />
    <polygon
       points="733.43,510.12 733.5,514 745.76,514 745.71,496.5 "
       class="doorFill"
       transform="matrix(1.0422337,0,0,1.0398305,-327.03209,-359.42025)" />
    <path
       d="m 451.62071,156.52285 c -0.61492,-0.11438 -1.36533,-0.13518 -2.00109,-0.12478 -6.9517,0.12478 -13.16341,7.65315 -13.22595,16.12777"
       class="door"
       />
    <line
       y2="172.05791"
       x2="451.0892"
       y1="155.39984"
       x1="451.0892"
       class="door"
       />
    <line
       y2="98.261139"
       x2="650.20795"
       y1="104.57291"
       x1="650.20795"
       class="door"
       />
    <polygon
       points="937.71,428.26 934,428.26 934,440.41 951.25,440.36 "
       class="doorFill"
       transform="matrix(1.0422337,0,0,1.0398305,-327.03209,-359.42025)" />
    <path
       d="m 664.73665,99.956068 c 0.11465,-0.6135 0.13549,-1.362178 0.12507,-2.006873 -0.12507,-6.935669 -7.67084,-13.133059 -16.16504,-13.195449"
       class="door"
       />
    <line
       y2="99.425743"
       x2="649.19696"
       y1="99.425743"
       x1="665.96649"
       class="door"
       />
    <line
       y2="71.475128"
       x2="650.18707"
       y1="65.163345"
       x1="650.18707"
       class="door"
       />
    <polygon
       points="937.62,426.42 941.51,426.36 941.51,414.09 924,414.14 "
       class="doorFill"
       transform="matrix(1.0422337,0,0,1.0398305,-327.03209,-359.42025)" />
    <path
       d="m 635.65833,69.780187 c -0.11464,0.6135 -0.13549,1.362178 -0.12506,2.006873 0.12506,6.935669 7.67084,13.133059 16.16504,13.195449"
       class="door"
       />
    <line
       y2="70.310486"
       x2="651.22931"
       y1="70.310486"
       x1="634.53271"
       class="door"
       />
    <line
       y2="98.261139"
       x2="244.37254"
       y1="104.57291"
       x1="244.37254"
       class="door"
       />
    <polygon
       points="544.61,428.26 544.61,440.41 561.87,440.36 548.33,428.26 "
       class="doorFill"
       transform="matrix(1.0422337,0,0,1.0398305,-327.03209,-359.42025)" />
    <path
       d="m 258.90127,99.956068 c 0.11465,-0.6135 0.13549,-1.362178 0.12507,-2.006873 -0.12507,-6.935669 -7.67084,-13.133059 -16.16504,-13.195449"
       class="door"
       />
    <line
       y2="99.425743"
       x2="243.3616"
       y1="99.425743"
       x1="260.1311"
       class="door"
       />
    <line
       y2="71.475128"
       x2="244.36211"
       y1="65.163345"
       x1="244.36211"
       class="door"
       />
    <polygon
       points="552.12,426.36 552.12,414.09 534.61,414.14 548.24,426.42 "
       class="doorFill"
       transform="matrix(1.0422337,0,0,1.0398305,-327.03209,-359.42025)" />
    <path
       d="m 229.83338,69.780187 c -0.11465,0.6135 -0.13549,1.362178 -0.12507,2.006873 0.12507,6.935669 7.67084,13.133059 16.16504,13.195449"
       class="door"
       />
    <line
       y2="70.310486"
       x2="245.39391"
       y1="70.310486"
       x1="228.70773"
       class="door"
       />
    <rect
       height="65.644501"
       width="83.378693"
       transform="scale(-1)"
       y="-168.68242"
       x="-926.08301"
       class="room"
       />
    <rect
       height="65.644501"
       width="85.421471"
       transform="scale(-1)"
       y="-168.68242"
       x="-797.97546"
       class="room"
       />
    <line
       class="door"
       x1="880.29144"
       y1="103.03396"
       x2="876.19543"
       y2="103.03396" />
    <line
       class="door"
       x1="866.36725"
       y1="103.03396"
       x2="861.95862"
       y2="103.03396" />
    <polygon
       class="doorFill"
       points="1154.55,441.57 1154.51,455.09 1144.59,444.8 1144.59,441.57 "
       transform="matrix(1.0422337,0,0,1.0398305,-327.03209,-359.42025)" />
    <path
       class="door"
       d="m 877.59204,114.98162 c -0.51069,0.0936 -1.12561,0.11438 -1.65715,0.10398 -5.73228,-0.10398 -10.83923,-6.1038 -10.89134,-13.08107" />
    <line
       class="door"
       x1="877.1543"
       y1="116.09422"
       x2="877.1543"
       y2="102.00453" />
    <line
       class="door"
       x1="927.68176"
       y1="66.681488"
       x2="931.77783"
       y2="66.681488" />
    <line
       class="door"
       x1="941.59558"
       y1="66.681488"
       x2="946.00421"
       y2="66.681488" />
    <polygon
       class="doorFill"
       points="1207.71,413 1207.75,399.3 1217.68,409.73 1217.68,413 "
       transform="matrix(1.0422337,0,0,1.0398305,-327.03209,-359.42025)" />
    <path
       class="door"
       d="m 930.37076,54.577865 c 0.51069,-0.09358 1.12561,-0.114381 1.65715,-0.103983 5.73228,0.103983 10.83923,6.186992 10.89134,13.257839" />
    <line
       class="door"
       x1="930.80847"
       y1="53.454845"
       x2="930.80847"
       y2="67.731728" />
    <rect
       class="stairwell"
       x="1.0422329"
       y="25.691359"
       width="73.717194"
       height="40.990116" />
    <line
       class="stairwell"
       x1="29.620295"
       y1="25.701767"
       x2="29.620295"
       y2="66.587914" />
    <path
       class="stairwell"
       d="M 58.82367,66.587908" />
    <path
       class="stairwell"
       d="M 58.82367,25.701772" />
    <line
       class="stairwell"
       x1="53.779263"
       y1="25.732962"
       x2="53.779263"
       y2="66.681488" />
    <line
       class="stairwell"
       x1="48.734856"
       y1="25.701767"
       x2="48.734856"
       y2="66.681488" />
    <line
       class="stairwell"
       x1="43.961411"
       y1="25.764154"
       x2="43.961411"
       y2="66.639893" />
    <line
       class="stairwell"
       x1="39.448551"
       y1="25.732962"
       x2="39.448551"
       y2="66.650299" />
    <line
       class="stairwell"
       x1="34.664703"
       y1="25.784971"
       x2="34.664703"
       y2="66.671082" />
    <line
       class="stairwell"
       x1="24.836414"
       y1="25.732962"
       x2="24.836414"
       y2="66.681488" />
    <line
       class="stairwell"
       x1="20.323557"
       y1="25.74337"
       x2="20.323557"
       y2="66.619102" />
    <line
       class="stairwell"
       x1="15.279149"
       y1="25.722584"
       x2="15.279149"
       y2="66.681488" />
    <line
       class="stairwell"
       x1="15.018591"
       y1="46.914303"
       x2="54.248249"
       y2="46.914303" />
    <line
       class="door"
       x1="72.32061"
       y1="66.681488"
       x2="68.224609"
       y2="66.681488" />
    <line
       class="door"
       x1="58.396351"
       y1="66.681488"
       x2="53.987694"
       y2="66.681488" />
    <polygon
       class="doorFill"
       points="379.28,399.3 369.36,409.73 369.36,413 379.32,413 "
       transform="matrix(1.0422337,0,0,1.0398305,-327.03209,-359.42025)" />
    <path
       class="door"
       d="M 69.621212,54.577865 C 69.110517,54.484281 68.495599,54.463484 67.96406,54.473882 62.231775,54.577865 57.124829,60.660874 57.072718,67.731721" />
    <line
       class="door"
       x1="69.183479"
       y1="53.454845"
       x2="69.183479"
       y2="67.731728" />
    <rect
       height="5.0431776"
       width="9.119545"
       transform="scale(-1)"
       y="-146.88216"
       x="-851.82385"
       class="room"
       />
    <rect
       height="30.882967"
       width="44.732666"
       transform="scale(-1)"
       y="-168.674"
       x="-842.71826"
       class="room"
       />
    <rect
       height="38.796078"
       width="9.119545"
       transform="scale(-1)"
       y="-141.84181"
       x="-851.82385"
       class="room"
       />
    <rect
       height="5.0431776"
       width="9.119545"
       transform="scale(-1)"
       y="-129.88121"
       x="-797.97839"
       class="room"
       />
    <rect
       height="38.796078"
       width="9.119545"
       transform="scale(-1)"
       y="-168.67464"
       x="-797.97839"
       class="room"
       />
    <rect
       height="38.796078"
       width="30.193508"
       transform="scale(-1)"
       y="-141.84181"
       x="-956.28064"
       class="room"
       />
    <rect
       height="75.148544"
       width="48.244995"
       transform="scale(-1)"
       y="-141.84169"
       x="-998.95312"
       class="room"
       />
    <line
       class="room"
       x1="842.71887"
       y1="166.92114"
       x2="842.71887"
       y2="162.83463" />
    <line
       class="room"
       x1="842.71887"
       y1="153.0394"
       x2="842.71887"
       y2="148.64095" />
    <polygon
       class="doorFill"
       points="1119.17,502.34 1132.69,502.3 1122.4,492.37 1119.17,492.37 "
       transform="matrix(1.0422337,0,0,1.0398305,-327.03209,-359.42025)" />
    <path
       class="room"
       d="m 854.68375,164.23839 c 0.0938,-0.50952 0.11464,-1.12302 0.10422,-1.65333 -0.10422,-5.71907 -6.11791,-10.81424 -13.1113,-10.86623" />
    <line
       class="room"
       x1="855.79895"
       y1="163.80165"
       x2="841.67664"
       y2="163.80165" />
    <rect
       height="34.751133"
       width="44.732666"
       y="103.03397"
       x="797.97583"
       class="room"
       />
    <line
       class="room"
       x1="797.97583"
       y1="104.79128"
       x2="797.97583"
       y2="108.8778" />
    <line
       class="room"
       x1="797.97583"
       y1="118.68343"
       x2="797.97583"
       y2="123.08189" />
    <polygon
       class="doorFill"
       points="1082.6,450.28 1069.08,450.32 1079.37,460.24 1082.6,460.24 "
       transform="matrix(1.0422337,0,0,1.0398305,-327.03209,-359.42025)" />
    <path
       class="room"
       d="m 786.01097,107.48444 c -0.0938,0.50952 -0.11465,1.12302 -0.10423,1.65333 0.10423,5.71907 6.11792,10.81424 13.1113,10.86623" />
    <line
       class="room"
       x1="784.89575"
       y1="107.92117"
       x2="799.01807"
       y2="107.92117" />
    <line
       class="door"
       x1="757.59973"
       y1="103.03396"
       x2="761.70605"
       y2="103.03396" />
    <line
       class="door"
       x1="771.52399"
       y1="103.03396"
       x2="775.93262"
       y2="103.03396" />
    <polygon
       class="doorFill"
       points="1044.53,441.57 1044.57,455.09 1054.5,444.8 1054.5,441.57 "
       transform="matrix(1.0422337,0,0,1.0398305,-327.03209,-359.42025)" />
    <path
       class="door"
       d="m 760.29906,114.98162 c 0.5107,0.0936 1.12561,0.11438 1.65715,0.10398 5.73229,-0.10398 10.83923,-6.1038 10.89135,-13.08107" />
    <line
       class="door"
       x1="760.73676"
       y1="116.09422"
       x2="760.73676"
       y2="102.00453" />
    <rect
       height="65.644501"
       width="83.378693"
       transform="scale(-1)"
       y="-66.685829"
       x="-925.2439"
       class="room"
       />
    <rect
       height="65.644501"
       width="85.421471"
       transform="scale(-1)"
       y="-66.685829"
       x="-797.13635"
       class="room"
       />
    <rect
       height="65.644501"
       width="41.866524"
       transform="scale(-1)"
       y="-66.685829"
       x="-711.70984"
       class="room"
       />
    <rect
       height="65.644501"
       width="43.888462"
       transform="scale(-1)"
       y="-168.68242"
       x="-712.56165"
       class="room"
       />
    <rect
       height="39.773514"
       width="35.904953"
       transform="scale(-1)"
       y="-142.81667"
       x="-668.67145"
       class="room"
       />
    <rect
       height="34.314404"
       width="35.904953"
       transform="scale(-1)"
       y="-177.13393"
       x="-668.67145"
       class="room"
       />
    <rect
       height="41.59322"
       width="46.087574"
       transform="scale(-1)"
       y="-171.01756"
       x="-596.02185"
       class="room"
       />
    <rect
       height="55.942879"
       width="48.317951"
       transform="scale(-1)"
       y="-226.95894"
       x="-549.92542"
       class="room"
       />
    <rect
       height="11.562915"
       width="46.087574"
       transform="scale(-1)"
       y="-182.57716"
       x="-596.02185"
       class="room"
       />
    <rect
       height="9.7952032"
       width="46.087574"
       transform="scale(-1)"
       y="-226.959"
       x="-596.02185"
       class="room"
       />
    <rect
       height="41.59322"
       width="12.256668"
       transform="scale(-1)"
       y="-171.01756"
       x="-526.71185"
       class="room"
       />
    <rect
       height="41.59322"
       width="29.620281"
       transform="scale(-1)"
       y="-171.01756"
       x="-514.44531"
       class="room"
       />
    <rect
       height="41.59322"
       width="29.318033"
       transform="scale(-1)"
       y="-171.01756"
       x="-484.83289"
       class="room"
       />
    <rect
       height="65.644501"
       width="84.181213"
       transform="scale(-1)"
       y="-66.685829"
       x="-669.84583"
       class="room"
       />
    <rect
       height="65.644501"
       width="85.89048"
       transform="scale(-1)"
       y="-66.685829"
       x="-500.50665"
       class="room"
       />
    <rect
       height="22.657907"
       width="25.430502"
       transform="scale(-1)"
       y="-66.691597"
       x="-669.85095"
       class="room"
       />
    <line
       class="door"
       x1="879.4472"
       y1="66.681488"
       x2="875.34082"
       y2="66.681488" />
    <line
       class="door"
       x1="865.52295"
       y1="66.681488"
       x2="861.11432"
       y2="66.681488" />
    <polygon
       class="doorFill"
       points="1153.74,412.96 1153.7,399.44 1143.77,409.73 1143.77,412.96 "
       transform="matrix(1.0422337,0,0,1.0398305,-327.03209,-359.42025)" />
    <path
       class="door"
       d="m 876.74783,54.744238 c -0.51069,-0.09359 -1.12561,-0.114381 -1.65715,-0.103983 -5.73228,0.103983 -10.83923,6.103805 -10.89134,13.081068" />
    <line
       class="door"
       x1="876.31006"
       y1="53.63163"
       x2="876.31006"
       y2="67.721321" />
    <line
       class="door"
       x1="699.14081"
       y1="66.681488"
       x2="695.03442"
       y2="66.681488" />
    <line
       class="door"
       x1="685.21655"
       y1="66.681488"
       x2="680.80792"
       y2="66.681488" />
    <polygon
       class="doorFill"
       points="980.74,412.96 980.7,399.44 970.77,409.73 970.77,412.96 "
       transform="matrix(1.0422337,0,0,1.0398305,-327.03209,-359.42025)" />
    <path
       class="door"
       d="m 696.4414,54.744238 c -0.51069,-0.09359 -1.12561,-0.114381 -1.65715,-0.103983 -5.73228,0.103983 -10.83923,6.103805 -10.89134,13.081068" />
    <line
       class="door"
       x1="696.00366"
       y1="53.63163"
       x2="696.00366"
       y2="67.721321" />
    <rect
       height="5.0431776"
       width="9.119545"
       transform="scale(-1)"
       y="-27.884594"
       x="-850.98486"
       class="room"
       />
    <rect
       height="30.882967"
       width="44.732666"
       transform="scale(-1)"
       y="-31.932659"
       x="-841.8689"
       class="room"
       />
    <rect
       height="38.796078"
       width="9.119545"
       transform="scale(-1)"
       y="-66.688454"
       x="-850.98486"
       class="room"
       />
    <rect
       height="5.0431776"
       width="9.119545"
       transform="scale(-1)"
       y="-44.896099"
       x="-797.12915"
       class="room"
       />
    <rect
       height="38.796078"
       width="9.119545"
       transform="scale(-1)"
       y="-39.845226"
       x="-797.12915"
       class="room"
       />
    <line
       class="room"
       x1="841.86432"
       y1="2.7943025"
       x2="841.86432"
       y2="6.8912373" />
    <line
       class="room"
       x1="841.86432"
       y1="16.686455"
       x2="841.86432"
       y2="21.084917" />
    <polygon
       class="doorFill"
       points="1118.35,352.19 1131.88,352.23 1121.58,362.16 1118.35,362.16 "
       transform="matrix(1.0422337,0,0,1.0398305,-327.03209,-359.42025)" />
    <path
       class="room"
       d="m 853.83954,5.4874674 c 0.0938,0.5095169 0.11464,1.1230169 0.10422,1.6533305 -0.10422,5.7190681 -6.11791,10.8142371 -13.1113,10.8662291" />
    <line
       class="room"
       x1="854.94427"
       y1="5.9242024"
       x2="840.83252"
       y2="5.9242024" />
    <rect
       height="34.751133"
       width="44.732666"
       y="31.930328"
       x="797.13159"
       class="room"
       />
    <line
       class="room"
       x1="797.13159"
       y1="64.934586"
       x2="797.13159"
       y2="60.848057" />
    <line
       class="room"
       x1="797.13159"
       y1="51.042431"
       x2="797.13159"
       y2="46.64397" />
    <polygon
       class="doorFill"
       points="1081.79,404.25 1068.27,404.21 1078.56,394.29 1081.79,394.29 "
       transform="matrix(1.0422337,0,0,1.0398305,-327.03209,-359.42025)" />
    <path
       class="room"
       d="m 785.15634,62.241416 c -0.0938,-0.509517 -0.11465,-1.123017 -0.10423,-1.65333 0.10423,-5.719068 6.11791,-10.814238 13.1113,-10.866229" />
    <line
       class="room"
       x1="784.05164"
       y1="61.804684"
       x2="798.17383"
       y2="61.804684" />
    <line
       class="door"
       x1="756.75543"
       y1="66.681488"
       x2="760.8515"
       y2="66.681488" />
    <line
       class="door"
       x1="770.67969"
       y1="66.681488"
       x2="775.08832"
       y2="66.681488" />
    <polygon
       class="doorFill"
       points="1043.72,412.96 1043.76,399.44 1053.68,409.73 1053.68,412.96 "
       transform="matrix(1.0422337,0,0,1.0398305,-327.03209,-359.42025)" />
    <path
       class="door"
       d="m 759.45485,54.744238 c 0.5107,-0.09359 1.12562,-0.114381 1.65715,-0.103983 5.73229,0.103983 10.83923,6.103805 10.89135,13.081068" />
    <line
       class="door"
       x1="759.89258"
       y1="53.63163"
       x2="759.89258"
       y2="67.721321" />
    <line
       class="room"
       x1="585.67279"
       y1="45.063408"
       x2="585.67279"
       y2="49.149963" />
    <line
       class="room"
       x1="585.67279"
       y1="58.955559"
       x2="585.67279"
       y2="63.354019" />
    <polygon
       class="doorFill"
       points="878.9,392.84 865.38,392.88 875.67,402.8 878.9,402.8 "
       transform="matrix(1.0422337,0,0,1.0398305,-327.03209,-359.42025)" />
    <path
       class="room"
       d="m 573.69754,47.756577 c -0.0938,0.509517 -0.11465,1.123017 -0.10422,1.653331 0.10422,5.719067 6.11791,10.814237 13.1113,10.866228" />
    <line
       class="room"
       x1="572.59277"
       y1="48.193306"
       x2="586.71503"
       y2="48.193306" />
    <line
       class="door"
       x1="668.66583"
       y1="103.03396"
       x2="672.7619"
       y2="103.03396" />
    <line
       class="door"
       x1="682.59015"
       y1="103.03396"
       x2="686.99878"
       y2="103.03396" />
    <polygon
       class="doorFill"
       points="959.2,441.57 959.24,455.09 969.16,444.8 969.16,441.57 "
       transform="matrix(1.0422337,0,0,1.0398305,-327.03209,-359.42025)" />
    <path
       class="door"
       d="m 671.36526,114.98162 c 0.5107,0.0936 1.12561,0.11438 1.65715,0.10398 5.73229,-0.10398 10.83923,-6.1038 10.89134,-13.08107" />
    <line
       class="door"
       x1="671.80298"
       y1="116.09422"
       x2="671.80298"
       y2="102.00453" />
    <rect
       height="67.994514"
       width="51.038185"
       transform="scale(-1)"
       y="-171.03984"
       x="-381.48883"
       class="room"
       />
    <rect
       height="67.994514"
       width="85.723717"
       transform="scale(-1)"
       y="-171.03984"
       x="-330.45203"
       class="room"
       />
    <polygon
       points="567.71,476.99 583.43,461.27 583.43,444.74 548.59,444.74 548.59,476.99 "
       class="room"
       transform="matrix(1.0422337,0,0,1.0398305,-327.03209,-359.42025)"
       />
    <line
       class="door"
       x1="355.18283"
       y1="103.03396"
       x2="351.08685"
       y2="103.03396" />
    <line
       class="door"
       x1="341.26898"
       y1="103.03396"
       x2="336.86035"
       y2="103.03396" />
    <polygon
       class="doorFill"
       points="650.73,441.57 650.68,455.09 640.76,444.8 640.76,441.57 "
       transform="matrix(1.0422337,0,0,1.0398305,-327.03209,-359.42025)" />
    <path
       class="door"
       d="m 352.49386,114.98162 c -0.51069,0.0936 -1.12561,0.11438 -1.65715,0.10398 -5.73229,-0.10398 -10.83923,-6.1038 -10.89134,-13.08107" />
    <line
       class="door"
       x1="352.05612"
       y1="116.09422"
       x2="352.05612"
       y2="102.00453" />
    <line
       class="door"
       x1="281.0383"
       y1="103.03396"
       x2="285.13428"
       y2="103.03396" />
    <line
       class="door"
       x1="294.96252"
       y1="103.03396"
       x2="299.37122"
       y2="103.03396" />
    <polygon
       class="doorFill"
       points="587.28,441.57 587.32,455.09 597.24,444.8 597.24,441.57 "
       transform="matrix(1.0422337,0,0,1.0398305,-327.03209,-359.42025)" />
    <path
       class="door"
       d="m 283.7377,114.98162 c 0.5107,0.0936 1.12562,0.11438 1.65715,0.10398 5.73229,-0.10398 10.83923,-6.1038 10.89135,-13.08107" />
    <line
       class="door"
       x1="284.17545"
       y1="116.09422"
       x2="284.17545"
       y2="102.00453" />
    <line
       class="door"
       x1="514.44653"
       y1="129.42487"
       x2="510.35059"
       y2="129.42487" />
    <line
       class="door"
       x1="500.53278"
       y1="129.42487"
       x2="496.11365"
       y2="129.42487" />
    <polygon
       class="doorFill"
       points="803.54,466.94 803.49,480.46 793.57,470.17 793.57,466.94 "
       transform="matrix(1.0422337,0,0,1.0398305,-327.03209,-359.42025)" />
    <path
       class="door"
       d="m 511.75759,141.37252 c -0.51069,0.0936 -1.12561,0.11438 -1.65715,0.10398 -5.73229,-0.10398 -10.83923,-6.1038 -10.89134,-13.08107" />
    <line
       class="door"
       x1="511.31985"
       y1="142.47475"
       x2="511.31985"
       y2="128.39543" />
    <line
       class="door"
       x1="549.74701"
       y1="171.01808"
       x2="545.65106"
       y2="171.01808" />
    <line
       class="door"
       x1="535.82275"
       y1="171.01808"
       x2="531.41406"
       y2="171.01808" />
    <polygon
       class="doorFill"
       points="837.4,506.94 837.36,520.46 827.44,510.17 827.44,506.94 "
       transform="matrix(1.0422337,0,0,1.0398305,-327.03209,-359.42025)" />
    <path
       class="door"
       d="m 547.04762,182.96574 c -0.51069,0.0936 -1.12561,0.11438 -1.65715,0.10398 -5.73228,-0.10398 -10.83923,-6.1038 -10.89134,-13.08107" />
    <line
       class="door"
       x1="546.60986"
       y1="184.06793"
       x2="546.60986"
       y2="169.97826" />
    <line
       class="door"
       x1="632.40656"
       y1="174.32474"
       x2="626.76813"
       y2="174.32474" />
    <line
       class="door"
       x1="616.9502"
       y1="174.32474"
       x2="612.53113"
       y2="174.32474" />
    <polygon
       class="doorFill"
       points="915.24,510.12 915.19,523.64 905.27,513.35 905.27,510.12 "
       transform="matrix(1.0422337,0,0,1.0398305,-327.03209,-359.42025)" />
    <path
       class="door"
       d="m 628.1751,186.262 c -0.5107,0.0936 -1.12562,0.11438 -1.65716,0.10398 -5.73228,-0.10398 -10.83923,-6.1038 -10.89134,-13.08106" />
    <line
       class="door"
       x1="627.73737"
       y1="187.37459"
       x2="627.73737"
       y2="173.2849" />
    <line
       class="door"
       x1="596.24103"
       y1="174.32474"
       x2="602.23389"
       y2="174.32474" />
    <line
       class="door"
       x1="612.06213"
       y1="174.32474"
       x2="616.47083"
       y2="174.32474" />
    <polygon
       class="doorFill"
       points="891.53,510.12 891.57,523.64 901.49,513.35 901.49,510.12 "
       transform="matrix(1.0422337,0,0,1.0398305,-327.03209,-359.42025)" />
    <path
       class="door"
       d="m 600.83731,186.262 c 0.51069,0.0936 1.12561,0.11438 1.65715,0.10398 5.73228,-0.10398 10.83923,-6.1038 10.89134,-13.08106" />
    <line
       class="door"
       x1="601.27502"
       y1="187.37459"
       x2="601.27502"
       y2="173.2849" />
    <line
       class="door"
       x1="462.57455"
       y1="129.42487"
       x2="466.67053"
       y2="129.42487" />
    <line
       class="door"
       x1="476.48843"
       y1="129.42487"
       x2="480.9075"
       y2="129.42487" />
    <polygon
       class="doorFill"
       points="761.45,466.94 761.5,480.46 771.42,470.17 771.42,466.94 "
       transform="matrix(1.0422337,0,0,1.0398305,-327.03209,-359.42025)" />
    <path
       class="door"
       d="m 465.26355,141.37252 c 0.51069,0.0936 1.12561,0.11438 1.65715,0.10398 5.73228,-0.10398 10.83923,-6.1038 10.89134,-13.08107" />
    <line
       class="door"
       x1="465.70126"
       y1="142.47475"
       x2="465.70126"
       y2="128.39543" />
    <line
       class="door"
       x1="632.76093"
       y1="171.76675"
       x2="632.76093"
       y2="167.68024" />
    <line
       class="door"
       x1="632.76093"
       y1="157.87463"
       x2="632.76093"
       y2="153.47615" />
    <polygon
       class="doorFill"
       points="917.73,506.99 931.25,506.95 920.96,497.03 917.73,497.03 "
       transform="matrix(1.0422337,0,0,1.0398305,-327.03209,-359.42025)" />
    <path
       class="door"
       d="m 644.73619,169.0736 c 0.0938,-0.50952 0.11465,-1.12302 0.10422,-1.65333 -0.10422,-5.71907 -6.11791,-10.81424 -13.1113,-10.86623" />
    <line
       class="door"
       x1="645.85138"
       y1="168.63686"
       x2="631.72906"
       y2="168.63686" />
    <line
       class="door"
       x1="632.76093"
       y1="103.03396"
       x2="632.76093"
       y2="107.13089" />
    <line
       class="door"
       x1="632.76093"
       y1="116.92611"
       x2="632.76093"
       y2="121.32457" />
    <polygon
       class="doorFill"
       points="917.73,448.59 931.25,448.63 920.96,458.56 917.73,458.56 "
       transform="matrix(1.0422337,0,0,1.0398305,-327.03209,-359.42025)" />
    <path
       class="door"
       d="m 644.73619,105.72713 c 0.0938,0.50951 0.11465,1.12301 0.10422,1.65333 -0.10422,5.71907 -6.11791,10.81424 -13.1113,10.86623" />
    <line
       class="door"
       x1="645.85138"
       y1="106.16386"
       x2="631.72906"
       y2="106.16386" />
    <rect
       height="36.976372"
       width="35.904953"
       y="103.03397"
       x="381.48877"
       class="room"
       />
    <polygon
       points="364.25,482.18 385.51,482.18 385.51,444.74 364.25,444.74 364.25,409.78 314.78,409.78 314.78,482.18 350.21,482.18 "
       class="room"
       transform="matrix(1.0422337,0,0,1.0398305,-327.03209,-359.42025)"
       />
    <rect
       height="31.018143"
       width="35.904953"
       y="140.02072"
       x="381.48877"
       class="room"
       />
    <line
       class="door"
       x1="417.39377"
       y1="148.8593"
       x2="417.39377"
       y2="152.88344" />
    <line
       class="door"
       x1="417.39377"
       y1="162.53307"
       x2="417.39377"
       y2="166.86917" />
    <polygon
       class="doorFill"
       points="717.43,492.6 703.91,492.64 714.2,502.41 717.43,502.41 "
       transform="matrix(1.0422337,0,0,1.0398305,-327.03209,-359.42025)" />
    <path
       class="door"
       d="m 405.41849,151.51086 c -0.0938,0.49912 -0.11465,1.10222 -0.10423,1.62214 0.10423,5.63588 6.11792,10.64786 13.1113,10.69986" />
    <line
       class="door"
       x1="404.31375"
       y1="151.93718"
       x2="418.42557"
       y2="151.93718" />
    <line
       class="room"
       x1="416.88309"
       y1="103.03396"
       x2="412.78711"
       y2="103.03396" />
    <line
       class="room"
       x1="402.9588"
       y1="103.03396"
       x2="398.55017"
       y2="103.03396" />
    <polygon
       class="doorFill"
       points="709.92,447.92 709.88,434.4 699.96,444.69 699.96,447.92 "
       transform="matrix(1.0422337,0,0,1.0398305,-327.03209,-359.42025)" />
    <path
       class="room"
       d="m 414.18367,91.096712 c -0.51069,-0.09358 -1.12561,-0.114381 -1.65715,-0.103983 -5.73228,0.103983 -10.83923,6.103805 -10.89134,13.081071" />
    <line
       class="room"
       x1="413.74594"
       y1="89.984093"
       x2="413.74594"
       y2="104.07378" />
    <line
       class="room"
       x1="266.32196"
       y1="134.89438"
       x2="269.21942"
       y2="132.00365" />
    <line
       class="room"
       x1="276.17108"
       y1="125.07838"
       x2="279.28735"
       y2="121.96929" />
    <polygon
       class="doorFill"
       points="569.79,470.42 579.38,479.95 579.12,465.66 576.83,463.37 "
       transform="matrix(1.0422337,0,0,1.0398305,-327.03209,-359.42025)" />
    <path
       class="room"
       d="m 276.70263,141.44531 c 0.42731,-0.29116 0.87547,-0.71749 1.24025,-1.09183 3.98134,-4.11773 3.34557,-11.95805 -1.56335,-16.93884" />
    <line
       class="room"
       x1="277.79697"
       y1="141.91324"
       x2="267.81235"
       y2="131.95164" />
    <rect
       height="67.994514"
       width="84.243752"
       transform="scale(-1)"
       y="-171.03984"
       x="-244.72481"
       class="room"
       />
    <polygon
       points="486.87,476.99 502.6,461.27 502.6,444.74 467.76,444.74 467.76,476.99 "
       class="room"
       transform="matrix(1.0422337,0,0,1.0398305,-327.03209,-359.42025)"
       />
    <line
       class="door"
       x1="196.79457"
       y1="103.03396"
       x2="200.89055"
       y2="103.03396" />
    <line
       class="door"
       x1="210.7084"
       y1="103.03396"
       x2="215.12746"
       y2="103.03396" />
    <polygon
       class="doorFill"
       points="506.49,455.09 516.41,444.8 516.41,441.57 506.45,441.57 "
       transform="matrix(1.0422337,0,0,1.0398305,-327.03209,-359.42025)" />
    <path
       class="door"
       d="m 199.49395,114.98162 c 0.5107,0.0936 1.12562,0.11438 1.65715,0.10398 5.73229,-0.10398 10.83923,-6.1038 10.89135,-13.08107" />
    <line
       class="door"
       x1="199.93167"
       y1="116.09422"
       x2="199.93167"
       y2="102.00453" />
    <line
       class="room"
       x1="182.07823"
       y1="134.89438"
       x2="184.97565"
       y2="132.00365" />
    <line
       class="room"
       x1="191.91693"
       y1="125.07838"
       x2="195.04362"
       y2="121.96929" />
    <polygon
       class="doorFill"
       points="488.95,470.42 498.54,479.95 498.28,465.66 496,463.37 "
       transform="matrix(1.0422337,0,0,1.0398305,-327.03209,-359.42025)" />
    <path
       class="room"
       d="m 192.44845,141.44531 c 0.42732,-0.29116 0.87548,-0.71749 1.24026,-1.09183 3.98133,-4.11773 3.34557,-11.95805 -1.56335,-16.93884" />
    <line
       class="room"
       x1="193.54282"
       y1="141.91324"
       x2="183.5582"
       y2="131.95164" />
    <rect
       height="67.994514"
       width="85.723717"
       y="103.03397"
       x="74.759407"
       class="room"
       />
    <polygon
       points="448.64,476.99 432.92,461.27 432.92,444.74 467.76,444.74 467.76,476.99 "
       class="room"
       transform="matrix(1.0422337,0,0,1.0398305,-327.03209,-359.42025)"
       />
    <line
       class="door"
       x1="124.17174"
       y1="103.03396"
       x2="120.06533"
       y2="103.03396" />
    <line
       class="door"
       x1="110.24748"
       y1="103.03396"
       x2="105.83882"
       y2="103.03396" />
    <polygon
       class="doorFill"
       points="429.03,455.09 419.1,444.8 419.1,441.57 429.07,441.57 "
       transform="matrix(1.0422337,0,0,1.0398305,-327.03209,-359.42025)" />
    <path
       class="door"
       d="m 121.47234,114.98162 c -0.5107,0.0936 -1.12561,0.11438 -1.65715,0.10398 -5.73229,-0.10398 -10.83923,-6.1038 -10.89135,-13.08107" />
    <line
       class="door"
       x1="121.03461"
       y1="116.09422"
       x2="121.03461"
       y2="102.00453" />
    <line
       class="door"
       x1="74.144516"
       y1="103.03396"
       x2="70.038116"
       y2="103.03396" />
    <line
       class="door"
       x1="60.220261"
       y1="103.03396"
       x2="55.8116"
       y2="103.03396" />
    <polygon
       class="doorFill"
       points="381.03,455.09 371.1,444.8 371.1,441.57 381.07,441.57 "
       transform="matrix(1.0422337,0,0,1.0398305,-327.03209,-359.42025)" />
    <path
       class="door"
       d="m 71.445121,114.98162 c -0.510695,0.0936 -1.125613,0.11438 -1.657152,0.10398 -5.732285,-0.10398 -10.839231,-6.1038 -10.891342,-13.08107" />
    <line
       class="door"
       x1="71.007385"
       y1="116.09422"
       x2="71.007385"
       y2="102.00453" />
    <line
       class="room"
       x1="138.87764"
       y1="134.89438"
       x2="135.98022"
       y2="132.00365" />
    <line
       class="room"
       x1="129.03896"
       y1="125.07838"
       x2="125.92268"
       y2="121.96929" />
    <polygon
       class="doorFill"
       points="446.56,470.42 436.97,479.95 437.23,465.66 439.52,463.37 "
       transform="matrix(1.0422337,0,0,1.0398305,-327.03209,-359.42025)" />
    <path
       class="room"
       d="m 128.50742,141.44531 c -0.42732,-0.29116 -0.87548,-0.71749 -1.24026,-1.09183 -3.98134,-4.11773 -3.34557,-11.95805 1.56335,-16.93884" />
    <line
       class="room"
       x1="127.41307"
       y1="141.91324"
       x2="137.39766"
       y2="131.95164" />
    <rect
       height="65.644501"
       width="84.16037"
       transform="scale(-1)"
       y="-66.685829"
       x="-414.61243"
       class="room"
       />
    <polygon
       points="649.96,377.53 665.68,393.26 665.68,409.78 630.84,409.78 630.84,377.53 "
       class="room"
       transform="matrix(1.0422337,0,0,1.0398305,-327.03209,-359.42025)"
       />
    <line
       class="door"
       x1="366.76202"
       y1="66.681488"
       x2="370.858"
       y2="66.681488" />
    <line
       class="door"
       x1="380.68625"
       y1="66.681488"
       x2="385.09494"
       y2="66.681488" />
    <polygon
       class="doorFill"
       points="669.53,412.96 669.57,399.44 679.49,409.73 679.49,412.96 "
       transform="matrix(1.0422337,0,0,1.0398305,-327.03209,-359.42025)" />
    <path
       class="door"
       d="m 369.46142,54.744238 c 0.5107,-0.09359 1.12562,-0.114381 1.65716,-0.103983 5.73228,0.103983 10.83923,6.103805 10.89134,13.081068" />
    <line
       class="door"
       x1="369.89917"
       y1="53.63163"
       x2="369.89917"
       y2="67.721321" />
    <line
       class="room"
       x1="352.04568"
       y1="34.821102"
       x2="354.94315"
       y2="37.71183" />
    <line
       class="room"
       x1="361.89481"
       y1="44.64748"
       x2="365.01108"
       y2="47.756565" />
    <polygon
       class="doorFill"
       points="652.04,384.11 661.63,374.58 661.37,388.87 659.08,391.16 "
       transform="matrix(1.0422337,0,0,1.0398305,-327.03209,-359.42025)" />
    <path
       class="room"
       d="m 362.42635,28.280552 c 0.42731,0.291152 0.87547,0.717483 1.24026,1.091822 3.98133,4.117729 3.34557,11.958051 -1.56336,16.938839" />
    <line
       class="room"
       x1="363.52069"
       y1="27.812622"
       x2="353.53607"
       y2="37.763809" />
    <rect
       height="65.644501"
       width="85.723717"
       y="1.0473946"
       x="244.72694"
       class="room"
       />
    <rect
       height="65.644501"
       width="58.021149"
       y="1.0473946"
       x="186.70576"
       class="room"
       />
    <rect
       height="65.644501"
       width="68.401794"
       y="1.0473946"
       x="118.35606"
       class="room"
       />
    <rect
       height="65.644501"
       width="43.596634"
       y="1.0473946"
       x="74.759407"
       class="room"
       />
    <polygon
       points="611.37,377.53 595.35,393.26 595.35,409.78 630.84,409.78 630.84,377.53 "
       class="room"
       transform="matrix(1.0422337,0,0,1.0398305,-327.03209,-359.42025)"
       />
    <line
       class="door"
       x1="293.46173"
       y1="66.681488"
       x2="289.29279"
       y2="66.681488" />
    <line
       class="door"
       x1="279.28735"
       y1="66.681488"
       x2="274.79535"
       y2="66.681488" />
    <polygon
       class="doorFill"
       points="591.43,412.96 591.39,399.44 581.28,409.73 581.28,412.96 "
       transform="matrix(1.0422337,0,0,1.0398305,-327.03209,-359.42025)" />
    <path
       class="door"
       d="m 290.72067,54.744238 c -0.52112,-0.09359 -1.14646,-0.114381 -1.68842,-0.103983 -5.83651,0.103983 -11.03725,6.103805 -11.09979,13.081068" />
    <line
       class="door"
       x1="290.27249"
       y1="53.63163"
       x2="290.27249"
       y2="67.721321" />
    <line
       class="door"
       x1="199.82748"
       y1="66.681488"
       x2="204.00682"
       y2="66.681488" />
    <line
       class="door"
       x1="214.01227"
       y1="66.681488"
       x2="218.50429"
       y2="66.681488" />
    <polygon
       class="doorFill"
       points="509.48,399.44 519.58,409.73 519.58,412.96 509.43,412.96 "
       transform="matrix(1.0422337,0,0,1.0398305,-327.03209,-359.42025)" />
    <path
       class="door"
       d="m 202.57896,54.744238 c 0.52112,-0.09359 1.14646,-0.114381 1.68842,-0.103983 5.83651,0.103983 11.03726,6.103805 11.09979,13.081068" />
    <line
       class="door"
       x1="203.02711"
       y1="53.63163"
       x2="203.02711"
       y2="67.721321" />
    <line
       class="door"
       x1="78.667809"
       y1="66.681488"
       x2="82.847145"
       y2="66.681488" />
    <line
       class="door"
       x1="92.852592"
       y1="66.681488"
       x2="97.34462"
       y2="66.681488" />
    <polygon
       class="doorFill"
       points="393.23,399.44 403.33,409.73 403.33,412.96 393.18,412.96 "
       transform="matrix(1.0422337,0,0,1.0398305,-327.03209,-359.42025)" />
    <path
       class="door"
       d="m 81.419297,54.744238 c 0.521117,-0.09359 1.146457,-0.114381 1.688419,-0.103983 5.836508,0.103983 11.037255,6.103805 11.099789,13.081068" />
    <line
       class="door"
       x1="81.867447"
       y1="53.63163"
       x2="81.867447"
       y2="67.721321" />
    <line
       class="room"
       x1="308.44904"
       y1="34.821102"
       x2="305.49957"
       y2="37.71183" />
    <line
       class="room"
       x1="298.42276"
       y1="44.64748"
       x2="295.25439"
       y2="47.756565" />
    <polygon
       class="doorFill"
       points="609.25,384.11 599.48,374.58 599.75,388.87 602.07,391.16 "
       transform="matrix(1.0422337,0,0,1.0398305,-327.03209,-359.42025)" />
    <path
       class="room"
       d="m 297.89124,28.280552 c -0.43774,0.291152 -0.8859,0.717483 -1.26111,1.091822 -4.05429,4.117729 -3.4081,11.958051 1.59462,16.938839" />
    <line
       class="room"
       x1="296.77606"
       y1="27.812622"
       x2="306.93787"
       y2="37.763809" />
    <line
       class="door"
       x1="596.02222"
       y1="137.50436"
       x2="596.02222"
       y2="141.5909" />
    <line
       class="door"
       x1="596.02222"
       y1="151.39648"
       x2="596.02222"
       y2="155.79498" />
    <polygon
       class="doorFill"
       points="888.83,481.74 875.31,481.78 885.6,491.7 888.83,491.7 "
       transform="matrix(1.0422337,0,0,1.0398305,-327.03209,-359.42025)" />
    <path
       class="door"
       d="m 584.04692,140.19751 c -0.0938,0.50952 -0.11464,1.12302 -0.10422,1.65333 0.10422,5.71907 6.11791,10.81424 13.1113,10.86623" />
    <line
       class="door"
       x1="582.94214"
       y1="140.63423"
       x2="597.06445"
       y2="140.63423" />
    <line
       y2="159.74632"
       x2="526.71368"
       y1="164.32156"
       x1="526.71368"
       class="room"
       />
    <polygon
       points="821.05,490.96 816.44,490.96 816.44,499.21 828.56,499.18 "
       class="doorFill"
       transform="matrix(1.0422337,0,0,1.0398305,-327.03209,-359.42025)" />
    <path
       d="m 536.37515,160.97332 c 0.073,-0.44713 0.0938,-0.98784 0.0834,-1.44536 -0.0834,-5.02238 -5.10694,-9.50405 -10.74543,-9.54565"
       class="room"
       />
    <line
       y2="160.59898"
       x2="525.67145"
       y1="160.59898"
       x1="537.49036"
       class="room"
       />
    <line
       y2="140.23909"
       x2="526.71368"
       y1="135.66385"
       x1="526.71368"
       class="room"
       />
    <polygon
       points="821.08,488.84 816.44,488.84 816.44,480.59 828.62,480.62 "
       class="doorFill"
       transform="matrix(1.0422337,0,0,1.0398305,-327.03209,-359.42025)" />
    <path
       d="m 536.37515,139.0017 c 0.073,0.44713 0.0938,0.98784 0.0834,1.44537 -0.0834,5.02238 -5.10694,9.50405 -10.74543,9.54564"
       class="room"
       />
    <line
       y2="139.38646"
       x2="525.67145"
       y1="139.38646"
       x1="537.49036"
       class="room"
       />
    <line
       y2="1.0473946"
       x2="493.95618"
       y1="1.0473946"
       x1="588.01776"
       class="wall"
       />
    <rect
       height="4"
       width="25.024033"
       transform="scale(-1)"
       y="-69.081917"
       x="-470.5304"
       class="cover"
       />
    <rect
       height="22.481136"
       width="25.534725"
       y="44.200348"
       x="161.17104"
       class="room"
       />
    <line
       class="door"
       x1="157.06464"
       y1="66.681488"
       x2="152.88527"
       y2="66.681488" />
    <line
       class="door"
       x1="142.87981"
       y1="66.681488"
       x2="138.38779"
       y2="66.681488" />
    <polygon
       class="doorFill"
       points="460.52,399.44 450.41,409.73 450.41,412.96 460.56,412.96 "
       transform="matrix(1.0422337,0,0,1.0398305,-327.03209,-359.42025)" />
    <path
       class="door"
       d="m 154.31312,54.744238 c -0.52111,-0.09359 -1.14646,-0.114381 -1.68842,-0.103983 -5.83651,0.103983 -11.03725,6.103805 -11.09979,13.081068" />
    <line
       class="door"
       x1="153.86496"
       y1="53.63163"
       x2="153.86496"
       y2="67.721321" />
    <rect
       class="stairwell"
       x="553.28021"
       y="186.61554"
       width="39.396435"
       height="26.578068" />
    <line
       class="wall"
       x1="592.5932"
       y1="186.66751"
       x2="553.37396"
       y2="213.08965" />
    <line
       class="wall"
       x1="553.3844"
       y1="186.70915"
       x2="592.57245"
       y2="213.06883" />
    <polygon
       class="room"
       points="882.43,525.11 882.43,530.7 885.64,530.7 885.64,523.84 885.65,523.84 885.65,521.28 884.8,521.28 870.41,521.24 845.68,521.29 843.22,521.28 842.28,521.27 841.43,521.27 841.43,521.8 841.42,554.49 885.64,554.49 885.64,545 882.43,545 882.43,550.68 844.64,550.68 844.64,525.11 "
       transform="matrix(1.0422337,0,0,1.0398305,-327.03209,-359.42025)" />
    <rect
       height="11.562915"
       width="46.087574"
       y="171.01807"
       x="455.51868"
       class="room"
       />
    <rect
       height="9.7952032"
       width="46.087574"
       y="217.15533"
       x="455.51868"
       class="room"
       />
    <rect
       class="stairwell"
       x="458.86423"
       y="186.61554"
       width="39.396435"
       height="26.578068" />
    <line
       class="wall"
       x1="458.9476"
       y1="186.66751"
       x2="498.16687"
       y2="213.08965" />
    <line
       class="wall"
       x1="498.146"
       y1="186.70915"
       x2="458.95804"
       y2="213.06883" />
    <polygon
       class="room"
       points="754.06,525.11 754.06,530.7 750.84,530.7 750.84,523.84 750.84,521.28 751.68,521.28 766.08,521.24 790.81,521.29 793.27,521.28 794.21,521.27 795.06,521.27 795.06,521.8 795.06,554.49 750.84,554.49 750.84,545 754.06,545 754.06,550.68 791.85,550.68 791.85,525.11 "
       transform="matrix(1.0422337,0,0,1.0398305,-327.03209,-359.42025)" />
    <rect
       height="11.354949"
       width="26.57696"
       transform="scale(-1)"
       y="-38.487652"
       x="-556.35614"
       class="room"
       />
    <rect
       height="8.9321432"
       width="34.65427"
       transform="scale(-1)"
       y="-9.9731855"
       x="-560.38965"
       class="room"
       />
    <rect
       height="36.39407"
       width="9.6823502"
       transform="scale(-1)"
       y="-42.733685"
       x="-585.67236"
       class="room"
       />
    <rect
       height="36.39407"
       width="9.6823502"
       transform="scale(-1)"
       y="-42.733685"
       x="-510.1944"
       class="room"
       />
    <path
       class="reception"
       d="m 563.45237,82.41411 c 1.50082,0 2.72023,-1.2166 2.72023,-2.71395 0,-0.0104 0,-10.62706 0,-10.62706 h -3.99176 v 7.19562 1.05023 1.279 h -1.20898 -0.99013 -10.14093 v 3.81616 c 0,0 13.60114,0 13.61157,0 z" />
    <path
       class="reception"
       d="m 522.35709,82.41411 c -1.50081,0 -2.72022,-1.2166 -2.72022,-2.71395 0,-0.0104 0,-10.62706 0,-10.62706 h 3.99175 v 7.19562 1.05023 1.279 h 1.20899 0.99012 10.14094 v 3.81616 c 0,0 -13.60116,0 -13.61158,0 z" />
    <rect
       class="reception"
       x="-562.16998"
       y="-78.602638"
       transform="scale(-1)"
       width="38.520954"
       height="8.4538212" />
    <rect
       class="reception"
       x="-558.00903"
       y="-48.62254"
       transform="scale(-1)"
       width="29.985064"
       height="10.138347" />
    <g style="visibility: hidden;">
      <path
         d="m 272.40861,85.25285 c 0,3.52503 2.86615,6.37416 6.3889,6.37416 3.53317,0 6.38889,-2.85952 6.38889,-6.37416 0,-3.52502 -2.86614,-6.37415 -6.38889,-6.37415 -3.53318,0 -6.3889,2.85953 -6.3889,6.37415 z" />
      <path
         d="m 760.1844,85.25285 c 0,3.52503 2.8661,6.37416 6.3888,6.37416 3.5332,0 6.389,-2.85952 6.389,-6.37416 0,-3.52502 -2.8662,-6.37415 -6.389,-6.37415 -3.5331,0 -6.3888,2.85953 -6.3888,6.37415 z" />
      <path
         d="m 536.69823,52.10305 c 0,3.52504 2.86615,6.37417 6.38889,6.37417 3.53317,0 6.3889,-2.85953 6.3889,-6.37417 0,-3.52502 -2.86615,-6.37415 -6.3889,-6.37415 -3.53316,-0.0104 -6.38889,2.84913 -6.38889,6.37415 z" />
      <path
         d="m 56.95806,68.00207 c 0,3.52502 2.86615,6.37416 6.3889,6.37416 3.53317,0 6.3889,-2.85954 6.3889,-6.37416 0,-3.52502 -2.86615,-6.37417 -6.3889,-6.37417 -3.53317,0 -6.3889,2.84915 -6.3889,6.37417 z" />
      <path
         d="m 930.2561,68.00207 c 0,3.52502 2.8661,6.37416 6.3888,6.37416 3.5333,0 6.389,-2.85954 6.389,-6.37416 0,-3.52502 -2.8661,-6.37417 -6.389,-6.37417 -3.5331,0 -6.3888,2.84915 -6.3888,6.37417 z" />
      <path
         d="m 607.87237,174.32474 c 0,3.52502 2.86614,6.37415 6.38889,6.37415 3.53317,0 6.38889,-2.85953 6.38889,-6.37415 0,-3.52503 -2.86614,-6.37417 -6.38889,-6.37417 -3.52275,-0.0104 -6.38889,2.84914 -6.38889,6.37417 z" />
      <path
         d="m 429.99434,170.01984 c 0,3.52502 2.86615,6.37416 6.3889,6.37416 3.53318,0 6.38889,-2.85954 6.38889,-6.37416 0,-3.52502 -2.86614,-6.37417 -6.38889,-6.37417 -3.53317,0 -6.3889,2.85954 -6.3889,6.37417 z" />
    </g>
  </g>
</svg>
