<?xml version="1.0" encoding="UTF-8"?>
<svg
  version="1.1"
  xmlns="http://www.w3.org/2000/svg"
  xmlns:xlink="http://www.w3.org/1999/xlink"
  viewBox="0 0 1583.67 936"
  xml:space="preserve"
>

  <style type="text/css">
  	.st1{fill:#dceaef;}
  	.st20{fill:#eae8ea;stroke:#000000;stroke-width:6;}
  	.st21{fill:#dceaef;stroke:#000000;stroke-width:6;}
  	.st22{fill:#eae8ea;}

  </style>

  <g id="zoomArea">
    <g>
    	<polygon class="st20" points="809.06,373.45 291.23,373.45 291.24,152.02 219.39,152.02 219.39,75.17 809.06,75.17  "/>
    	<rect x="291.03" y="373.21" class="st20" width="247.43" height="262.1"/>
    	<rect x="538.46" y="373.21" class="st20" width="269.54" height="261.88"/>
    	<polygon class="st20" points="880.27,630.57 930.86,630.57 930.86,582.28 1408.71,582.28 1408.71,75.25 879.42,75.25  "/>
    	<rect x="880.69" y="75.76" class="st20" width="184.08" height="103.77"/>
    	<polygon class="st20" points="880.66,801.08 507.39,801.08 507.39,834.62 380.28,834.62 380.37,801.08 290.14,801.08    290.14,635.09 809.46,635.09 808.81,75.2 880.66,75.2  "/>
    	<g>
    		<line class="st21" x1="228.39" y1="151.94" x2="242.7" y2="151.94"/>
    		<line class="st21" x1="269.65" y1="151.94" x2="286.18" y2="151.94"/>
    		<polygon class="st1" points="243.05,122.42 269.78,146.61 269.78,161.48 242.94,161.48   "/>
    		<path class="st21" d="M238.86,118.75c1.4-0.26,3.08-0.31,4.54-0.28c15.72,0.28,29.75,17.53,29.9,36.92"/>
    		<line class="st21" x1="240.06" y1="114.89" x2="240.06" y2="155.5"/>
    	</g>
    	<g>
    		<line class="st21" x1="880.28" y1="76" x2="880.28" y2="90.46"/>
    		<line class="st21" x1="880.28" y1="117.69" x2="880.28" y2="134.4"/>
    		<polygon class="st22" points="909.5,90.82 885.56,117.83 870.84,117.83 870.84,90.7   "/>
    		<path class="st20" d="M913.13,86.58c0.26,1.41,0.3,3.11,0.28,4.58c-0.28,15.89-17.35,30.06-36.54,30.21"/>
    		<line class="st21" x1="916.95" y1="87.79" x2="876.76" y2="87.79"/>
    	</g>
    	<g>
    		<line class="st21" x1="880.66" y1="476.35" x2="880.66" y2="461.89"/>
    		<line class="st21" x1="880.66" y1="434.67" x2="880.66" y2="417.96"/>
    		<polygon class="st22" points="909.87,461.54 885.93,434.53 871.21,434.53 871.21,461.66   "/>
    		<path class="st20" d="M913.5,465.78c0.26-1.41,0.3-3.11,0.28-4.58c-0.28-15.89-17.35-30.06-36.54-30.21"/>
    		<line class="st21" x1="917.32" y1="464.56" x2="877.13" y2="464.56"/>
    	</g>
    	<g>
    		<line class="st21" x1="807.96" y1="615.54" x2="807.96" y2="601.08"/>
    		<line class="st21" x1="807.96" y1="573.85" x2="807.96" y2="557.14"/>
    		<polygon class="st22" points="778.75,600.72 802.69,573.71 817.41,573.71 817.41,600.84   "/>
    		<path class="st20" d="M775.12,604.96c-0.26-1.41-0.3-3.11-0.28-4.58c0.28-15.89,17.35-30.06,36.54-30.21"/>
    		<line class="st21" x1="771.3" y1="603.75" x2="811.49" y2="603.75"/>
    	</g>
    	<g>
    		<line class="st21" x1="808.88" y1="378.4" x2="808.88" y2="363.94"/>
    		<line class="st21" x1="808.88" y1="336.71" x2="808.88" y2="320"/>
    		<polygon class="st22" points="779.66,363.58 803.6,336.57 818.32,336.57 818.32,363.7   "/>
    		<path class="st20" d="M776.04,367.82c-0.26-1.41-0.3-3.11-0.28-4.58c0.28-15.89,17.35-30.06,36.54-30.21"/>
    		<line class="st21" x1="772.22" y1="366.61" x2="812.41" y2="366.61"/>
    	</g>
    	<g>
    		<line class="st21" x1="528.67" y1="635.32" x2="514.36" y2="635.32"/>
    		<line class="st21" x1="487.41" y1="635.32" x2="470.87" y2="635.32"/>
    		<polygon class="st22" points="514,605.79 487.27,629.99 487.27,644.86 514.12,644.86   "/>
    		<path class="st20" d="M518.2,602.13c-1.4-0.26-3.08-0.31-4.54-0.28c-15.72,0.28-29.75,17.53-29.9,36.92"/>
    		<line class="st21" x1="517" y1="598.27" x2="517" y2="638.88"/>
    	</g>
    	<g>
    		<line class="st21" x1="956.54" y1="582.06" x2="970.85" y2="582.06"/>
    		<line class="st21" x1="997.8" y1="582.06" x2="1014.33" y2="582.06"/>
    		<polygon class="st22" points="971.2,611.58 997.94,587.39 997.94,572.52 971.09,572.52   "/>
    		<path class="st20" d="M967.01,615.25c1.4,0.26,3.08,0.31,4.54,0.28c15.72-0.28,29.75-17.53,29.9-36.92"/>
    		<line class="st21" x1="968.21" y1="619.1" x2="968.21" y2="578.5"/>
    	</g>
    	<g>
    		<g>
    			<line class="st21" x1="488.3" y1="834.58" x2="473.99" y2="834.58"/>
    			<polygon class="st22" points="473.63,868.28 446.9,841.41 446.9,824.89 473.75,824.89    "/>
    			<path class="st20" d="M477.83,867.76c-1.4,0.26-3.08,0.31-4.54,0.28c-15.72-0.28-29.75-17.53-29.9-36.92"/>
    			<line class="st21" x1="476.63" y1="871.62" x2="476.63" y2="831.02"/>
    		</g>
    		<g>
    			<line class="st21" x1="398.58" y1="834.58" x2="412.89" y2="834.58"/>
    			<polygon class="st22" points="413.24,868.5 439.97,841.49 439.97,824.88 413.13,824.88    "/>
    			<path class="st20" d="M409.05,867.76c1.4,0.26,3.08,0.31,4.54,0.28c15.72-0.28,29.75-17.53,29.9-36.92"/>
    			<line class="st21" x1="410.25" y1="871.62" x2="410.25" y2="831.02"/>
    		</g>
    	</g>

    </g>
  </g>
</svg>