<?xml version="1.0" encoding="utf-8"?>
<svg
  version="1.1"
  xmlns="http://www.w3.org/2000/svg"
  xmlns:xlink="http://www.w3.org/1999/xlink"
  x="0px"
  y="0px"
  width="1800"
  height="1080"
  viewBox="0 0 1800 1080"
  xml:space="preserve"
>

  <style type="text/css">

    #floorPlanGroup
    {
      stroke: black;
      stroke-width:2;
    }

    .st0, .st1 { fill: #eae8ea; } /* Rooms.  */
    .st2 { fill: none; } /* Some complex rooms */

  </style>

  <g id="zoomArea">
    <g id="floorPlanGroup">
      <rect x="358.57" y="323.23" class="st0" width="29.44" height="152.45"/>
      <rect x="358.57" y="533.14" class="st0" width="29.44" height="23.75"/>
      <rect x="358.57" y="573.99" class="st0" width="44.17" height="249.53"/>
      <rect x="358.57" y="475.68" class="st1" width="24.22" height="57.47"/>
      <rect x="382.79" y="490.4" class="st0" width="5.22" height="42.74"/>
      <rect x="514.34" y="323.23" class="st0" width="29.44" height="126.33"/>
      <rect x="585.1" y="375.47" class="st0" width="25.17" height="28.97"/>
      <rect x="589.37" y="362.17" class="st0" width="20.9" height="13.3"/>
      <rect x="585.38" y="303.76" class="st1" width="24.89" height="58.42"/>
      <rect x="568.48" y="362.17" class="st0" width="20.9" height="13.3"/>
      <rect x="559.93" y="375.47" class="st0" width="25.17" height="28.97"/>
      <rect x="543.78" y="323.23" class="st0" width="16.15" height="32.77"/>
      <rect x="255.07" y="197.85" class="st0" width="23.75" height="22.8"/>
      <rect x="252.51" y="164.55" class="st0" width="26.31" height="9.83"/>
      <rect x="278.82" y="164.55" class="st0" width="20.94" height="5.17"/>
      <rect x="299.76" y="164.55" class="st0" width="8" height="18.87"/>
      <rect x="231.32" y="197.85" class="st0" width="23.75" height="22.8"/>
      <rect x="231.32" y="164.55" class="st0" width="21.19" height="18.86"/>
      <rect x="231.32" y="183.41" class="st0" width="9.25" height="14.43"/>
      <rect x="325.73" y="164.55" class="st0" width="52.66" height="38.29"/>
      <rect x="325.73" y="125.85" class="st0" width="52.66" height="38.7"/>
      <rect x="325.73" y="259.46" class="st0" width="52.66" height="38.39"/>
      <rect x="325.73" y="220.65" class="st0" width="52.66" height="38.81"/>
      <rect x="255.07" y="125.85" class="st0" width="52.66" height="38.7"/>
      <rect x="255.07" y="259.46" class="st0" width="52.66" height="38.39"/>
      <rect x="255.07" y="220.65" class="st0" width="52.66" height="38.81"/>
      <rect x="628.79" y="259.12" class="st0" width="56.99" height="170.97"/>
      <rect x="628.79" y="220.65" class="st0" width="56.99" height="38.47"/>
      <rect x="585.34" y="220.65" class="st0" width="24.93" height="83.35"/>
      <rect x="585.34" y="118.3" class="st0" width="24.93" height="84.54"/>
      <rect x="728.17" y="381.29" class="st0" width="61.98" height="169.9"/>
      <rect x="707.29" y="530.53" class="st0" width="20.88" height="20.66"/>
      <rect x="790.15" y="478.17" class="st0" width="33.84" height="73.02"/>
      <rect x="809.74" y="551.19" class="st0" width="14.25" height="14.96"/>
      <rect x="827.19" y="587.52" class="st0" width="57.7" height="28.14"/>
      <rect x="790.15" y="429.73" class="st0" width="22.08" height="48.44"/>
      <polygon class="st0" points="873.14,381.29 790.15,381.29 790.15,429.73 830.75,429.73 830.75,418.33 873.14,418.33 "/>
      <rect x="812.23" y="429.73" class="st0" width="18.52" height="35.62"/>
      <rect x="830.75" y="441.84" class="st0" width="24.93" height="23.51"/>
      <rect x="830.75" y="418.33" class="st0" width="24.93" height="23.51"/>
      <rect x="835.74" y="478.17" class="st0" width="19.95" height="109.35"/>
      <polygon class="st0" points="884.89,407.29 884.89,437.21 867.44,437.21 867.44,478.17 855.68,478.17 855.68,515.21 903.41,515.21  903.41,407.29 "/>
      <rect x="707.29" y="486.72" class="st0" width="20.88" height="43.81"/>
      <polygon class="st0" points="710.53,449.68 728.17,449.68 728.17,381.29 703.24,381.29 703.24,442.38 "/>
      <rect x="399.88" y="337" class="st0" width="47.02" height="112.55"/>
      <rect x="405.58" y="468.08" class="st0" width="19.47" height="33.72"/>
      <rect x="425.05" y="468.08" class="st0" width="19.47" height="33.72"/>
      <rect x="470.17" y="468.08" class="st0" width="28.49" height="33.72"/>
      <polygon class="st0" points="536.66,490.06 536.66,468.08 498.67,468.08 498.67,501.8 524.93,501.8 "/>
      <rect x="405.58" y="501.8" class="st0" width="73.14" height="33.72"/>
      <rect x="478.72" y="501.8" class="st0" width="33.24" height="33.72"/>
      <rect x="511.96" y="512.72" class="st0" width="33.24" height="22.79"/>
      <rect x="545.21" y="512.72" class="st0" width="58.89" height="22.79"/>
      <polygon class="st0" points="628.58,449.32 621.79,456.11 621.79,479.24 643.63,479.24 643.63,449.32 "/>
      <polygon class="st0" points="689.58,543.71 621.79,543.71 621.79,499.42 621.79,479.24 689.58,479.24 "/>
      <line class="st0" x1="358.57" y1="351.25" x2="388.01" y2="351.25"/>
      <line class="st0" x1="514.34" y1="339.85" x2="543.78" y2="339.85"/>
      <line class="st0" x1="514.34" y1="367.4" x2="543.78" y2="367.4"/>
      <line class="st0" x1="514.34" y1="381.64" x2="543.78" y2="381.64"/>
      <line class="st0" x1="514.34" y1="403.49" x2="543.78" y2="403.49"/>
      <line class="st0" x1="514.34" y1="419.64" x2="543.78" y2="419.64"/>
      <line class="st0" x1="514.34" y1="435.31" x2="543.78" y2="435.31"/>
      <line class="st0" x1="358.57" y1="373.57" x2="388.01" y2="373.57"/>
      <line class="st0" x1="358.57" y1="385.44" x2="388.01" y2="385.44"/>
      <line class="st0" x1="358.57" y1="409.66" x2="388.01" y2="409.66"/>
      <line class="st0" x1="358.57" y1="431.99" x2="388.01" y2="431.99"/>
      <line class="st0" x1="358.57" y1="449.56" x2="388.01" y2="449.56"/>
      <line class="st0" x1="399.88" y1="449.56" x2="446.9" y2="449.56"/>
      <line class="st0" x1="399.88" y1="361.22" x2="446.9" y2="361.22"/>
      <line class="st0" x1="399.88" y1="383.55" x2="446.9" y2="383.55"/>
      <line class="st0" x1="399.88" y1="404.92" x2="446.9" y2="404.92"/>
      <line class="st0" x1="399.88" y1="426.76" x2="446.9" y2="426.76"/>
      <rect x="455.45" y="337" class="st0" width="47.02" height="112.55"/>
      <line class="st2" x1="455.45" y1="449.56" x2="502.47" y2="449.56"/>
      <line class="st0" x1="455.45" y1="361.22" x2="502.47" y2="361.22"/>
      <line class="st0" x1="455.45" y1="383.55" x2="502.47" y2="383.55"/>
      <line class="st0" x1="455.45" y1="404.92" x2="502.47" y2="404.92"/>
      <line class="st0" x1="455.45" y1="426.76" x2="502.47" y2="426.76"/>
      <line class="st0" x1="388.01" y1="337" x2="514.34" y2="337"/>
      <line class="st2" x1="479.19" y1="512.72" x2="511.96" y2="512.72"/>
      <line class="st0" x1="495.34" y1="512.72" x2="495.34" y2="535.52"/>
      <line class="st0" x1="557.08" y1="461.43" x2="603.15" y2="461.43"/>
      <line class="st0" x1="577.5" y1="434.36" x2="577.5" y2="491.83"/>
      <line class="st0" x1="628.79" y1="303.29" x2="685.78" y2="303.29"/>
      <line class="st0" x1="628.79" y1="323.23" x2="685.78" y2="323.23"/>
      <line class="st0" x1="628.79" y1="366.45" x2="685.78" y2="366.45"/>
      <line class="st0" x1="628.79" y1="386.4" x2="685.78" y2="386.4"/>
      <line class="st0" x1="703.24" y1="424.51" x2="789.79" y2="424.51"/>
      <line class="st2" x1="729.59" y1="467.25" x2="789.79" y2="467.25"/>
      <line class="st2" x1="728.11" y1="509.28" x2="789.79" y2="509.28"/>
      <polygon class="st0" points="610.27,434.36 557.08,434.36 557.08,492.3 603.86,492.3 603.86,449.8 610.27,443.38 "/>
      <line class="st0" x1="528.11" y1="323.23" x2="577.5" y2="323.23"/>
      <polygon class="st0" points="585.36,362.17 585.36,323.23 559.93,323.23 559.93,375.47 568.57,375.47 568.57,362.17 "/>
      <polyline class="st2" points="622.5,500.14 659.9,500.14 659.9,479.12 "/>
      <polyline class="st0" points="689.11,510.11 667.02,510.11 667.02,543.95 "/>
      <polyline class="st0" points="654.2,500.49 654.2,522.22 622.14,522.22 "/>
      <line class="st0" x1="667.74" y1="526.14" x2="689.46" y2="526.14"/>
      <line class="st0" x1="654.2" y1="516.52" x2="654.2" y2="532.55"/>
      <polygon class="st0" points="684.94,449.32 643.52,449.32 643.52,456.44 686.73,456.44 686.73,451.11 "/>
      <line class="st0" x1="727.93" y1="402.18" x2="703" y2="402.18"/>
      <line class="st0" x1="790.26" y1="503.34" x2="823.39" y2="503.34"/>
      <line class="st0" x1="790.26" y1="527.92" x2="823.39" y2="527.92"/>
      <line class="st0" x1="812.35" y1="470.57" x2="812.35" y2="503.34"/>
      <line class="st2" x1="835.85" y1="502.99" x2="855.48" y2="502.99"/>
      <line class="st2" x1="835.85" y1="533.62" x2="855.48" y2="533.62"/>
      <line class="st2" x1="835.85" y1="554.28" x2="855.48" y2="554.28"/>
      <line class="st2" x1="835.85" y1="573.51" x2="855.98" y2="573.51"/>
      <polygon class="st0" points="809.74,566.15 809.74,551.19 783.73,551.19 783.73,615.66 815.43,615.66 815.43,566.15 "/>
      <polygon class="st0" points="703.24,305.42 703.24,342.7 723.3,342.7 723.3,363.48 910.53,363.48 910.53,305.42 "/>
      <line class="st0" x1="887.5" y1="305.3" x2="887.5" y2="363.36"/>
      <line class="st0" x1="870.4" y1="305.3" x2="870.4" y2="363.36"/>
      <line class="st0" x1="853.31" y1="305.3" x2="853.31" y2="363.36"/>
      <line class="st2" x1="910.65" y1="320.62" x2="852.95" y2="320.62"/>
      <polygon class="st0" points="847.61,220.65 847.61,232.05 828.85,250.81 809.14,250.81 788.6,250.81 769.84,232.05 769.84,220.65  703.24,220.65 703.24,305.07 910.3,305.07 910.3,220.65 "/>
      <polyline class="st2" points="750.84,219.7 750.84,233.95 744.67,240.12 702.88,240.12 "/>
      <polyline class="st0" points="769.84,232.05 757.49,244.39 761.05,247.96 749.66,259.35 749.66,273.36 702.88,273.36 "/>
      <polyline class="st2" points="780.77,243.44 768.65,255.55 768.65,270.99 764.14,270.99 764.14,305.66 "/>
      <line class="st2" x1="809.14" y1="250.81" x2="809.14" y2="304.71"/>
      <polyline class="st2" points="867.55,219.7 867.55,233.95 873.73,240.12 910.42,240.12 "/>
      <polyline class="st2" points="848.56,232.05 860.91,244.39 857.34,247.96 868.74,259.35 868.74,273.36 910.42,273.36 "/>
      <polyline class="st2" points="837.63,243.44 849.75,255.55 849.75,270.99 854.26,270.99 854.26,305.66 "/>
      <line class="st2" x1="809.26" y1="250.81" x2="809.26" y2="304.71"/>
      <polygon class="st0" points="847.61,202.84 847.61,191.44 828.85,172.68 809.14,172.68 788.6,172.68 769.84,191.44 769.84,202.84  703.24,202.84 703.24,118.42 910.3,118.42 910.3,202.84 "/>
      <polyline class="st0" points="750.84,201.84 750.84,188.95 744.67,183.37 702.88,183.37 "/>
      <polyline class="st0" points="769.84,191.44 757.49,179.09 761.05,175.53 749.66,164.13 749.66,150.12 702.88,150.12 "/>
      <polyline class="st2" points="780.77,180.04 768.65,167.93 768.65,152.5 764.14,152.5 764.14,117.83 "/>
      <line class="st2" x1="809.14" y1="172.68" x2="809.14" y2="118.78"/>
      <polyline class="st2" points="867.55,203.79 867.55,189.54 873.73,183.37 910.42,183.37 "/>
      <polyline class="st2" points="848.56,191.44 860.91,179.09 857.34,175.53 868.74,164.13 868.74,150.12 910.42,150.12 "/>
      <polyline class="st2" points="837.63,180.04 849.75,167.93 849.75,152.5 854.26,152.5 854.26,117.83 "/>
      <line class="st2" x1="809.26" y1="172.68" x2="809.26" y2="118.78"/>
      <polygon class="st0" points="522.77,220.65 522.77,232.05 504.01,250.81 484.3,250.81 463.76,250.81 445,232.05 445,220.65  378.39,220.65 378.39,305.07 585.46,305.07 585.46,220.65 "/>
      <polyline class="st2" points="426,219.7 426,233.95 419.83,240.12 378.04,240.12 "/>
      <polyline class="st2" points="445,232.05 432.65,244.39 436.21,247.96 424.82,259.35 424.82,273.36 378.04,273.36 "/>
      <polyline class="st2" points="455.92,243.44 443.81,255.55 443.81,270.99 439.3,270.99 439.3,305.66 "/>
      <line class="st2" x1="484.3" y1="250.81" x2="484.3" y2="304.71"/>
      <polyline class="st2" points="542.71,219.7 542.71,233.95 548.89,240.12 585.58,240.12 "/>
      <polyline class="st2" points="523.72,232.05 536.06,244.39 532.5,247.96 543.9,259.35 543.9,273.36 585.58,273.36 "/>
      <polyline class="st2" points="512.79,243.44 524.9,255.55 524.9,270.99 529.42,270.99 529.42,305.66 "/>
      <line class="st2" x1="484.42" y1="250.81" x2="484.42" y2="304.71"/>
      <polygon class="st0" points="522.77,202.84 522.77,191.44 504.01,172.68 484.3,172.68 463.76,172.68 445,191.44 445,202.84  378.39,202.84 378.39,118.42 585.46,118.42 585.46,202.84 "/>
      <polyline class="st2" points="426,203.79 426,189.54 419.83,183.37 378.04,183.37 "/>
      <polyline class="st2" points="445,191.44 432.65,179.09 436.21,175.53 424.82,164.13 424.82,150.12 378.04,150.12 "/>
      <polyline class="st2" points="455.92,180.04 443.81,167.93 443.81,152.5 439.3,152.5 439.3,117.83 "/>
      <line class="st2" x1="484.3" y1="172.68" x2="484.3" y2="118.78"/>
      <polyline class="st2" points="542.71,203.79 542.71,189.54 548.89,183.37 585.58,183.37 "/>
      <polyline class="st2" points="523.72,191.44 536.06,179.09 532.5,175.53 543.9,164.13 543.9,150.12 585.58,150.12 "/>
      <polyline class="st2" points="512.79,180.04 524.9,167.93 524.9,152.5 529.42,152.5 529.42,117.83 "/>
      <line class="st2" x1="484.42" y1="172.68" x2="484.42" y2="118.78"/>
      <line class="st0" x1="645.3" y1="258.29" x2="645.3" y2="219.82"/>
      <line class="st0" x1="584.74" y1="234.78" x2="610.03" y2="234.78"/>
      <line class="st0" x1="584.74" y1="188.47" x2="610.03" y2="188.47"/>
      <line class="st0" x1="584.74" y1="174.23" x2="610.03" y2="174.23"/>
      <line class="st0" x1="584.74" y1="136.47" x2="610.03" y2="136.47"/>
      <line class="st0" x1="584.74" y1="261.49" x2="610.03" y2="261.49"/>
      <line class="st0" x1="584.74" y1="282.51" x2="610.03" y2="282.51"/>
      <rect x="628.32" y="169.83" class="st0" width="24.93" height="33.01"/>
      <rect x="659.9" y="130.65" class="st0" width="43.46" height="39.18"/>
      <line class="st0" x1="680.32" y1="129.94" x2="680.32" y2="169.36"/>
      <line class="st0" x1="658.95" y1="149.17" x2="679.61" y2="149.17"/>
      <line class="st0" x1="680.56" y1="154.4" x2="702.64" y2="154.4"/>
      <line class="st0" x1="647.55" y1="169.83" x2="664.41" y2="169.83"/>
      <line class="st0" x1="671.77" y1="190.97" x2="671.77" y2="169.83"/>
      <polygon class="st0" points="639.57,118.3 628.32,129.55 628.32,202.84 653.25,202.84 653.25,188.35 671.77,188.35 671.77,202.84  703.36,202.84 703.36,118.3 "/>
      <rect x="928.11" y="204.15" class="st0" width="26.36" height="23.86"/>
      <rect x="928.11" y="183.49" class="st0" width="37.76" height="20.66"/>
      <rect x="928.11" y="245.7" class="st0" width="37.76" height="61.98"/>
      <rect x="928.11" y="307.44" class="st0" width="65.3" height="33.96"/>
      <rect x="928.11" y="369.18" class="st0" width="65.3" height="33.95"/>
      <rect x="928.11" y="402.9" class="st0" width="65.3" height="51.53"/>
      <rect x="928.11" y="471.76" class="st0" width="65.3" height="56.51"/>
      <polygon class="st0" points="1014.44,528.4 928.11,528.4 928.11,620.17 1006.22,620.17 1006.22,584.91 1014.44,584.91 "/>
      <rect x="977.97" y="620.29" class="st0" width="27.9" height="25.17"/>
      <rect x="993.29" y="471.76" class="st1" width="21.13" height="56.51"/>
      <rect x="1014.3" y="471.76" class="st0" width="25.05" height="38.7"/>
      <rect x="928.11" y="341.16" class="st0" width="21.61" height="28.26"/>
      <rect x="966.1" y="245.7" class="st0" width="27.31" height="61.98"/>
      <rect x="993.17" y="245.7" class="st0" width="31.1" height="27.78"/>
      <rect x="928.11" y="147.51" class="st0" width="73.73" height="35.97"/>
      <rect x="965.86" y="183.49" class="st0" width="35.97" height="20.66"/>
      <rect x="945.56" y="159.27" class="st0" width="19.95" height="24.22"/>
      <rect x="965.51" y="159.27" class="st0" width="19.95" height="24.22"/>
      <rect x="954.46" y="204.15" class="st0" width="26.36" height="23.86"/>
      <rect x="980.82" y="204.15" class="st0" width="21.02" height="23.86"/>
      <line class="st0" x1="905.67" y1="183.49" x2="977.97" y2="183.49"/>

      <g>
       <path class="st0" d="M1039.12,147.51v80.73h50.76c4.6-17.23,20.31-29.92,39-29.92c18.68,0,34.39,12.69,38.99,29.92h50.29v-80.73 	H1039.12z"/>
       <polyline class="st0" points="1080.56,228.01 1080.56,218.39 1071.65,209.49 1039.24,209.49 	"/>
       <polyline class="st0" points="1095.87,215.54 1085.18,204.86 1088.39,201.65 1077.88,191.14 1077.88,177.79 1038.52,177.79 	"/>
       <polyline class="st0" points="1107.27,203.79 1095.16,191.68 1095.16,184.56 1089.99,179.39 1089.99,147.87 	"/>
       <line class="st0" x1="1128.64" y1="197.38" x2="1128.64" y2="147.87"/>
       <polyline class="st0" points="1176.72,228.01 1176.72,218.39 1185.63,209.49 1218.04,209.49 	"/>
       <polyline class="st0" points="1161.41,215.54 1172.09,204.86 1168.89,201.65 1179.39,191.14 1179.39,177.79 1218.75,177.79 	"/>
       <polyline class="st0" points="1150.01,203.79 1162.12,191.68 1162.12,184.56 1167.28,179.39 1167.28,147.87 	"/>
       <line class="st0" x1="1128.64" y1="197.38" x2="1128.64" y2="147.87"/>
      </g>
      <g>
       <path class="st0" d="M1039.12,326.55v-80.73h50.76c4.6,17.23,20.31,29.92,39,29.92c18.68,0,34.39-12.69,38.99-29.92h50.29v80.73 	H1039.12z"/>
       <polyline class="st0" points="1080.56,246.06 1080.56,255.67 1071.65,264.58 1039.24,264.58 	"/>
       <polyline class="st0" points="1095.87,258.52 1085.18,269.21 1088.39,272.41 1077.88,282.92 1077.88,296.28 1038.52,296.28 	"/>
       <polyline class="st0" points="1107.27,270.28 1095.16,282.39 1095.16,289.51 1089.99,294.67 1089.99,326.2 	"/>
       <line class="st0" x1="1128.64" y1="276.69" x2="1128.64" y2="326.2"/>
       <polyline class="st0" points="1176.72,246.06 1176.72,255.67 1185.63,264.58 1218.04,264.58 	"/>
       <polyline class="st0" points="1161.41,258.52 1172.09,269.21 1168.89,272.41 1179.39,282.92 1179.39,296.28 1218.75,296.28 	"/>
       <polyline class="st0" points="1150.01,270.28 1162.12,282.39 1162.12,289.51 1167.28,294.67 1167.28,326.2 	"/>
       <line class="st0" x1="1128.64" y1="276.69" x2="1128.64" y2="326.2"/>
      </g>
      <path class="st0" d="M1138.83,240.74c-1.12,4.45-5.13,7.75-9.92,7.75c-4.9,0-8.99-3.44-10-8.04l-6.09,2.92 c2.11,6.78,8.43,11.7,15.9,11.7c7.56,0,13.93-5.04,15.96-11.94L1138.83,240.74z"/>
      <path class="st0" d="M1138.83,233.24c-1.12-4.45-5.13-7.75-9.92-7.75c-4.9,0-8.99,3.44-10,8.04l-6.09-2.92 c2.11-6.78,8.43-11.7,15.9-11.7c7.56,0,13.93,5.04,15.96,11.93L1138.83,233.24z"/>
      <path class="st0" d="M818.26,216.52c-1.12,4.45-5.13,7.75-9.92,7.75c-4.9,0-8.99-3.44-10-8.04l-6.09,2.92 c2.11,6.78,8.43,11.7,15.9,11.7c7.56,0,13.93-5.04,15.96-11.94L818.26,216.52z"/>
      <path class="st0" d="M818.26,209.02c-1.12-4.45-5.13-7.75-9.92-7.75c-4.9,0-8.99,3.44-10,8.04l-6.09-2.92 c2.11-6.78,8.43-11.7,15.9-11.7c7.56,0,13.93,5.04,15.96,11.93L818.26,209.02z"/>
      <path class="st0" d="M493.9,216.52c-1.12,4.45-5.13,7.75-9.92,7.75c-4.9,0-8.99-3.44-10-8.04l-6.09,2.92 c2.11,6.78,8.43,11.7,15.9,11.7c7.56,0,13.93-5.04,15.96-11.94L493.9,216.52z"/>
      <path class="st0" d="M493.9,209.02c-1.12-4.45-5.13-7.75-9.92-7.75c-4.9,0-8.99,3.44-10,8.04l-6.09-2.92 c2.11-6.78,8.43-11.7,15.9-11.7c7.56,0,13.93,5.04,15.96,11.93L493.9,209.02z"/>
      <g>
        <g>
          <path class="st0" d="M1321.22,147.51v80.73h50.76c4.6-17.23,20.31-29.92,38.99-29.92c18.68,0,34.39,12.69,39,29.92h50.29v-80.73 		H1321.22z"/>
         	<polyline class="st0" points="1362.65,228.01 1362.65,218.39 1353.75,209.49 1321.34,209.49 		"/>
         	<polyline class="st0" points="1377.97,215.54 1367.28,204.86 1370.49,201.65 1359.98,191.14 1359.98,177.79 1320.62,177.79 		"/>
         	<polyline class="st0" points="1389.37,203.79 1377.26,191.68 1377.26,184.56 1372.09,179.39 1372.09,147.87 		"/>
         	<line class="st0" x1="1410.74" y1="197.38" x2="1410.74" y2="147.87"/>
         	<polyline class="st0" points="1458.82,228.01 1458.82,218.39 1467.73,209.49 1500.14,209.49 		"/>
         	<polyline class="st0" points="1443.51,215.54 1454.19,204.86 1450.99,201.65 1461.49,191.14 1461.49,177.79 1500.85,177.79 		"/>
         	<polyline class="st0" points="1432.11,203.79 1444.22,191.68 1444.22,184.56 1449.38,179.39 1449.38,147.87 		"/>
         	<line class="st0" x1="1410.74" y1="197.38" x2="1410.74" y2="147.87"/>
        </g>
        <g>
          <path class="st0" d="M1321.22,326.55v-80.73h50.76c4.6,17.23,20.31,29.92,38.99,29.92c18.68,0,34.39-12.69,39-29.92h50.29v80.73 		H1321.22z"/>
         	<polyline class="st0" points="1362.65,246.06 1362.65,255.67 1353.75,264.58 1321.34,264.58 		"/>
         	<polyline class="st0" points="1377.97,258.52 1367.28,269.21 1370.49,272.41 1359.98,282.92 1359.98,296.28 1320.62,296.28 		"/>
         	<polyline class="st0" points="1389.37,270.28 1377.26,282.39 1377.26,289.51 1372.09,294.67 1372.09,326.2 		"/>
         	<line class="st0" x1="1410.74" y1="276.69" x2="1410.74" y2="326.2"/>
         	<polyline class="st0" points="1458.82,246.06 1458.82,255.67 1467.73,264.58 1500.14,264.58 		"/>
         	<polyline class="st0" points="1443.51,258.52 1454.19,269.21 1450.99,272.41 1461.49,282.92 1461.49,296.28 1500.85,296.28 		"/>
         	<polyline class="st0" points="1432.11,270.28 1444.22,282.39 1444.22,289.51 1449.38,294.67 1449.38,326.2 		"/>
         	<line class="st0" x1="1410.74" y1="276.69" x2="1410.74" y2="326.2"/>
        </g>
        <path class="st0" d="M1420.93,240.74c-1.12,4.45-5.13,7.75-9.92,7.75c-4.9,0-8.99-3.44-10-8.04l-6.09,2.92 	c2.11,6.78,8.43,11.7,15.9,11.7c7.56,0,13.93-5.04,15.96-11.94L1420.93,240.74z"/>
        <path class="st0" d="M1420.93,233.24c-1.12-4.45-5.13-7.75-9.92-7.75c-4.9,0-8.99,3.44-10,8.04l-6.09-2.92 	c2.11-6.78,8.43-11.7,15.9-11.7c7.56,0,13.93,5.04,15.96,11.93L1420.93,233.24z"/>
      </g>
      <path class="st0" d="M1039.12,373.57v80.91h50.76c4.6-17.27,20.31-29.98,39-29.98c18.68,0,34.39,12.72,38.99,29.98h50.29v-80.91 H1039.12z"/>
      <polyline class="st0" points="1080.56,453.48 1080.56,444.23 1071.65,435.68 1039.24,435.68 "/>
      <polyline class="st0" points="1095.87,441.74 1085.18,431.04 1088.39,427.82 1077.88,417.29 1077.88,403.91 1038.52,403.91 "/>
      <polyline class="st0" points="1107.27,429.97 1095.16,417.83 1095.16,410.69 1089.99,405.52 1089.99,373.93 "/>
      <line class="st0" x1="1128.64" y1="423.54" x2="1128.64" y2="373.93"/>
      <polyline class="st0" points="1176.72,453.48 1176.72,444.23 1185.63,435.68 1218.04,435.68 "/>
      <polyline class="st0" points="1161.41,441.74 1172.09,431.04 1168.89,427.82 1179.39,417.29 1179.39,403.91 1218.75,403.91 "/>
      <polyline class="st0" points="1150.01,429.97 1162.12,417.83 1162.12,410.69 1167.28,405.52 1167.28,373.93 "/>
      <line class="st0" x1="1128.64" y1="423.54" x2="1128.64" y2="373.93"/>
      <path class="st0" d="M1039.12,552.61v-80.82h50.76c4.6,17.25,20.31,29.95,39,29.95c18.68,0,34.39-12.71,38.99-29.95h50.29v80.82 H1039.12z"/>
      <polyline class="st0" points="1080.56,472.76 1080.56,482 1071.65,490.57 1039.24,490.57 "/>
      <polyline class="st0" points="1095.87,484.51 1085.18,495.2 1088.39,498.41 1077.88,508.93 1077.88,522.3 1038.52,522.3 "/>
      <polyline class="st0" points="1107.27,496.27 1095.16,508.4 1095.16,515.53 1089.99,520.7 1089.99,552.26 "/>
      <line class="st0" x1="1128.64" y1="502.69" x2="1128.64" y2="552.26"/>
      <polyline class="st0" points="1176.72,472.73 1176.72,481.99 1185.63,490.57 1218.04,490.57 "/>
      <polyline class="st0" points="1161.41,484.51 1172.09,495.2 1168.89,498.41 1179.39,508.93 1179.39,522.3 1218.75,522.3 "/>
      <polyline class="st0" points="1150.01,496.27 1162.12,508.4 1162.12,515.53 1167.28,520.7 1167.28,552.26 "/>
      <line class="st0" x1="1128.64" y1="502.69" x2="1128.64" y2="552.26"/>
      <path class="st0" d="M1138.83,466.8c-1.12,4.45-5.13,7.75-9.92,7.75c-4.9,0-8.99-3.44-10-8.04l-6.09,2.93 c2.11,6.78,8.43,11.7,15.9,11.7c7.56,0,13.93-5.04,15.96-11.94L1138.83,466.8z"/>
      <path class="st0" d="M1138.83,459.3c-1.12-4.45-5.13-7.75-9.92-7.75c-4.9,0-8.99,3.45-10,8.04l-6.09-2.93 c2.11-6.78,8.43-11.71,15.9-11.71c7.56,0,13.93,5.04,15.96,11.94L1138.83,459.3z"/>
      <path class="st0" d="M1321.22,373.57v80.91h50.76c4.6-17.27,20.31-29.98,38.99-29.98c18.68,0,34.39,12.72,39,29.98h50.29v-80.91 H1321.22z"/>
      <polyline class="st0" points="1362.65,453.51 1362.65,444.25 1353.75,435.68 1321.34,435.68 "/>
      <polyline class="st0" points="1377.97,441.74 1367.28,431.04 1370.49,427.82 1359.98,417.29 1359.98,403.91 1320.62,403.91 "/>
      <polyline class="st0" points="1389.37,429.97 1377.26,417.83 1377.26,410.69 1372.09,405.52 1372.09,373.93 "/>
      <line class="st0" x1="1410.74" y1="423.54" x2="1410.74" y2="373.93"/>
      <polyline class="st0" points="1458.82,453.48 1458.82,444.23 1467.73,435.68 1500.14,435.68 "/>
      <polyline class="st0" points="1443.51,441.74 1454.19,431.04 1450.99,427.82 1461.49,417.29 1461.49,403.91 1500.85,403.91 "/>
      <polyline class="st0" points="1432.11,429.97 1444.22,417.83 1444.22,410.69 1449.38,405.52 1449.38,373.93 "/>
      <line class="st0" x1="1410.74" y1="423.54" x2="1410.74" y2="373.93"/>
      <path class="st0" d="M1321.22,552.61v-80.73h50.76c4.6,17.23,20.31,29.92,38.99,29.92c18.68,0,34.39-12.69,39-29.92h50.29v80.73 H1321.22z"/>
      <polyline class="st0" points="1362.65,472.85 1362.65,482.08 1353.75,490.63 1321.34,490.63 "/>
      <polyline class="st0" points="1377.97,484.58 1367.28,495.27 1370.49,498.47 1359.98,508.98 1359.98,522.34 1320.62,522.34 "/>
      <polyline class="st0" points="1389.37,496.33 1377.26,508.44 1377.26,515.57 1372.09,520.73 1372.09,552.26 "/>
      <line class="st0" x1="1410.74" y1="502.75" x2="1410.74" y2="552.26"/>
      <polyline class="st0" points="1458.82,472.85 1458.82,482.08 1467.73,490.63 1500.14,490.63 "/>
      <polyline class="st0" points="1443.51,484.58 1454.19,495.27 1450.99,498.47 1461.49,508.98 1461.49,522.34 1500.85,522.34 "/>
      <polyline class="st0" points="1432.11,496.33 1444.22,508.44 1444.22,515.57 1449.38,520.73 1449.38,552.26 "/>
      <line class="st0" x1="1410.74" y1="502.75" x2="1410.74" y2="552.26"/>
      <path class="st0" d="M1420.93,466.8c-1.12,4.45-5.13,7.75-9.92,7.75c-4.9,0-8.99-3.44-10-8.04l-6.09,2.93 c2.11,6.78,8.43,11.7,15.9,11.7c7.56,0,13.93-5.04,15.96-11.94L1420.93,466.8z"/>
      <path class="st0" d="M1420.93,459.3c-1.12-4.45-5.13-7.75-9.92-7.75c-4.9,0-8.99,3.45-10,8.04l-6.09-2.93 c2.11-6.78,8.43-11.71,15.9-11.71c7.56,0,13.93,5.04,15.96,11.94L1420.93,459.3z"/>
      <rect x="1267.91" y="190.25" class="st0" width="53.43" height="37.93"/>
      <rect x="1283.58" y="245.82" class="st0" width="37.76" height="37.76"/>
      <rect x="1218.04" y="245.82" class="st0" width="47.69" height="37.76"/>
      <line class="st0" x1="1305.66" y1="190.97" x2="1305.66" y2="228.01"/>
      <line class="st0" x1="1237.28" y1="282.86" x2="1237.28" y2="245.93"/>
      <line class="st0" x1="1283.58" y1="268.26" x2="1320.98" y2="268.26"/>
      <rect x="1283.58" y="416.79" class="st0" width="37.76" height="37.75"/>
      <line class="st0" x1="1283.58" y1="432.1" x2="1320.98" y2="432.1"/>
      <line class="st0" x1="1237.63" y1="269.68" x2="1265.06" y2="269.68"/>
      <line class="st0" x1="1258.65" y1="269.33" x2="1258.65" y2="245.82"/>
      <rect x="1218.04" y="416.79" class="st0" width="47.73" height="37.75"/>
      <line class="st0" x1="1237.28" y1="417.5" x2="1237.28" y2="455.97"/>
      <line class="st0" x1="1237.63" y1="430.68" x2="1265.06" y2="430.68"/>
      <line class="st0" x1="1258.65" y1="431.04" x2="1258.65" y2="454.54"/>
      <polygon class="st0" points="1218.04,190.25 1218.04,228.23 1236.21,228.23 1236.21,202.08 1247.6,202.08 1247.6,228.23  1267.91,228.23 1267.91,190.25 "/>
      <line class="st2" x1="1217.69" y1="212.1" x2="1235.73" y2="212.1"/>
      <line class="st2" x1="1247.84" y1="212.1" x2="1267.55" y2="212.1"/>
      <line class="st0" x1="1242.14" y1="200.94" x2="1242.14" y2="190.49"/>
      <rect x="1267.91" y="471.85" class="st0" width="53.43" height="37.54"/>
      <line class="st0" x1="1305.66" y1="508.68" x2="1305.66" y2="471.64"/>
      <polygon class="st0" points="1218.04,509.4 1218.04,471.85 1236.21,471.85 1236.21,497.71 1247.6,497.71 1247.6,471.85  1267.91,471.85 1267.91,509.4 "/>
      <line class="st2" x1="1217.69" y1="487.55" x2="1235.73" y2="487.55"/>
      <line class="st2" x1="1247.84" y1="487.55" x2="1267.55" y2="487.55"/>
      <line class="st0" x1="1242.14" y1="498.71" x2="1242.14" y2="509.16"/>
      <line class="st0" x1="1283.57" y1="272.8" x2="1283.57" y2="430.94"/>
      <line class="st0" x1="1265.75" y1="272.8" x2="1265.75" y2="436.17"/>
      <line class="st0" x1="927.99" y1="427" x2="992.58" y2="427"/>
      <line class="st0" x1="972.63" y1="427.71" x2="972.63" y2="454.78"/>
      <line class="st0" x1="948.17" y1="402.78" x2="948.17" y2="427.95"/>
      <line class="st0" x1="967.88" y1="402.78" x2="967.88" y2="427.95"/>
      <line class="st0" x1="966.93" y1="471.64" x2="966.93" y2="527.92"/>
      <polyline class="st0" points="992.29,485.89 980.11,485.89 980.11,528.99 "/>
      <line class="st0" x1="980.11" y1="492.3" x2="966.58" y2="492.3"/>
      <line class="st0" x1="980.11" y1="507.62" x2="992.93" y2="507.62"/>
      <polyline class="st0" points="956.25,528.27 956.25,570.3 928.98,570.3 "/>
      <polygon class="st0" points="928.11,620.29 928.11,633.35 944.13,633.35 944.13,648.31 928.11,648.31 928.11,661.85 978.09,661.85  978.09,620.29 "/>
      <line class="st0" x1="944.49" y1="640.47" x2="977.97" y2="640.47"/>
      <polygon class="st0" points="855.8,515.1 855.8,587.4 885.01,587.4 885.01,615.54 903.53,615.54 903.53,515.1 "/>
      <polygon class="st0" points="1076.76,585.03 1005.76,585.03 1005.76,645.46 977.97,645.46 977.97,661.84 1076.64,661.84  1076.64,649.02 1076.76,649.02 "/>
      <rect x="1076.64" y="597.02" class="st0" width="86.2" height="59.84"/>
      <rect x="931.79" y="679.65" class="st0" width="49.63" height="114.04"/>
      <polygon class="st0" points="910.18,679.64 910.18,633.35 791.69,633.35 791.69,738.22 931.79,738.22 931.79,679.64 "/>
      <polygon class="st0" points="707.27,551.07 707.27,562.82 699.79,562.82 699.79,632.99 773.88,632.99 773.88,615.54 783.85,615.54  783.85,551.07 "/>
      <rect x="699.79" y="562.82" class="st2" width="19.59" height="19.59"/>
      <line class="st0" x1="732.92" y1="551.07" x2="732.92" y2="632.99"/>
      <line class="st2" x1="773.88" y1="620.17" x2="773.88" y2="551.07"/>
      <polyline class="st0" points="733.91,610.2 751.44,610.2 751.44,633.35 "/>
      <line class="st0" x1="733.27" y1="590.96" x2="774.23" y2="590.96"/>
      <line class="st0" x1="733.27" y1="571.73" x2="783.14" y2="571.73"/>
      <line class="st2" x1="715.46" y1="562.82" x2="732.92" y2="562.82"/>
      <line class="st2" x1="774.23" y1="585.98" x2="783.14" y2="585.98"/>
      <line class="st0" x1="748.94" y1="551.43" x2="748.94" y2="571.37"/>
      <rect x="709.05" y="632.99" class="st0" width="22.08" height="56.28"/>
      <rect x="731.13" y="632.99" class="st0" width="42.74" height="56.28"/>
      <line class="st0" x1="730.42" y1="662.91" x2="774.23" y2="662.91"/>
      <line class="st0" x1="751.44" y1="626.94" x2="751.44" y2="662.91"/>
      <rect x="556.6" y="561.16" class="st0" width="125.85" height="31.34"/>
      <rect x="534.97" y="561.16" class="st0" width="21.56" height="22.46"/>
      <rect x="513.6" y="561.16" class="st0" width="21.56" height="22.46"/>
      <rect x="492.22" y="561.16" class="st0" width="21.56" height="22.46"/>
      <rect x="596.97" y="610.08" class="st0" width="85.48" height="78.36"/>
      <rect x="568.95" y="610.08" class="st0" width="28.02" height="23.51"/>
      <rect x="568.95" y="633.59" class="st0" width="28.02" height="23.51"/>
      <rect x="568.95" y="657.09" class="st0" width="28.02" height="23.51"/>
      <rect x="568.95" y="680.6" class="st0" width="28.02" height="23.51"/>
      <rect x="420.3" y="592.03" class="st0" width="28.02" height="23.51"/>
      <rect x="420.3" y="556.89" class="st0" width="47.49" height="20.66"/>
      <rect x="420.3" y="577.55" class="st0" width="20.18" height="14.48"/>
      <rect x="493.69" y="620.13" transform="matrix(1 -2.034928e-03 2.034928e-03 1 -1.2886 1.0279)" class="st0" width="21.57" height="27.24"/>
      <rect x="515.9" y="620.13" transform="matrix(1 -2.034928e-03 2.034928e-03 1 -1.2886 1.0731)" class="st0" width="21.57" height="27.24"/>
      <rect x="489.4" y="722.51" class="st0" width="22.2" height="38.23"/>
      <rect x="511.84" y="722.51" class="st0" width="20.06" height="38.23"/>
      <rect x="420.3" y="615.54" class="st0" width="28.02" height="23.51"/>
      <rect x="420.3" y="639.05" class="st0" width="28.02" height="23.51"/>
      <rect x="420.3" y="662.56" class="st0" width="28.02" height="161.02"/>
      <line class="st0" x1="622.62" y1="560.69" x2="622.62" y2="591.56"/>
      <line class="st0" x1="637.34" y1="560.69" x2="637.34" y2="591.56"/>
      <line class="st0" x1="621.2" y1="688.91" x2="621.2" y2="610.08"/>
      <line class="st0" x1="596.02" y1="667.07" x2="620.24" y2="667.07"/>
      <line class="st0" x1="621.2" y1="659.47" x2="682.93" y2="659.47"/>
      <line class="st0" x1="377.56" y1="556.89" x2="403.09" y2="556.89"/>
      <line class="st0" x1="467.8" y1="556.89" x2="467.8" y2="561.16"/>
      <line class="st0" x1="587.95" y1="592.51" x2="587.95" y2="609.6"/>
      <rect x="885.01" y="381.17" class="st0" width="25.17" height="26.12"/>
      <line class="st2" x1="994.24" y1="228.01" x2="1050.99" y2="228.01"/>
      <line class="st2" x1="994.24" y1="245.82" x2="1050.99" y2="245.82"/>
      <rect x="1500.27" y="449.24" class="st1" width="23.15" height="55.21"/>
      <line class="st2" x1="983.32" y1="454.43" x2="1052.07" y2="454.43"/>
      <line class="st2" x1="1027.25" y1="679.42" x2="1027.25" y2="661.84"/>
      <line class="st2" x1="610.27" y1="436.73" x2="610.27" y2="398.74"/>




      <g>
       <line class="st1" x1="358.57" y1="493.37" x2="383.14" y2="493.37"/>
       <line class="st1" x1="358.57" y1="498.89" x2="383.14" y2="498.89"/>
       <line class="st1" x1="358.57" y1="504.41" x2="383.14" y2="504.41"/>
       <line class="st1" x1="358.57" y1="509.93" x2="383.14" y2="509.93"/>
       <line class="st1" x1="358.57" y1="515.45" x2="383.14" y2="515.45"/>
       <line class="st2" x1="370.5" y1="493.37" x2="370.5" y2="516.16"/>
      </g>
      <g>
       <line class="st1" x1="585.58" y1="324.53" x2="610.15" y2="324.53"/>
       <line class="st1" x1="585.58" y1="330.06" x2="610.15" y2="330.06"/>
       <line class="st1" x1="585.58" y1="335.58" x2="610.15" y2="335.58"/>
       <line class="st1" x1="585.58" y1="341.1" x2="610.15" y2="341.1"/>
       <line class="st1" x1="585.58" y1="346.62" x2="610.15" y2="346.62"/>
       <line class="st2" x1="597.51" y1="324.53" x2="597.51" y2="347.33"/>
      </g>
      <g>
       <line class="st1" x1="993.29" y1="489.57" x2="1014.54" y2="489.57"/>
       <line class="st1" x1="993.29" y1="495.09" x2="1014.54" y2="495.09"/>
       <line class="st1" x1="993.29" y1="500.61" x2="1014.54" y2="500.61"/>
       <line class="st1" x1="993.29" y1="506.13" x2="1014.54" y2="506.13"/>
       <line class="st1" x1="993.29" y1="511.65" x2="1014.54" y2="511.65"/>
       <line class="st2" x1="1003.6" y1="489.57" x2="1003.6" y2="512.37"/>
      </g>
      <g>
       <line class="st1" x1="1500.68" y1="466.12" x2="1523.47" y2="466.12"/>
       <line class="st1" x1="1500.68" y1="471.64" x2="1523.47" y2="471.64"/>
       <line class="st1" x1="1500.68" y1="477.16" x2="1523.47" y2="477.16"/>
       <line class="st1" x1="1500.68" y1="482.68" x2="1523.47" y2="482.68"/>
       <line class="st1" x1="1500.68" y1="488.2" x2="1523.47" y2="488.2"/>
       <line class="st2" x1="1511.74" y1="466.12" x2="1511.74" y2="488.92"/>
      </g>
      <line class="st0" x1="358.57" y1="666.42" x2="401.78" y2="666.42"/>
      <line class="st0" x1="358.57" y1="687.79" x2="401.78" y2="687.79"/>
      <polyline class="st0" points="376.61,666.89 376.61,635.55 402.73,635.55 "/>
      <line class="st0" x1="375.66" y1="640.77" x2="359.04" y2="640.77"/>
      <rect x="504.25" y="660.72" class="st0" width="22.08" height="50.58"/>
      <rect x="526.33" y="660.72" class="st0" width="24.79" height="42.74"/>
      <polygon class="st0" points="474.07,660.72 474.07,674.97 465.68,674.97 465.68,711.3 504.25,711.3 504.25,660.72 "/>
      <line class="st0" x1="526.33" y1="682.8" x2="547.35" y2="682.8"/>
      <rect x="465.97" y="725.63" class="st0" width="7.12" height="35.46"/>
      <rect x="476.4" y="603.96" class="st0" width="7.12" height="43.57"/>
      <rect x="545.92" y="603.96" class="st0" width="7.12" height="43.57"/>
      <rect x="493.71" y="600.55" class="st0" width="43.57" height="7.12"/>
      <rect x="465.97" y="778.16" class="st0" width="85.15" height="27.34"/>
      <rect x="493.78" y="805.39" class="st0" width="74.72" height="94.17"/>
      <rect x="493.78" y="899.64" class="st0" width="81.67" height="64.81"/>
      <rect x="589.18" y="899.64" class="st0" width="69.7" height="64.81"/>
      <rect x="589.18" y="850.59" class="st0" width="56.95" height="48.98"/>
      <rect x="472.53" y="829.54" class="st0" width="21.25" height="70.02"/>
      <rect x="543.99" y="725.63" class="st0" width="7.12" height="35.46"/>
      <line class="st0" x1="402.73" y1="574.88" x2="402.73" y2="556.71"/>
      <rect x="657.28" y="705.84" class="st0" width="74.07" height="32.29"/>
      <rect x="678.14" y="751.42" class="st0" width="28.1" height="43.11"/>
      <rect x="657.49" y="751.42" class="st0" width="6.47" height="43.11"/>
      <rect x="724.7" y="751.42" class="st0" width="6.47" height="43.11"/>
      <rect x="748.65" y="705.84" class="st0" width="25.4" height="126.92"/>
      <rect x="657.49" y="812.83" class="st0" width="73.68" height="19.93"/>
      <rect x="701.52" y="832.77" class="st0" width="23.85" height="19.83"/>
      <rect x="738.6" y="832.66" class="st0" width="25.4" height="19.93"/>
      <line class="st2" x1="697.18" y1="738.37" x2="697.18" y2="705.84"/>
      <line class="st2" x1="748.74" y1="727.77" x2="773.9" y2="727.77"/>
      <line class="st2" x1="748.74" y1="748.63" x2="773.65" y2="748.63"/>
      <line class="st2" x1="748.74" y1="769.49" x2="773.73" y2="769.49"/>
      <line class="st2" x1="748.74" y1="790.35" x2="773.82" y2="790.35"/>
      <line class="st2" x1="748.74" y1="811.2" x2="773.73" y2="811.2"/>
      <rect x="614.42" y="705.84" class="st0" width="25.4" height="126.92"/>
      <line class="st2" x1="614.51" y1="727.77" x2="639.69" y2="727.77"/>
      <line class="st2" x1="614.51" y1="748.63" x2="639.44" y2="748.63"/>
      <line class="st2" x1="614.51" y1="769.49" x2="639.32" y2="769.49"/>
      <line class="st2" x1="614.51" y1="790.35" x2="639.57" y2="790.35"/>
      <line class="st2" x1="614.51" y1="811.2" x2="639.57" y2="811.2"/>
      <rect x="996.73" y="679.65" class="st0" width="25.7" height="58.64"/>
      <rect x="1022.61" y="679.65" class="st0" width="51.58" height="46.28"/>
      <rect x="1096" y="679.65" class="st0" width="51.58" height="30.83"/>
      <rect x="1096" y="710.17" class="st0" width="51.58" height="62.12"/>
      <rect x="1022.61" y="772.35" class="st0" width="124.97" height="142.84"/>
      <rect x="924.5" y="793.6" class="st0" width="97.93" height="167.18"/>
      <rect x="1022.61" y="915.27" class="st0" width="124.97" height="45.51"/>
      <rect x="1022.61" y="726" class="st0" width="51.58" height="46.28"/>
      <rect x="727.1" y="305.42" class="st0" width="85.13" height="21.37"/>
      <rect x="723.18" y="337.48" class="st0" width="24.22" height="26"/>
      <rect x="793.35" y="337.48" class="st0" width="15.32" height="26"/>
      <line class="st2" x1="740.75" y1="325.96" x2="740.75" y2="306.01"/>
      <line class="st2" x1="764.62" y1="325.96" x2="764.62" y2="306.01"/>
      <line class="st2" x1="783.14" y1="325.96" x2="783.14" y2="306.01"/>
      <line class="st2" x1="798.45" y1="325.96" x2="798.45" y2="306.01"/>
      <rect x="568.95" y="721.45" class="st0" width="28.02" height="111.34"/>
      <line class="st2" x1="614.37" y1="735.64" x2="614.37" y2="780.54"/>

      <rect x="791.69" y="738.35" class="st0" width="73.36" height="32.43"/>
      <rect x="791.69" y="751.09" class="st0" width="45.16" height="32.83"/>
      <rect x="791.28" y="849.97" class="st0" width="45.58" height="20.47"/>
      <rect x="791.28" y="870.63" class="st0" width="57.16" height="25.88"/>
      <rect x="836.86" y="810.96" class="st0" width="11.59" height="69.72"/>
      <rect x="773.9" y="927.22" class="st0" width="32.83" height="35.15"/>
      <rect x="773.9" y="911.38" class="st0" width="22.4" height="15.84"/>
      <rect x="849.99" y="911.38" class="st0" width="22.01" height="15.84"/>
      <rect x="659.18" y="884.34" class="st0" width="95.79" height="79.95"/>
      <rect x="806.54" y="927.22" class="st0" width="32.83" height="35.15"/>
      <rect x="839.37" y="927.22" class="st0" width="32.63" height="35.15"/>
      <rect x="791.28" y="829.69" class="st0" width="45.58" height="20.47"/>
      <rect x="791.28" y="799.37" class="st0" width="45.58" height="30.51"/>
      <rect x="872.07" y="810.96" class="st0" width="52.43" height="22.4"/>
      <rect x="893.64" y="738.35" class="st0" width="31.67" height="32.43"/>
      <line class="st2" x1="872.01" y1="935.33" x2="872.01" y2="833.74"/>
      <line class="st2" x1="493.48" y1="805.16" x2="493.48" y2="778.23"/>
      <line class="st2" x1="520.13" y1="805.16" x2="520.13" y2="778.16"/>
      <line class="st2" x1="568.8" y1="805.55" x2="596.61" y2="805.55"/>
      <line class="st2" x1="568.8" y1="785.46" x2="596.61" y2="785.46"/>
      <line class="st2" x1="568.8" y1="763.45" x2="596.61" y2="763.45"/>
      <line class="st2" x1="568.8" y1="741.43" x2="596.61" y2="741.43"/>
      <line class="st2" x1="390.35" y1="823.32" x2="436.31" y2="823.32"/>
      <line class="st2" x1="531.33" y1="899.41" x2="531.33" y2="805.55"/>
      <line class="st2" x1="493.48" y1="852.67" x2="568.41" y2="852.67"/>
      <line class="st2" x1="472.23" y1="863.49" x2="493.79" y2="863.49"/>
      <line class="st2" x1="574.98" y1="948.85" x2="588.88" y2="948.85"/>
      <line class="st2" x1="774.28" y1="933.4" x2="754.97" y2="933.4"/>
      <line class="st2" x1="844.2" y1="810.96" x2="889" y2="810.96"/>
      <line class="st2" x1="675.02" y1="831.81" x2="675.02" y2="813.66"/>
      <line class="st2" x1="695.1" y1="831.81" x2="695.1" y2="813.66"/>
      <line class="st2" x1="710.17" y1="831.81" x2="710.17" y2="813.66"/>
      <line class="st2" x1="724.84" y1="831.81" x2="724.84" y2="813.66"/>
      <line class="st2" x1="725.23" y1="844.56" x2="738.35" y2="844.56"/>
      <line class="st2" x1="745.32" y1="885.12" x2="745.32" y2="853.44"/>
      <polyline class="st2" points="763.94,852.26 763.94,862.77 773.91,862.77 773.91,913.37 "/>
      <line class="st2" x1="848.06" y1="789.33" x2="924.15" y2="789.33"/>
      <line class="st2" x1="924.49" y1="788.31" x2="924.49" y2="823.31"/>
      <line class="st2" x1="1052.39" y1="771.94" x2="1103.37" y2="771.94"/>
      <line class="st2" x1="278.82" y1="171.27" x2="278.82" y2="183.27"/>
    </g>

  </g>
</svg>
