<?xml version="1.0" encoding="UTF-8" standalone="no"?>
<svg
   xmlns:svg="http://www.w3.org/2000/svg"
   xmlns="http://www.w3.org/2000/svg"
   viewBox="0 0 400 400"
>
    <defs>
        <style>
          .cls-1{fill:#58595b;}
          .cls-1:hover{fill:#50b4e7;}
          .cls-2{fill:white;stroke:white;stroke-width:5;}
        </style>
    </defs>
    <g class="cls-1">

      <circle
         r="200"
         cy="200"
         cx="200" />
      <path
         class="cls-2"
         d="m 158.188,88.890847 c -1.609,1.126 -2.925,2.89 -2.925,3.92 0,3.32 -13.129,9.795003 -19.888,9.808003 -6.365,0.013 -13.007,3.733 -13.007,7.285 0,0.999 -4.588,4.129 -10.197,6.954 l -10.197,5.136 -0.366,24.858 -0.366,24.859 -5.226,2.205 c -3.436,1.449 -5.227,3.046 -5.227,4.66 0,3.23 -12.91,9.617 -20.726,10.254 -6.432,0.524 -12.168,3.626 -12.168,6.581 0,1.092 -4.563,4.223 -10.527,7.221 l -10.526,5.292 v 26.929 c 0,26.477 0.05,26.961 2.961,28.859 1.628,1.062 16.579,8.695 33.223,16.961 l 30.263,15.03 32.238,-16.113 32.237,-16.113 32.229,16.125 32.23,16.126 64.809,-32.397 64.81,-32.397 v -28.001 -28 l -9.868,-4.75 c -5.428,-2.612 -9.869,-5.515 -9.869,-6.45 0,-3.288 -6.724,-7.154 -12.444,-7.154 -6.255,0 -20.45,-6.897 -20.45,-9.937 0,-6.161 -17.371,-8.534 -23.096,-3.155 -3.617,3.397 -9.799,2.013 -9.799,-2.195 0,-3.403 -4.069,-5.678 -10.235,-5.724 -6.359,-0.047 -21.344,-6.875 -21.344,-9.725 0,-3.278 -5.14,-6.416 -11.46,-6.995 -8.685,-0.797 -21.194,-6.645 -21.7,-10.145 -0.498,-3.447 -5.562,-6.027 -11.877,-6.052 -6.611,-0.026 -19.199,-6.267003 -19.706,-9.771003 -0.809,-5.584 -15.653,-8.3 -21.806,-3.989 m 17.547,2.557 c 4.072,3.146 -0.794,6.149 -9.152,5.649 -7.123,-0.427 -11.173,-3.902 -7.372,-6.325 3.073,-1.959 13.676,-1.525 16.524,0.676 m -20.472,12.425003 c 0,6.633 3.479,9.285 12.181,9.285 8.921,0 12.819,-2.847 12.819,-9.362 0,-5.843003 0.005,-5.845003 5.658,-2.971 5.58,2.837 5.491,2.688 3.051,5.128 -3.565,3.565 -2.973,18.453 0.831,20.861 9.782,6.195 22.039,2.546 22.039,-6.562 0,-6.704 -0.213,-6.611 6.865,-3.001 4.566,2.33 5.088,2.977 3.237,4.013 -3.772,2.111 -3.162,20.227 0.753,22.367 9.671,5.285 22.04,0.607 22.04,-8.335 v -5.086 l 5.386,2.748 c 5.017,2.559 5.243,2.906 3.289,5.064 -3.33,3.68 -2.882,17.438 0.674,20.656 7.311,6.616 22.23,2.451 22.23,-6.207 0,-6.126 0.872,-6.229 10.506,-1.243 l 7.216,3.734 -30.916,15.442 -30.916,15.441 -63.12,-31.565 -63.119,-31.565 8.201,-4.139 8.2,-4.14 v 5.121 c 0,9.311 13.981,13.929 22.708,7.5 3.222,-2.374 4.19,-16.007 1.438,-20.263 -1.093,-1.691 -1.792,-3.241 -1.553,-3.445 1.089,-0.929 8.433,-4.565003 9.315,-4.612003 0.543,-0.029 0.987,2.282003 0.987,5.136003 m 22.369,-0.301 c 0,5.149 -2.813,6.954 -10.835,6.954 -6.78,0 -8.903,-1.71 -8.901,-7.171 l 0.002,-4.013003 h 9.867 9.867 v 4.230003 m -35.44,3.053 c 3.907,2.092 3.035,4.851 -2.065,6.535 -8.425,2.78 -18.769,-1.98 -13.181,-6.065 2.941,-2.151 11.606,-2.418 15.246,-0.47 m 65.692,0.997 c 2.704,2.189 2.754,2.49 0.693,4.2 -3.253,2.7 -14.668,2.396 -17.487,-0.465 -5.189,-5.264 10.576,-8.771 16.794,-3.735 m -61.852,10.799 c -0.038,6.263 -6.185,10.058 -13.695,8.455 -5.711,-1.219 -7.337,-2.91 -7.337,-7.629 v -4.115 h 10.526 c 10.357,0 10.526,0.053 10.506,3.289 m 64.494,1.054 c 0,3.744 -0.654,4.617 -4.741,6.325 -8.445,3.528 -16.311,0.368 -16.311,-6.553 v -4.115 H 200 210.526 v 4.343 m -50.987,0.836 c -5.718,2.582 -6.722,20.365 -1.315,23.32 11.313,6.183 22.039,0.638 22.039,-11.394 0,-12.023 -9.015,-17.211 -20.724,-11.926 m 14.741,2.269 c 8.917,4.063 -3.322,10.084 -13.01,6.4 -1.856,-0.706 -3.375,-2.157 -3.375,-3.224 0,-4.303 9.76,-6.195 16.385,-3.176 m 64.45,-0.244 c 4.308,1.638 4.319,4.443 0.024,6.4 -6.232,2.84 -16.386,0.926 -16.386,-3.088 0,-3.866 9.726,-5.835 16.362,-3.312 m -70.579,34.018 62.23,31.21 0.27,25.297 c 0.149,13.914 -0.117,25.297 -0.59,25.297 -1.898,0 -82.797,-41.124 -82.157,-41.763 2.926,-2.926 -9.653,-9.564 -14.557,-7.682 -3.216,1.234 -17.137,-6.594 -18.026,-10.137 -0.762,-3.038 -5.594,-6.207 -9.462,-6.207 -1.601,0 -1.912,-3.85 -1.912,-23.685 0,-13.026 0.444,-23.652 0.987,-23.612 0.543,0.04 28.991,14.117 63.217,31.282 m 4.109,-24.447 5.372,-1.364 v 4.912 c 0,7.018 -7.464,10.066 -16.362,6.683 -2.833,-1.077 -3.375,-2.114 -3.375,-6.456 v -5.172 l 4.497,1.38 c 3.117,0.956 6.145,0.962 9.868,0.017 m 64.474,0 5.371,-1.364 v 4.912 c 0,7.018 -7.463,10.066 -16.361,6.683 -2.833,-1.077 -3.376,-2.114 -3.376,-6.456 v -5.172 l 4.497,1.38 c 3.117,0.956 6.146,0.962 9.869,0.017 m -46.968,5.668 c -4.201,2.942 -4.306,17.345 -0.154,21.103 3.391,3.068 16.643,3.531 20.054,0.701 3.207,-2.662 3.11,-19.564 -0.127,-22.021 -3.241,-2.461 -16.152,-2.319 -19.773,0.217 m 18.763,2.377 c 2.342,1.712 2.292,1.9 -1.09,4.116 -3.839,2.515 -14.286,2.243 -16.971,-0.442 -4.491,-4.491 12.279,-7.902 18.061,-3.674 m 63.074,-0.995 c 2.953,1.133 2.577,4.106 -0.743,5.883 -3.211,1.719 -13.793,0.912 -15.919,-1.214 -3.894,-3.895 9.152,-7.551 16.662,-4.669 m 33.66,6.65 c 1.751,1.706 1.686,2.136 -0.58,3.816 -4.952,3.67 -17.841,1.704 -17.841,-2.721 0,-4.342 14.218,-5.187 18.421,-1.095 m -103.586,2.77 c 2.334,-0.323 5.132,-0.83 6.218,-1.127 3.522,-0.963 3.337,7.37 -0.219,9.861 -7.531,5.275 -18.202,1.89 -18.202,-5.773 v -5.148 l 3.98,1.387 c 2.189,0.763 5.89,1.123 8.223,0.8 m 62.969,0.307 c 2.171,0 5.093,-0.613 6.493,-1.362 2.319,-1.241 2.545,-0.894 2.545,3.901 0,6.091 -2.343,7.988 -9.868,7.988 -7.494,0 -9.869,-1.903 -9.869,-7.909 0,-5.021 0.106,-5.144 3.375,-3.901 1.857,0.706 5.152,1.283 7.324,1.283 m -41.949,4.59 c -4.651,3.36 -4.406,19.403 0.345,22.515 4.507,2.954 17.372,1.988 19.918,-1.494 2.322,-3.175 2.308,-16.486 -0.02,-19.67 -2.527,-3.456 -16.077,-4.361 -20.243,-1.351 m 81.753,9.503 c -4.551,3.327 -7.082,2.15 -7.082,-3.294 0,-7.487 8.3,-10.22 8.978,-2.956 0.297,3.188 -0.271,5.061 -1.896,6.25 m 10.418,-8.004 c 5.58,2.837 5.491,2.688 3.052,5.127 -2.229,2.228 -3.043,15.648 -1.124,18.522 5.986,8.964 25.309,4.399 25.309,-5.979 v -3.993 l 7.237,3.549 c 9.447,4.633 11.364,2.941 -22.46,19.833 -29.024,14.495 -29.687,14.75 -29.276,11.257 0.311,-2.642 1.385,-3.829 4.123,-4.555 11.352,-3.013 10.898,-23.443 -0.572,-25.737 -5.242,-1.048 -5.13,-5.188 0.172,-6.352 5.501,-1.209 7.882,-4.018 7.882,-9.302 0,-5.197 0.053,-5.22 5.657,-2.37 m -75.308,0.537 c 3.728,1.994 3.127,3.792 -1.978,5.925 -7.736,3.232 -17.797,-0.615 -13.898,-5.314 1.906,-2.296 12.002,-2.685 15.876,-0.611 m 55.177,27.579 v 24.995 l -30.252,15.137 c -16.639,8.325 -30.554,15.137 -30.921,15.137 -0.368,0 -0.669,-11.247 -0.669,-24.994 v -24.995 l 29.934,-15.066 c 16.464,-8.287 30.378,-15.099 30.921,-15.138 0.543,-0.038 0.987,11.177 0.987,24.924 m 41.34,-22.88 c 1.144,0.44 2.081,1.857 2.081,3.149 0,4.269 -13.009,5.708 -17.841,1.974 -5.12,-3.957 7.829,-8.166 15.76,-5.123 m -93.972,8.037 c 0,5.149 -2.812,6.954 -10.834,6.954 -6.779,0 -8.903,-1.71 -8.903,-7.171 v -4.013 h 9.869 9.868 v 4.23 m 97.369,4.558 c 0,5.206 -3.219,7.659 -10.049,7.659 -8.19,0 -11.004,-1.778 -11.004,-6.954 v -4.23 h 10.526 10.527 v 3.525 m -228.262,4.227 c 5.665,4.143 -6.09,9.275 -13.866,6.055 -7.313,-3.03 -3.673,-7.773 6.021,-7.846 2.937,-0.022 6.468,0.784 7.845,1.791 m 193.471,0.062 c 2.268,1.682 2.333,2.112 0.58,3.844 -3.9,3.855 -7.197,3.225 -7.649,-1.461 -0.467,-4.838 2.436,-5.817 7.069,-2.383 m 54.528,27.39 v 25.335 l -62.504,31.244 c -34.377,17.184 -62.811,31.243 -63.186,31.243 -0.376,0 -0.522,-11.398 -0.326,-25.329 l 0.358,-25.328 61.842,-31.158 c 34.013,-17.136 62.286,-31.199 62.829,-31.25 0.542,-0.051 0.987,11.308 0.987,25.243 m -268.422,-15.013 c 0,6.96 3.161,9.549 11.737,9.615 9.449,0.073 13.263,-2.65 13.263,-9.468 v -5.26 l 5.387,2.748 c 5.017,2.56 5.242,2.906 3.289,5.065 -3.064,3.386 -2.898,17.423 0.24,20.264 9.372,8.48 24.675,1.82 22.819,-9.931 -0.285,-1.805 3.06,-0.901 10.033,2.711 l 6.898,3.574 -30.865,15.416 -30.865,15.416 -30.31,-15.167 c -16.67,-8.342 -30.31,-15.426 -30.31,-15.744 0,-0.317 3.553,-2.37 7.895,-4.561 l 7.895,-3.986 v 5.078 c 0,8.802 9.939,13.229 20.134,8.97 l 4.866,-2.033 v -9.977 c 0,-7.816 -0.444,-10.147 -2.049,-10.763 -1.533,-0.589 -0.79,-1.559 2.961,-3.865 6.646,-4.085 6.982,-3.994 6.982,1.898 m 17.233,-3.78 c 2.454,-0.704 4.613,-1.279 4.798,-1.279 0.186,0 0.338,2 0.338,4.444 0,5.554 -2.32,7.54 -8.914,7.631 -8.917,0.123 -10.823,-1.067 -10.823,-6.761 v -5.035 l 5.071,1.14 c 3.042,0.683 6.854,0.627 9.53,-0.14 m 198.557,3.063 c 0,5.125 -1.984,7.5 -6.264,7.5 -7.518,0 -2.72,-10.648 5.277,-11.711 0.543,-0.072 0.987,1.823 0.987,4.211 m -226.908,4.922 c 5.41,4.49 -9.65,8.739 -16.068,4.533 l -3.558,-2.331 3.186,-2.579 c 3.572,-2.893 12.754,-2.682 16.44,0.377 m 61.691,-1.402 c 6.844,2.602 2.08,7.927 -7.091,7.927 -2.044,0 -5.058,-1.086 -6.698,-2.414 l -2.981,-2.414 3.128,-2.191 c 3.526,-2.47 8.639,-2.81 13.642,-0.908 m -70.967,9.839 c 2.894,0.026 6.595,-0.433 8.223,-1.021 2.704,-0.976 2.961,-0.675 2.961,3.465 0,7.54 -10.541,11.681 -17.735,6.968 -4.157,-2.724 -5.093,-12.432 -1.015,-10.533 1.266,0.59 4.671,1.094 7.566,1.121 m 64.473,0 c 2.895,0.026 6.596,-0.433 8.224,-1.021 2.704,-0.976 2.961,-0.675 2.961,3.465 0,7.54 -10.542,11.681 -17.736,6.968 -4.157,-2.724 -5.092,-12.432 -1.014,-10.533 1.266,0.59 4.671,1.094 7.565,1.121 m -36.597,3.36 c -6.576,1.998 -7.482,3.59 -7.482,13.149 0,11.512 4.343,14.858 16.359,12.604 7.112,-1.334 8.641,-3.693 8.641,-13.325 0,-10.882 -6.779,-15.691 -17.518,-12.428 m 13.571,4.809 c 1.751,1.706 1.686,2.135 -0.58,3.815 -4.952,3.671 -17.841,1.705 -17.841,-2.72 0,-4.343 14.218,-5.188 18.421,-1.095 m 53.947,26.098 v 25.652 l -30.252,15.137 c -16.638,8.326 -30.566,15.137 -30.949,15.137 -0.384,0 -0.537,-11.398 -0.34,-25.329 l 0.357,-25.328 30.263,-15.333 c 16.645,-8.433 30.412,-15.391 30.593,-15.461 0.18,-0.07 0.328,11.416 0.328,25.525 m 64.862,30.632 c 0.149,13.912 0.125,25.295 -0.052,25.295 -0.177,-10e-4 -14.239,-6.952 -31.25,-15.448 l -30.928,-15.448 v -25.347 -25.347 l 30.98,15.5 30.98,15.501 0.27,25.294 m -158.948,-40.18 29.613,14.789 v 25.339 25.339 l -30.921,-15.444 -30.921,-15.444 v -24.684 c 0,-15.483 0.487,-24.684 1.308,-24.684 0.719,0 14.634,6.655 30.921,14.789 m 30.62,-8.21 c 3.16,0 6.89,-0.613 8.29,-1.362 2.319,-1.241 2.545,-0.895 2.545,3.901 0,6.091 -2.343,7.988 -9.869,7.988 -7.608,0 -9.868,-1.879 -9.868,-8.205 0,-4.262 0.351,-5.129 1.579,-3.901 0.868,0.869 4.164,1.579 7.323,1.579" />
    </g>
</svg>
