<?xml version="1.0" encoding="utf-8"?>
<svg version="1.1" id="Layer_1" xmlns="http://www.w3.org/2000/svg" xmlns:xlink="http://www.w3.org/1999/xlink" x="0px" y="0px" width="728.911px" height="155.822px" viewBox="0 0 728.911 155.822" enable-background="new 0 0 728.911 155.822" xml:space="preserve">
  <rect x="254.731" y="125.865" fill="gray" width="2.999" height="13.541" />
  <polyline fill="gray" points="273.844,134.667 273.649,130.411 273.649,125.865 276.687,125.865 276.687,139.406  274.094,139.406 267.362,130.74 267.479,135.189 267.479,139.406 264.422,139.406 264.422,125.865 267.014,125.865 273.844,134.667  " />
  <polyline fill="gray" points="283.377,139.406 283.377,125.884 293.244,125.884 293.244,128.651 286.395,128.651  286.395,131.861 292.817,131.861 292.817,134.55 286.395,134.55 286.395,139.406 283.377,139.406 " />
  <path fill="gray" d="M307.924,137.084h-6.946l-0.986,2.322h-3.25l6.075-13.541h3.288l6.075,13.541h-3.27L307.924,137.084   M304.46,128.921l-2.34,5.494h4.663L304.46,128.921z" />
  <polyline fill="gray" points="326.705,134.667 326.51,130.411 326.51,125.865 329.548,125.865 329.548,139.406 326.955,139.406  320.223,130.74 320.341,135.189 320.341,139.406 317.284,139.406 317.284,125.865 319.875,125.865 326.705,134.667 " />
  <path fill="gray" d="M339.178,128.555h-4.119v-2.689c3.945,0,7.273,0,11.239,0v2.689h-4.121v10.852h-2.999V128.555" />
  <path fill="gray" d="M363.337,135.575v3.831h-3.017v-13.541c2.167,0,4.237,0,6.384,0c3.461,0,5.184,2.244,5.184,4.856  c0,2.708-1.74,4.816-5.184,4.854H363.337 M363.337,132.811h3.367c1.451,0,2.167-0.949,2.167-2.032s-0.737-2.049-2.167-2.049h-3.367  V132.811z" />
  <path fill="gray" d="M389.528,139.406h-3.348l-3.463-4.449h-2.186v4.449h-3.019v-13.541c2.206,0,4.237,0,6.424,0  c3.27,0,5.01,2.186,5.01,4.565c-0.021,1.76-0.542,3.326-3.133,4.256l3.714,4.487V139.406 M380.532,128.457v3.947h3.442  c1.395,0,1.993-1.045,1.993-1.896c-0.02-0.929-0.618-2.051-2.03-2.051H380.532z" />
  <path fill="gray" d="M401.655,139.734c-4.333,0-7.313-2.688-7.313-7.098c0-4.411,2.98-7.101,7.313-7.101s7.312,2.689,7.312,7.101  C408.967,137.046,405.988,139.734,401.655,139.734 M401.655,128.245c-2.573,0-4.354,1.934-4.354,4.392c0,2.532,1.78,4.37,4.354,4.37  c2.631,0,4.351-1.856,4.351-4.37C406.006,130.16,404.286,128.245,401.655,128.245z" />
  <path fill="gray" d="M417.592,128.555h-4.119v-2.689c3.944,0,7.273,0,11.238,0v2.689h-4.121v10.852h-2.998V128.555" />
  <path fill="gray" d="M440.534,139.406h-10.312c0-4.508,0-9.033,0-13.541h10.041v2.766h-7.08v2.611h6.674v2.651h-6.674v2.727  h7.352V139.406" />
  <path fill="gray" d="M458.115,137.763c-1.395,1.373-3.192,1.991-5.204,1.991c-5.164,0-7.215-3.326-7.236-7.021  c-0.018-3.501,2.266-7.176,7.236-7.176c1.856,0,3.58,0.715,4.97,2.089l-1.894,1.876c-0.813-0.792-1.993-1.122-3.076-1.122  c-3.077,0-4.275,2.379-4.256,4.352c0.019,1.975,1.083,4.219,4.256,4.219c1.083,0,2.515-0.484,3.328-1.297L458.115,137.763" />
  <path fill="gray" d="M466.528,128.555h-4.12v-2.689c3.944,0,7.272,0,11.239,0v2.689h-4.121v10.852h-2.998V128.555" />
  <rect x="479.158" y="125.865" fill="gray" width="2.999" height="13.541" />
  <path fill="gray" d="M495.387,139.734c-4.334,0-7.312-2.688-7.312-7.098c0-4.411,2.979-7.101,7.312-7.101  c4.333,0,7.313,2.689,7.313,7.101C502.7,137.046,499.72,139.734,495.387,139.734 M495.387,128.245c-2.572,0-4.352,1.934-4.352,4.392  c0,2.532,1.779,4.37,4.352,4.37c2.631,0,4.353-1.856,4.353-4.37C499.739,130.16,498.018,128.245,495.387,128.245z" />
  <polyline fill="gray" points="518.037,134.667 517.842,130.411 517.842,125.865 520.88,125.865 520.88,139.406 518.287,139.406  511.555,130.74 511.672,135.189 511.672,139.406 508.616,139.406 508.616,125.865 511.207,125.865 518.037,134.667 " />
  <path fill="gray" d="M543.839,129.134c-0.756-0.793-2.071-1.141-3.134-1.141c-1.335,0-2.418,0.562-2.418,1.49  c0,1.238,1.179,1.47,2.92,1.624c2.67,0.232,5.205,1.258,5.205,4.392c0,3.018-2.787,4.333-5.707,4.353  c-2.34,0.02-4.779-0.891-5.92-2.786l1.8-1.876c1.043,1.335,2.766,1.915,4.138,1.915c1.608,0,2.709-0.64,2.709-1.605  c0.021-1.142-0.89-1.664-2.727-1.817c-2.863-0.272-5.416-0.988-5.378-4.181c0.02-2.688,2.572-4.12,5.357-4.12  c2.091,0,3.656,0.465,5.05,2.09L543.839,129.134" />
  <path fill="gray" d="M558.694,139.734c-4.333,0-7.313-2.688-7.313-7.098c0-4.411,2.98-7.101,7.313-7.101s7.312,2.689,7.312,7.101  C566.006,137.046,563.027,139.734,558.694,139.734 M558.694,128.245c-2.572,0-4.353,1.934-4.353,4.392c0,2.532,1.78,4.37,4.353,4.37  c2.631,0,4.352-1.856,4.352-4.37C563.046,130.16,561.325,128.245,558.694,128.245z" />
  <polyline fill="gray" points="574.94,125.865 574.94,136.64 581.711,136.64 581.711,139.406 571.922,139.406 571.922,125.865  574.94,125.865 " />
  <path fill="gray" d="M599.118,125.884v7.564c0,4.023-2.244,6.171-5.802,6.286c-3.54,0.117-6.538-1.914-6.538-6.286v-7.564h2.998  v7.564c0,2.418,1.353,3.675,3.558,3.578c2.051-0.135,2.788-1.547,2.788-3.578v-7.564H599.118" />
  <path fill="gray" d="M608.557,128.555h-4.119v-2.689c3.944,0,7.272,0,11.238,0v2.689h-4.121v10.852h-2.998V128.555" />
  <rect x="621.188" y="125.865" fill="gray" width="2.998" height="13.541" />
  <path fill="gray" d="M637.416,139.734c-4.333,0-7.312-2.688-7.312-7.098c0-4.411,2.979-7.101,7.312-7.101  s7.312,2.689,7.312,7.101C644.729,137.046,641.749,139.734,637.416,139.734 M637.416,128.245c-2.573,0-4.352,1.934-4.352,4.392  c0,2.532,1.778,4.37,4.352,4.37c2.631,0,4.352-1.856,4.352-4.37C641.768,130.16,640.047,128.245,637.416,128.245z" />
  <polyline fill="gray" points="660.067,134.667 659.872,130.411 659.872,125.865 662.91,125.865 662.91,139.406 660.317,139.406  653.584,130.74 653.702,135.189 653.702,139.406 650.645,139.406 650.645,125.865 653.237,125.865 660.067,134.667 " />
  <path fill="#F065A5" d="M275.614,30.758c1.452,0,2.629,1.177,2.629,2.629v39.13c0,15.525,9.347,24.419,24.42,24.27  c14.321,0,24.421-11.156,24.421-25.477V33.387c0-1.452,1.178-2.629,2.629-2.629h4.692c1.451,0,2.629,1.177,2.629,2.629V102.6  c0,1.451-1.178,2.629-2.629,2.629h-4.152c-1.427,0-2.593-1.14-2.628-2.566l-0.239-9.946c-6.179,9.496-15.979,13.567-26.381,13.72  c-19.296,0-32.862-12.514-32.862-33.769V33.387c0-1.452,1.176-2.629,2.628-2.629H275.614" />
  <path fill="#F065A5" d="M588.717,72.213c1.359,15.528,13.418,24.723,28.192,24.723c8.189,0,17.865-2.967,23.537-8.453  c0.988-0.957,2.532-1,3.561-0.086l2.895,2.572c1.131,1.005,1.175,2.745,0.124,3.834c-7.556,7.814-19.283,11.78-30.116,11.78  c-22.16,0-38.591-14.923-38.591-38.741c0-22.311,15.978-38.442,38.138-38.442c21.54,0,38.949,12.677,37.276,40.381  c-0.083,1.371-1.254,2.431-2.627,2.431H588.717 M644.043,63.621c-0.303-16.28-12.511-25.174-27.437-25.174  c-14.925,0-25.929,9.046-27.89,25.174H644.043z" />
  <path fill="#F065A5" d="M252.387,92.578c1.415,1.384,1.335,3.712-0.195,4.97c-7.299,5.998-15.898,8.842-24.852,8.842  c-21.113,0-38.609-14.179-38.609-38.459c0-24.131,17.043-38.308,38.609-38.308c8.782,0,16.626,2.699,23.634,8.514  c1.53,1.27,1.631,3.599,0.209,4.988l-1.88,1.837c-1.208,1.182-3.099,1.255-4.419,0.201c-5.122-4.092-11.085-6.039-17.392-6.039  c-15.836,0-28.656,10.558-28.656,28.807c0,18.701,12.97,28.806,28.504,28.806c6.59,0,13.178-2.188,18.459-6.461  c1.319-1.067,3.217-0.994,4.429,0.191L252.387,92.578" />
  <path fill="#F065A5" d="M722.143,43.506c-1.156,1.305-3.115,1.474-4.513,0.43c-6.185-4.62-12.557-5.567-19.637-5.567  c-10.86-0.15-20.512,3.771-20.211,12.066c0.151,8.747,11.01,10.858,20.359,12.216c13.425,1.96,30.77,4.222,30.77,22.322  c-0.304,15.684-15.536,21.717-30.618,21.717c-11.785,0-23.441-3.568-31.103-12.111c-1.149-1.28-1.137-3.231,0.022-4.502l1.848-2.022  c1.312-1.438,3.526-1.41,4.895-0.026c6.486,6.562,16.078,9.177,24.49,9.312c8.445,0,20.359-2.414,20.359-12.519  c0-9.803-9.651-11.613-21.565-13.272c-14.328-2.112-29.259-5.429-29.41-20.813c0-15.232,15.382-21.717,30.011-21.567  c9.854,0,18.179,2.351,25.289,7.781c1.548,1.182,1.774,3.443,0.481,4.901L722.143,43.506" />
  <path fill="#F065A5" d="M430.365,11.644c0-1.56-1.352-2.776-2.903-2.614l-4.84,0.506c-1.339,0.139-2.356,1.268-2.356,2.614  l-0.003,33.307c-5.581-11.01-17.646-16.137-29.261-16.137c-21.113,0-37.551,13.725-37.551,38.61  c0,24.734,16.438,38.609,37.551,38.609c11.766,0,23.227-5.58,29.261-16.289l0.236,11.66c0.036,1.818,1.52,3.272,3.337,3.272h3.192  c1.844,0,3.339-1.495,3.339-3.339L430.365,11.644 M391.607,96.888c-15.534,0-28.053-10.257-28.053-28.958  c0-19.004,12.519-28.957,28.053-28.957c15.836,0,28.202,11.763,28.202,28.806C419.81,85.123,407.592,96.888,391.607,96.888z" />
  <path fill="#F065A5" d="M523.809,11.644c0-1.56-1.352-2.776-2.901-2.614l-4.841,0.506c-1.34,0.139-2.356,1.268-2.356,2.614  l-0.003,33.307c-5.581-11.01-17.647-16.137-29.26-16.137c-21.114,0-37.553,13.725-37.553,38.61  c0,24.734,16.438,38.609,37.553,38.609c11.765,0,23.226-5.58,29.26-16.289l0.236,11.66c0.035,1.818,1.52,3.272,3.338,3.272h3.19  c1.845,0,3.339-1.495,3.339-3.339L523.809,11.644 M485.051,96.888c-15.534,0-28.053-10.257-28.053-28.958  c0-19.004,12.519-28.957,28.053-28.957c15.836,0,28.203,11.763,28.203,28.806C513.254,85.123,501.037,96.888,485.051,96.888z" />
  <path fill="#F065A5" d="M558.492,11.644c0-1.56-1.352-2.776-2.903-2.614l-4.841,0.506c-1.338,0.139-2.355,1.268-2.355,2.614  l-0.004,89.693c0,1.844,1.494,3.339,3.338,3.339h3.429c1.844,0,3.339-1.495,3.339-3.339L558.492,11.644" />
  <path fill="#F9CDE0" d="M115.642,124.47c1.026-0.834,2.535-0.68,3.37,0.347c0.834,1.027,0.677,2.536-0.347,3.37  c-5.771,4.676-12.25,8.291-19.137,10.73c-6.897,2.443-14.204,3.72-21.616,3.72c-8.019,0-15.913-1.498-23.293-4.346  c-7.362-2.839-14.212-7.032-20.163-12.428c-0.98-0.886-1.056-2.401-0.168-3.379c0.884-0.981,2.398-1.055,3.377-0.169  c5.507,4.988,11.852,8.874,18.681,11.508c6.81,2.623,14.114,4.006,21.566,4.006c6.873,0,13.644-1.18,20.018-3.439  C104.316,132.127,110.317,128.786,115.642,124.47" />
  <path fill="#F9CDE0" d="M21,96.664c-1.978-6.007-3.006-12.336-3.006-18.752c0-6.244,0.964-12.26,2.738-17.919  c0.368-1.171-0.162-2.432-1.278-2.944c-1.301-0.597-2.86,0.055-3.291,1.42c-1.932,6.137-2.978,12.667-2.978,19.443  c0,6.92,1.115,13.755,3.255,20.253c2.134,6.482,5.308,12.643,9.43,18.217c0.787,1.063,2.289,1.286,3.352,0.501  c1.063-0.789,1.286-2.291,0.499-3.353C25.918,108.384,22.984,102.684,21,96.664" />
  <path fill="#F9CDE0" d="M121.015,29.639c-5.942-5.303-12.747-9.42-20.039-12.201c-7.308-2.787-15.119-4.253-23.064-4.253  c-17.873,0-34.056,7.246-45.767,18.961c-4.265,4.264-7.926,9.128-10.869,14.445c-0.67,1.21-0.132,2.742,1.126,3.319  c1.155,0.53,2.498,0.057,3.115-1.054c2.719-4.899,6.095-9.38,10.027-13.312c10.838-10.842,25.821-17.551,42.368-17.551  c7.363,0,14.596,1.355,21.355,3.934c6.776,2.585,13.078,6.39,18.556,11.279c0.983,0.88,2.499,0.796,3.379-0.187  C122.083,32.034,121.998,30.519,121.015,29.639" />
  <path fill="#F9CDE0" d="M126.862,43.348c-0.762-1.083-0.503-2.581,0.58-3.342c1.085-0.761,2.582-0.502,3.344,0.582  c3.856,5.461,6.82,11.454,8.816,17.744l0.056,0.21c1.962,6.252,2.979,12.784,2.979,19.37c0,7.436-1.284,14.762-3.74,21.673  c-2.454,6.903-6.087,13.4-10.786,19.174c-0.835,1.027-2.344,1.184-3.371,0.348c-1.027-0.833-1.18-2.342-0.347-3.369  c4.343-5.336,7.703-11.349,9.979-17.749c2.269-6.391,3.458-13.179,3.458-20.076c0-6.142-0.936-12.189-2.739-17.94l-0.07-0.191  C133.17,53.947,130.426,48.4,126.862,43.348" />
  <path fill="#FCE5EF" d="M100.019,8.221c-1.261-0.4-1.959-1.75-1.557-3.01c0.401-1.26,1.75-1.959,3.01-1.557  c6.431,2.042,12.547,4.901,18.195,8.486c5.658,3.594,10.849,7.907,15.423,12.849c14.614,15.789,21.444,36.009,20.674,55.935  c-0.771,19.926-9.142,39.558-24.932,54.172c-9.307,8.613-20.424,14.693-32.312,17.953l-0.145,0.036  c-11.847,3.226-24.458,3.651-36.802,1.006c-1.295-0.277-2.122-1.554-1.845-2.848c0.278-1.294,1.554-2.121,2.85-1.843  c11.593,2.488,23.427,2.086,34.536-0.943l0.136-0.041c11.151-3.058,21.581-8.764,30.316-16.849  c14.816-13.713,22.672-32.134,23.395-50.829c0.723-18.694-5.687-37.667-19.399-52.483c-4.311-4.658-9.181-8.708-14.47-12.068  C111.791,12.82,106.051,10.136,100.019,8.221" />
  <path fill="#FCE5EF" d="M5.521,88.202c0.186,1.311-0.725,2.524-2.033,2.713c-1.309,0.189-2.523-0.723-2.712-2.029  C-1.022,76.231,0.34,63.531,4.499,51.825C8.662,40.117,15.612,29.404,24.983,20.73c8.522-7.887,18.593-13.67,29.414-17.094  c10.812-3.426,22.376-4.49,33.888-2.941c1.314,0.175,2.237,1.384,2.06,2.697c-0.175,1.313-1.382,2.237-2.696,2.062  C76.842,3.999,65.987,4.998,55.841,8.209c-10.137,3.209-19.584,8.638-27.592,16.049c-8.815,8.158-15.343,18.209-19.242,29.178  C5.109,64.409,3.831,76.326,5.521,88.202" />
  <path fill="#FCE5EF" d="M51.968,146.269c1.236,0.475,1.855,1.862,1.382,3.099c-0.475,1.237-1.861,1.856-3.096,1.383  c-5.627-2.138-10.969-4.908-15.917-8.246c-4.956-3.346-9.531-7.257-13.612-11.666c-4.037-4.36-7.555-9.171-10.491-14.318  c-2.927-5.13-5.271-10.612-6.977-16.329c-0.382-1.265,0.337-2.601,1.603-2.98c1.265-0.38,2.601,0.338,2.982,1.604  c1.594,5.347,3.795,10.483,6.552,15.314c2.747,4.816,6.053,9.331,9.859,13.444c3.839,4.148,8.132,7.822,12.775,10.955  C41.681,141.667,46.695,144.269,51.968,146.269" />
  <path fill="#F065A5" d="M46.849,43.146c9.164-8.199,21.571-12.843,35.038-11.723c22.523,1.874,40.731,20.144,42.53,42.674  c0.106,1.322,0.151,2.633,0.144,3.932c-0.006,1.115,0.765,2.081,1.863,2.271l0.104,0.019c1.384,0.242,2.634-0.828,2.644-2.234  c0.011-1.437-0.037-2.887-0.153-4.351c-1.972-24.769-21.991-44.857-46.753-46.911c-14.832-1.23-28.496,3.903-38.571,12.956  c-0.97,0.87-0.972,2.395-0.051,3.316C44.524,43.975,45.922,43.976,46.849,43.146" />
  <path fill="#F065A5" d="M123.038,89.744c-5.585,21.283-25.854,36.68-49.282,34.638c-22.816-1.987-40.749-20.246-42.371-43.092  c-0.768-10.813,2.184-20.916,7.691-29.177c0.617-0.926,0.526-2.145-0.26-2.931l-0.011-0.011c-1.038-1.038-2.759-0.849-3.573,0.372  c-6.252,9.375-9.5,20.915-8.357,33.236c2.208,23.799,21.039,43.194,44.772,46.026c26.496,3.16,49.651-14.037,55.885-37.991  c0.335-1.287-0.546-2.58-1.856-2.81C124.475,87.796,123.348,88.564,123.038,89.744" />
  <path fill="#F065A5" d="M72.288,110.604c-13.535-2.245-24.293-12.785-26.885-26.202c-0.214-1.107-1.14-1.93-2.268-1.93  c-1.455,0-2.547,1.334-2.272,2.763c2.944,15.334,15.248,27.371,30.72,29.915c1.405,0.23,2.69-0.844,2.69-2.268v-0.008  C74.273,111.729,73.419,110.792,72.288,110.604" />
  <path fill="#F065A5" d="M86.076,41.623c-5.117-1.193-10.615-1.371-16.32-0.14c-15.117,3.26-26.734,15.759-29.11,30.852  c-0.222,1.406,0.86,2.686,2.284,2.686c1.16,0,2.102-0.867,2.283-2.013c2.084-13.167,12.17-24.076,25.338-26.977  c5.085-1.12,9.989-0.973,14.548,0.093c1.084,0.254,2.185-0.351,2.603-1.382C88.235,43.425,87.459,41.946,86.076,41.623" />
  <path fill="#F065A5" d="M95.348,48.153l-0.041,0.102c-0.405,0.998-0.024,2.118,0.866,2.725c8.689,5.925,14.417,15.883,14.417,27.171  c0,16.005-11.497,29.347-26.66,32.271c-1.112,0.215-1.939,1.146-1.939,2.278c0,1.454,1.331,2.551,2.76,2.278  c17.319-3.313,30.455-18.558,30.455-36.828c0-12.891-6.559-24.253-16.495-31.004C97.522,46.34,95.888,46.822,95.348,48.153" />
  <path fill="#F065A5" d="M87.895,68.353c-1.728-0.805-3.682-0.921-5.502-0.326c-1.814,0.594-3.349,1.866-4.275,3.528  c-1.833-3.408-6.067-4.902-9.728-3.21c-1.957,0.9-3.388,2.469-4.026,4.421c-0.767,2.338-0.373,5.015,1.14,7.74  c2.109,3.765,5.354,6.633,12.304,12.039c0.065,0.052,0.152,0.064,0.228,0.039c0.025-0.008,0.05-0.021,0.073-0.038  c7.033-5.404,10.323-8.271,12.485-12.041c1.564-2.738,1.996-5.426,1.248-7.771C91.226,70.803,89.825,69.248,87.895,68.353" />
</svg>