<svg
  xmlns="http://www.w3.org/2000/svg"
  viewBox="0 0 71.11 71.11"
>
    <defs>
        <style>
          .cls-2{fill:#fff;}
          .cls-1:hover{fill:#50b4e7;}
          .cls-1{fill:#58595b;}
        </style>
    </defs>

    <g class="cls-1">
      <circle cx="35.56" cy="35.56" r="35.56" />
      <path class="cls-2" d="M59.71,41.71l-1.36-.26a12.06,12.06,0,0,0-.44-2.15l1.14-.78a1.5,1.5,0,0,0,.4-2.09L56.9,32.66a1.51,1.51,0,0,0-2.1-.39L53.65,33a12.27,12.27,0,0,0-1.83-1.2l.26-1.36a1.51,1.51,0,0,0-1.2-1.77l-4.47-.85a1.51,1.51,0,0,0-1.76,1.2l-.26,1.36a11.26,11.26,0,0,0-2.15.45l-.78-1.15a1.5,1.5,0,0,0-1-.63,1.52,1.52,0,0,0-1.14.23L35.6,31.88a1.52,1.52,0,0,0-.4,2.1L36,35.12A12.87,12.87,0,0,0,34.77,37l-1.35-.26a1.53,1.53,0,0,0-1.14.24,1.47,1.47,0,0,0-.63,1l-.85,4.47A1.51,1.51,0,0,0,32,44.13l1.36.26a12.14,12.14,0,0,0,.44,2.14l-1.14.78a1.57,1.57,0,0,0-.64,1,1.51,1.51,0,0,0,.24,1.13l2.55,3.76a1.55,1.55,0,0,0,1,.64,1.51,1.51,0,0,0,1.13-.24l1.15-.78A11.83,11.83,0,0,0,39.89,54l-.26,1.36a1.52,1.52,0,0,0,.23,1.13,1.55,1.55,0,0,0,1,.64l4.46.85.29,0a1.5,1.5,0,0,0,1.48-1.22l.26-1.36A13.48,13.48,0,0,0,49.47,55l.78,1.15a1.5,1.5,0,0,0,1,.63,1.53,1.53,0,0,0,1.14-.23L56.11,54a1.49,1.49,0,0,0,.63-1,1.52,1.52,0,0,0-.23-1.13l-.78-1.14a13.27,13.27,0,0,0,1.21-1.84l1.35.26a1.45,1.45,0,0,0,1.13-.23,1.47,1.47,0,0,0,.64-1l.85-4.46a1.45,1.45,0,0,0-.23-1.13A1.49,1.49,0,0,0,59.71,41.71Zm-2.34,4.18-1-.19a1.51,1.51,0,0,0-1.68.9,9.51,9.51,0,0,1-1.94,2.95,1.51,1.51,0,0,0-.17,1.9l.59.86-1.26.86-.59-.86a1.51,1.51,0,0,0-1.82-.55,9.4,9.4,0,0,1-3.46.72,1.53,1.53,0,0,0-1.46,1.23l-.19,1-1.5-.29.2-1a1.53,1.53,0,0,0-.91-1.68,9.27,9.27,0,0,1-3-1.94,1.52,1.52,0,0,0-1.9-.16l-.86.58L35.6,49l.86-.58A1.52,1.52,0,0,0,37,46.55a9.56,9.56,0,0,1-.72-3.46,1.51,1.51,0,0,0-1.22-1.45l-1-.2.28-1.5,1,.2a1.53,1.53,0,0,0,1.68-.9,9.55,9.55,0,0,1,1.94-3,1.51,1.51,0,0,0,.16-1.89l-.58-.86,1.26-.86.58.86a1.53,1.53,0,0,0,1.83.55,9.4,9.4,0,0,1,3.46-.72,1.53,1.53,0,0,0,1.46-1.23l.19-1,1.5.29-.2,1a1.52,1.52,0,0,0,.91,1.67,9.47,9.47,0,0,1,3,1.95,1.52,1.52,0,0,0,1.9.16l.86-.59.85,1.27-.86.58a1.5,1.5,0,0,0-.54,1.82,9.87,9.87,0,0,1,.72,3.46,1.51,1.51,0,0,0,1.22,1.46l1,.19Z" />
      <path class="cls-2" d="M46.92,37.36a5.65,5.65,0,0,0-4.25.88,5.68,5.68,0,0,0-1.5,7.86,5.66,5.66,0,0,0,3.62,2.38,6.36,6.36,0,0,0,1.07.1,5.66,5.66,0,0,0,1.06-11.22ZM49,43.52h0a3.22,3.22,0,1,1-6.33-1.21A3.22,3.22,0,0,1,49,43.52Z" />
      <path class="cls-2" d="M31.46,30.06l-.76-.57a9.23,9.23,0,0,0,.37-1.44l.94-.14a1.26,1.26,0,0,0,.83-.49,1.24,1.24,0,0,0,.24-.93l-.49-3.39A1.26,1.26,0,0,0,31.17,22l-.94.13a11.05,11.05,0,0,0-.76-1.28l.57-.76a1.26,1.26,0,0,0-.25-1.76l-2.74-2.05a1.3,1.3,0,0,0-.94-.24,1.24,1.24,0,0,0-.82.49l-.57.76A10.27,10.27,0,0,0,23.27,17L23.14,16A1.28,1.28,0,0,0,21.71,15l-3.38.49a1.26,1.26,0,0,0-1.07,1.43l.14.94a8.8,8.8,0,0,0-1.28.76L15.36,18a1.25,1.25,0,0,0-1.76.25L11.54,21a1.24,1.24,0,0,0-.23.93,1.27,1.27,0,0,0,.49.83l.76.57a10.14,10.14,0,0,0-.37,1.44l-.94.13a1.27,1.27,0,0,0-1.07,1.43l.49,3.39a1.26,1.26,0,0,0,1.43,1.06l.93-.13a11.05,11.05,0,0,0,.76,1.28l-.56.76a1.23,1.23,0,0,0-.24.93,1.26,1.26,0,0,0,.49.83l2.73,2.05A1.28,1.28,0,0,0,18,36.24l.57-.76a10.14,10.14,0,0,0,1.44.37l.13.93a1.27,1.27,0,0,0,.5.83,1.21,1.21,0,0,0,.75.25h.18l3.38-.48A1.26,1.26,0,0,0,26,35.94L25.87,35a9.8,9.8,0,0,0,1.28-.76l.76.57a1.26,1.26,0,0,0,1.76-.25l2-2.74A1.26,1.26,0,0,0,31.46,30.06Zm-1.7-4.37a1.27,1.27,0,0,0-1.08,1.17A6.91,6.91,0,0,1,28,29.38a1.27,1.27,0,0,0,.39,1.55l.53.39-.54.72-.53-.4a1.27,1.27,0,0,0-1.59.07A7.08,7.08,0,0,1,24.05,33a1.27,1.27,0,0,0-.82,1.36l.1.65-.89.13-.09-.65a1.28,1.28,0,0,0-1.17-1.08,6.76,6.76,0,0,1-2.53-.65,1.4,1.4,0,0,0-.53-.11,1.24,1.24,0,0,0-1,.5l-.39.53L16,33.18l.39-.53a1.27,1.27,0,0,0-.06-1.59A6.63,6.63,0,0,1,15,28.82,1.29,1.29,0,0,0,13.63,28l-.65.1-.12-.89.64-.09A1.27,1.27,0,0,0,14.58,26a7.16,7.16,0,0,1,.65-2.53,1.26,1.26,0,0,0-.39-1.54l-.52-.39.54-.72.52.39A1.27,1.27,0,0,0,17,21.1a6.82,6.82,0,0,1,2.24-1.33A1.26,1.26,0,0,0,20,18.4l-.09-.64.89-.13.09.65a1.25,1.25,0,0,0,1.17,1.07,7.17,7.17,0,0,1,2.52.65,1.27,1.27,0,0,0,1.54-.38l.4-.53.72.54-.4.52a1.27,1.27,0,0,0,.07,1.59A7.19,7.19,0,0,1,28.27,24a1.27,1.27,0,0,0,1.36.82l.65-.09.13.89Z" />
      <path class="cls-2" d="M21,21.9A4.55,4.55,0,0,0,21.63,31a4.82,4.82,0,0,0,.65,0h0a4.55,4.55,0,0,0-1.3-9Zm2.59,6A2.39,2.39,0,0,1,22,28.8a2.42,2.42,0,0,1-1.8-.46,2.38,2.38,0,0,1-.94-1.59,2.41,2.41,0,0,1,.45-1.8,2.44,2.44,0,0,1,1.6-.94l.34,0A2.44,2.44,0,0,1,24,26.06,2.38,2.38,0,0,1,23.57,27.85Z" />
    </g>
</svg>